SplineFontDB: 3.0
FontName: NineParchments
FullName: NineParchments
FamilyName: Nine Parchments
Weight: Book
Copyright: All rights reserved by Frozenbyte co. 2018
Version: 1.020
ItalicAngle: 0
UnderlinePosition: -100
UnderlineWidth: 50
Ascent: 800
Descent: 200
InvalidEm: 0
sfntRevision: 0x00010000
LayerCount: 2
Layer: 0 1 "+BBcEMAQ0BD0EOAQ5 +BD8EOwQwBD0A" 1
Layer: 1 1 "+BB8ENQRABDUENAQ9BDgEOQAA +BD8EOwQwBD0A" 0
XUID: [1021 124 470122697 3685]
StyleMap: 0x0040
FSType: 4
OS2Version: 3
OS2_WeightWidthSlopeOnly: 0
OS2_UseTypoMetrics: 0
CreationTime: 1423037331
ModificationTime: 1539593970
PfmFamily: 81
TTFWeight: 400
TTFWidth: 5
LineGap: 36
VLineGap: 0
Panose: 0 0 0 0 0 0 0 0 0 0
OS2TypoAscent: 756
OS2TypoAOffset: 0
OS2TypoDescent: -297
OS2TypoDOffset: 0
OS2TypoLinegap: 36
OS2WinAscent: 873
OS2WinAOffset: 0
OS2WinDescent: 392
OS2WinDOffset: 0
HheadAscent: 756
HheadAOffset: 0
HheadDescent: -297
HheadDOffset: 0
OS2SubXSize: 700
OS2SubYSize: 650
OS2SubXOff: 0
OS2SubYOff: 140
OS2SupXSize: 700
OS2SupYSize: 650
OS2SupXOff: 0
OS2SupYOff: 477
OS2StrikeYSize: 50
OS2StrikeYPos: 250
OS2CapHeight: 756
OS2XHeight: 421
OS2Vendor: 'pyrs'
OS2CodePages: 00000007.00000000
OS2UnicodeRanges: 80000227.00000042.00000000.00000000
Lookup: 258 0 0 "'kern' Horizontal Kerning in Latin lookup 0" { "'kern' Horizontal Kerning in Latin lookup 0-2" [100,10,2] "'kern' Horizontal Kerning in Latin lookup 0-1" [100,10,2] } ['kern' ('DFLT' <'dflt' > 'latn' <'dflt' > ) ]
Lookup: 258 0 0 "'kern' Horizontal Kerning in Cyrillic lookup 0" { "'kern' Horizontal Kerning in Cyrillic lookup 0-2" [100,10,2] "'kern' Horizontal Kerning in Cyrillic lookup 0-1" [100,10,2] } ['kern' ('DFLT' <'dflt' > 'cyrl' <'dflt' > ) ]
MarkAttachClasses: 1
DEI: 91125
KernClass2: 23 24 "'kern' Horizontal Kerning in Cyrillic lookup 0-2"
 23 uni0430 uni043B uni043C
 31 uni0431 uni0432 uni0440 uni0444
 7 uni0433
 7 uni0434
 7 uni0435
 7 uni0436
 7 uni0437
 23 uni0438 uni0439 uni043D
 7 uni043A
 7 uni043E
 7 uni043F
 7 uni0441
 7 uni0442

StartChar: A
Encoding: 65 65 1
Width: 653
Flags: W
HStem: 1 1<317 325.901> 2 50<73.9712 132.81 549.943 611.805> 194 68<116.879 157.595 262 420> 688 64<239.281 269.895>
VStem: 159 59<69.7812 164.345> 270 142<623.043 688.416> 455 158<26.5 131.5>
LayerCount: 2
Fore
SplineSet
412 685 m 1,0,-1
 412 669 l 2,1,2
 412 667 l 1,3,-1
 412 665 l 2,4,5
 412 644 412 644 465 415 c 0,6,7
 515 200 515 200 549 77 c 0,8,9
 552 65 552 65 560 61.5 c 128,-1,10
 568 58 568 58 579 55 c 0,11,12
 613 46 613 46 613 30 c 0,13,14
 613 23 613 23 607 15 c 128,-1,15
 601 7 601 7 601 4 c 0,16,17
 601 3 601 3 589 3 c 2,18,-1
 464 1 l 1,19,-1
 375 2 l 2,20,21
 367 2 367 2 367 6 c 0,22,23
 368 13 368 13 394 32 c 0,24,25
 410 43 410 43 427 55 c 128,-1,26
 444 67 444 67 449.5 77.5 c 128,-1,27
 455 88 455 88 455 117 c 128,-1,28
 455 146 455 146 434 192 c 1,29,-1
 250 191 l 1,30,31
 218 108 218 108 218 88.5 c 128,-1,32
 218 69 218 69 223 64 c 0,33,34
 237 50 237 50 277 26 c 128,-1,35
 317 2 317 2 326 2 c 1,36,37
 323 1 323 1 299 1 c 2,38,-1
 239 1 l 1,39,-1
 90 2 l 2,40,41
 45 2 45 2 39 20 c 0,42,43
 38 23 38 23 38 24 c 128,-1,44
 38 25 38 25 38 26 c 0,45,46
 38 34 l 2,47,-1
 38 46 l 2,48,49
 38 67 38 67 74 71 c 1,50,51
 74 71 74 71 74 70 c 0,52,53
 73 68 73 68 82 61 c 0,54,55
 94 52 94 52 107 52 c 0,56,57
 109 52 109 52 110 52 c 0,58,59
 127 56 127 56 133 63 c 0,60,61
 143 75 143 75 151 119 c 128,-1,62
 159 163 159 163 159 174.5 c 128,-1,63
 159 186 159 186 158 189 c 1,64,65
 145 194 145 194 137.5 194 c 128,-1,66
 130 194 130 194 121.5 192.5 c 128,-1,67
 113 191 113 191 103 186 c 0,68,69
 91 181 91 181 87 178 c 128,-1,70
 83 175 83 175 81 175 c 0,71,72
 79 176 79 176 79 176 c 0,73,74
 73 186 73 186 73 194.5 c 128,-1,75
 73 203 73 203 82.5 215 c 128,-1,76
 92 227 92 227 113 238 c 0,77,78
 125 245 125 245 153 256 c 0,79,80
 168 262 168 262 172 262 c 0,81,82
 270 643 270 643 270 683 c 0,83,84
 270 684 270 684 270 685 c 0,85,86
 271 688 271 688 267 688 c 2,87,-1
 256 688 l 1,88,89
 256 688 256 688 255 688 c 0,90,91
 253 687 253 687 242 690 c 0,92,93
 228 694 228 694 217 706 c 1,94,95
 233 718 233 718 237 730 c 0,96,97
 240 739 240 739 240 744 c 0,98,99
 239 748 239 748 239 749 c 1,100,101
 248 752 248 752 258 752 c 0,102,103
 266 752 266 752 294 742 c 0,104,105
 319 733 319 733 337 733 c 2,106,-1
 367 733 l 2,107,108
 368 733 368 733 379 733 c 0,109,110
 389 733 389 733 459 749 c 1,111,112
 482 743 482 743 482 722.5 c 128,-1,113
 482 702 482 702 471 681 c 1,114,115
 457 691 457 691 441 691 c 128,-1,116
 425 691 425 691 412 685 c 1,0,-1
262 257 m 1,117,-1
 420 258 l 1,118,-1
 382 440 l 2,119,120
 375 474 375 474 368 506.5 c 128,-1,121
 361 539 361 539 356 564.5 c 128,-1,122
 351 590 351 590 347 605 c 2,123,-1
 344 620 l 257,124,-1
 341 604 l 1,125,126
 319 517 319 517 302 437.5 c 128,-1,127
 285 358 285 358 262 257 c 1,117,-1
EndSplineSet
Validated: 1
EndChar

StartChar: B
Encoding: 66 66 2
Width: 593
Flags: W
HStem: 1 81<52.1713 126.526> 1 58<204.94 421.629> 215 98<203.688 348.764> 640 95<196.151 356.998>
VStem: 120.529 76<313.598 641> 461.529 88<92.4805 180.42> 475.529 75<405.289 555.652>
LayerCount: 2
Fore
SplineSet
126.529296875 67 m 0,0,1
 126.529296875 121 126.529296875 121 126.029296875 160 c 128,-1,2
 125.529296875 199 125.529296875 199 124.529296875 230 c 128,-1,3
 123.529296875 261 123.529296875 261 122.529296875 288 c 128,-1,4
 121.529296875 315 121.529296875 315 120.529296875 346 c 0,5,6
 119.529296875 369 119.529296875 369 119.529296875 393 c 0,7,8
 120.529296875 406 120.529296875 406 120.529296875 418 c 0,9,10
 120.529296875 454 120.529296875 454 120.529296875 494.5 c 128,-1,11
 120.529296875 535 120.529296875 535 120.029296875 581 c 128,-1,12
 119.529296875 627 119.529296875 627 118.529296875 680 c 0,13,14
 118.529296875 687 118.529296875 687 113.029296875 682.5 c 128,-1,15
 107.529296875 678 107.529296875 678 100.029296875 674.5 c 128,-1,16
 92.529296875 671 92.529296875 671 84.529296875 674.5 c 128,-1,17
 76.529296875 678 76.529296875 678 71.529296875 701 c 0,18,19
 68.529296875 712 68.529296875 712 72.529296875 721 c 128,-1,20
 76.529296875 730 76.529296875 730 85.029296875 737 c 128,-1,21
 93.529296875 744 93.529296875 744 104.529296875 748 c 128,-1,22
 115.529296875 752 115.529296875 752 126.529296875 754 c 0,23,24
 130.529296875 754 130.529296875 754 133.529296875 754 c 0,25,26
 148.529296875 754 148.529296875 754 162.529296875 747 c 0,27,28
 178.529296875 738 178.529296875 738 193.529296875 726 c 1,29,-1
 193.529296875 729 l 1,30,31
 235.529296875 735 235.529296875 735 274.529296875 735 c 0,32,33
 328.529296875 735 328.529296875 735 374.529296875 723 c 0,34,35
 408.529296875 714 408.529296875 714 440.529296875 696 c 128,-1,36
 472.529296875 678 472.529296875 678 497.529296875 647.5 c 128,-1,37
 522.529296875 617 522.529296875 617 536.529296875 572 c 0,38,39
 550.529296875 530 550.529296875 530 550.529296875 471 c 0,40,41
 550.529296875 467 550.529296875 467 550.529296875 463 c 0,42,43
 549.529296875 417 549.529296875 417 536.529296875 385 c 128,-1,44
 523.529296875 353 523.529296875 353 504.529296875 331 c 128,-1,45
 485.529296875 309 485.529296875 309 462.529296875 296.5 c 128,-1,46
 439.529296875 284 439.529296875 284 417.529296875 277.5 c 128,-1,47
 395.529296875 271 395.529296875 271 377.029296875 269 c 128,-1,48
 358.529296875 267 358.529296875 267 349.529296875 267 c 1,49,50
 360.529296875 266 360.529296875 266 380.529296875 262.5 c 128,-1,51
 400.529296875 259 400.529296875 259 424.029296875 252 c 128,-1,52
 447.529296875 245 447.529296875 245 471.529296875 234 c 128,-1,53
 495.529296875 223 495.529296875 223 514.029296875 206 c 128,-1,54
 532.529296875 189 532.529296875 189 542.529296875 166 c 0,55,56
 549.529296875 150 549.529296875 150 549.529296875 130 c 0,57,58
 549.529296875 122 549.529296875 122 548.529296875 113 c 0,59,60
 542.529296875 78 542.529296875 78 511.529296875 56.5 c 128,-1,61
 480.529296875 35 480.529296875 35 438.029296875 23 c 128,-1,62
 395.529296875 11 395.529296875 11 347.529296875 6.5 c 128,-1,63
 299.529296875 2 299.529296875 2 259.529296875 2 c 0,64,65
 239.529296875 1 239.529296875 1 214.529296875 1 c 128,-1,66
 189.529296875 1 189.529296875 1 163.529296875 1 c 128,-1,67
 137.529296875 1 137.529296875 1 112.529296875 1 c 128,-1,68
 87.529296875 1 87.529296875 1 66.529296875 1 c 0,69,70
 56.529296875 1 56.529296875 1 52.029296875 5.5 c 128,-1,71
 47.529296875 10 47.529296875 10 45.529296875 19 c 128,-1,72
 43.529296875 28 43.529296875 28 42.529296875 40 c 128,-1,73
 41.529296875 52 41.529296875 52 37.529296875 67 c 0,74,75
 34.529296875 82 34.529296875 82 48.529296875 82 c 128,-1,76
 62.529296875 82 62.529296875 82 79.529296875 76.5 c 128,-1,77
 96.529296875 71 96.529296875 71 111.529296875 66 c 128,-1,78
 126.529296875 61 126.529296875 61 126.529296875 67 c 0,0,1
195.529296875 641 m 2,79,80
 195.529296875 628 l 0,81,82
 195.529296875 614 195.529296875 614 195.529296875 591 c 128,-1,83
 195.529296875 568 195.529296875 568 196.029296875 539 c 128,-1,84
 196.529296875 510 196.529296875 510 196.529296875 479 c 0,85,86
 197.529296875 407 197.529296875 407 199.529296875 315 c 1,87,88
 220.529296875 313 220.529296875 313 240.529296875 313 c 0,89,90
 289.529296875 313 289.529296875 313 332.529296875 324 c 0,91,92
 357.529296875 330 357.529296875 330 382.029296875 341.5 c 128,-1,93
 406.529296875 353 406.529296875 353 426.529296875 371.5 c 128,-1,94
 446.529296875 390 446.529296875 390 460.029296875 416.5 c 128,-1,95
 473.529296875 443 473.529296875 443 475.529296875 480 c 2,96,97
 475.529296875 492 l 2,98,99
 475.529296875 526 475.529296875 526 458.529296875 550 c 0,100,101
 438.529296875 578 438.529296875 578 408.029296875 596 c 128,-1,102
 377.529296875 614 377.529296875 614 340.529296875 623 c 128,-1,103
 303.529296875 632 303.529296875 632 271.529296875 636 c 128,-1,104
 239.529296875 640 239.529296875 640 218.029296875 640 c 128,-1,105
 196.529296875 640 196.529296875 640 195.529296875 641 c 2,79,80
206.529296875 213 m 2,106,107
 204.529296875 213 204.529296875 213 204.029296875 203 c 128,-1,108
 203.529296875 193 203.529296875 193 203.529296875 177 c 128,-1,109
 203.529296875 161 203.529296875 161 204.029296875 142 c 128,-1,110
 204.529296875 123 204.529296875 123 204.529296875 106.5 c 128,-1,111
 204.529296875 90 204.529296875 90 205.029296875 78.5 c 128,-1,112
 205.529296875 67 205.529296875 67 205.529296875 66 c 256,113,114
 205.529296875 65 205.529296875 65 224.529296875 62.5 c 128,-1,115
 243.529296875 60 243.529296875 60 271.529296875 59 c 0,116,117
 282.529296875 59 282.529296875 59 294.529296875 59 c 0,118,119
 312.529296875 60 312.529296875 60 332.529296875 60 c 0,120,121
 365.529296875 62 365.529296875 62 394.029296875 70 c 128,-1,122
 422.529296875 78 422.529296875 78 441.529296875 94 c 0,123,124
 461.529296875 111 461.529296875 111 461.529296875 142 c 0,125,126
 461.529296875 164 461.529296875 164 444.529296875 177 c 0,127,128
 423.529296875 193 423.529296875 193 398.529296875 200 c 0,129,130
 369.529296875 209 369.529296875 209 336.529296875 212 c 128,-1,131
 303.529296875 215 303.529296875 215 274.529296875 215 c 128,-1,132
 245.529296875 215 245.529296875 215 236.529296875 214 c 0,133,-1
 206.529296875 213 l 2,106,107
EndSplineSet
Validated: 1
EndChar

StartChar: C
Encoding: 67 67 3
Width: 516
Flags: W
HStem: 1 67<200.507 326.195> 673 69<204.144 304.893>
VStem: 43 74<222 517.525> 368 78<108.146 224.966>
LayerCount: 2
Fore
SplineSet
42 365 m 0,0,1
 39 394 39 394 39 432 c 0,2,3
 39 435 39 435 39 439 c 0,4,5
 39 473 39 473 45 509 c 0,6,7
 51 548 51 548 62.5 586.5 c 128,-1,8
 74 625 74 625 96 657 c 128,-1,9
 118 689 118 689 152 711 c 128,-1,10
 186 733 186 733 235 741 c 0,11,12
 244 742 244 742 253 742 c 0,13,14
 279 742 279 742 301 736 c 0,15,16
 331 728 331 728 354 716 c 0,17,18
 380 703 380 703 402 684 c 0,19,20
 413 671 413 671 421 648.5 c 128,-1,21
 429 626 429 626 435 599 c 128,-1,22
 441 572 441 572 445 544.5 c 128,-1,23
 449 517 449 517 451.5 494.5 c 128,-1,24
 454 472 454 472 454.5 458 c 128,-1,25
 455 444 455 444 454 444 c 0,26,27
 452 445 452 445 447 444.5 c 128,-1,28
 442 444 442 444 437 444 c 0,29,30
 431 443 431 443 423 443 c 0,31,32
 412 442 412 442 402.5 434 c 128,-1,33
 393 426 393 426 385.5 416 c 128,-1,34
 378 406 378 406 373.5 398.5 c 128,-1,35
 369 391 369 391 368 392 c 256,36,37
 367 393 367 393 359.5 398 c 128,-1,38
 352 403 352 403 343.5 409 c 128,-1,39
 335 415 335 415 328 420 c 128,-1,40
 321 425 321 425 321 427 c 0,41,42
 321 428 321 428 329.5 436.5 c 128,-1,43
 338 445 338 445 347.5 457 c 128,-1,44
 357 469 357 469 364 481.5 c 128,-1,45
 371 494 371 494 368 505 c 0,46,47
 361 529 361 529 352.5 560 c 128,-1,48
 344 591 344 591 330 617 c 0,49,50
 316 644 316 644 295 660 c 0,51,52
 278 673 278 673 255 673 c 0,53,54
 249 673 249 673 243 672 c 0,55,56
 220 669 220 669 201.5 649 c 128,-1,57
 183 629 183 629 168.5 600 c 128,-1,58
 154 571 154 571 144 536 c 128,-1,59
 134 501 134 501 127.5 468 c 128,-1,60
 121 435 121 435 119 407 c 0,61,62
 117 387 117 387 117 374 c 0,63,64
 117 369 117 369 117 364 c 0,65,66
 121 300 121 300 133 246 c 128,-1,67
 145 192 145 192 161.5 152.5 c 128,-1,68
 178 113 178 113 199 90.5 c 128,-1,69
 220 68 220 68 243 68 c 0,70,71
 246 68 246 68 250 68 c 0,72,73
 285 68 285 68 307 78 c 0,74,75
 331 89 331 89 345 106.5 c 128,-1,76
 359 124 359 124 363.5 144 c 128,-1,77
 368 164 368 164 368 182 c 128,-1,78
 368 200 368 200 366 212 c 128,-1,79
 364 224 364 224 365 225 c 256,80,81
 366 226 366 226 383.5 229 c 128,-1,82
 401 232 401 232 422 234.5 c 128,-1,83
 443 237 443 237 460 238.5 c 128,-1,84
 477 240 477 240 477 239 c 256,85,86
 477 238 477 238 471.5 231.5 c 128,-1,87
 466 225 466 225 459.5 214 c 128,-1,88
 453 203 453 203 449 187 c 0,89,90
 446 177 446 177 446 167 c 0,91,92
 446 160 446 160 447 152 c 0,93,94
 450 139 450 139 445 125 c 128,-1,95
 440 111 440 111 431.5 98 c 128,-1,96
 423 85 423 85 413 73.5 c 128,-1,97
 403 62 403 62 395 55 c 0,98,99
 359 12 359 12 305 4 c 0,100,101
 287 2 287 2 268 1 c 0,102,103
 231 1 231 1 192 11 c 0,104,105
 149 23 149 23 122 47 c 128,-1,106
 95 71 95 71 78.5 102 c 128,-1,107
 62 133 62 133 55 168 c 0,108,109
 47 204 47 204 45 240 c 128,-1,110
 43 276 43 276 43 297 c 0,111,112
 43 304 43 304 43 308 c 0,113,114
 43 314 43 314 44 320 c 0,115,116
 44 345 44 345 42 365 c 0,0,1
EndSplineSet
Validated: 1
EndChar

StartChar: D
Encoding: 68 68 4
Width: 536
Flags: W
HStem: 0 68<53.9279 115.283> 0 56<197.505 264.286> 686 56<184.286 253.864>
VStem: 107.286 77<582.439 672.704> 109.286 80<56.0066 673.045> 430.286 62<224.963 487.034>
LayerCount: 2
Fore
SplineSet
199.286132812 56 m 0,0,1
 268.286132812 71 268.286132812 71 321.286132812 111 c 0,2,3
 343.286132812 128 343.286132812 128 364.786132812 152 c 128,-1,4
 386.286132812 176 386.286132812 176 401.786132812 209 c 128,-1,5
 417.286132812 242 417.286132812 242 425.286132812 284 c 0,6,7
 430.286132812 312 430.286132812 312 430.286132812 346 c 0,8,9
 430.286132812 363 430.286132812 363 429.286132812 381 c 0,10,11
 424.286132812 448 424.286132812 448 405.286132812 496.5 c 128,-1,12
 386.286132812 545 386.286132812 545 360.286132812 579 c 128,-1,13
 334.286132812 613 334.286132812 613 305.286132812 633.5 c 128,-1,14
 276.286132812 654 276.286132812 654 250.786132812 665.5 c 128,-1,15
 225.286132812 677 225.286132812 677 206.786132812 681.5 c 128,-1,16
 188.286132812 686 188.286132812 686 184.286132812 686 c 1,17,18
 187.286132812 632 187.286132812 632 187.286132812 577 c 128,-1,19
 187.286132812 522 187.286132812 522 189.286132812 472 c 0,20,21
 190.286132812 397 190.286132812 397 190.286132812 324 c 0,22,23
 191.286132812 299 191.286132812 299 191.286132812 276 c 0,24,25
 191.286132812 276 191.286132812 276 192.286132812 256 c 0,26,27
 193.286132812 212 193.286132812 212 194.286132812 154 c 0,28,29
 195.286132812 141 195.286132812 141 197.286132812 83 c 0,30,31
 198.286132812 56 198.286132812 56 199.286132812 56 c 0,0,1
115.286132812 53 m 0,32,33
 115.286132812 107 115.286132812 107 114.786132812 148 c 128,-1,34
 114.286132812 189 114.286132812 189 113.286132812 222.5 c 128,-1,35
 112.286132812 256 112.286132812 256 111.286132812 285.5 c 128,-1,36
 110.286132812 315 110.286132812 315 110.286132812 346 c 0,37,38
 109.286132812 381 109.286132812 381 109.286132812 417.5 c 128,-1,39
 109.286132812 454 109.286132812 454 109.286132812 494.5 c 128,-1,40
 109.286132812 535 109.286132812 535 108.786132812 581 c 128,-1,41
 108.286132812 627 108.286132812 627 107.286132812 680 c 0,42,43
 107.286132812 687 107.286132812 687 102.786132812 682.5 c 128,-1,44
 98.2861328125 678 98.2861328125 678 91.2861328125 674.5 c 128,-1,45
 84.2861328125 671 84.2861328125 671 77.2861328125 674 c 0,46,47
 72.2861328125 677 72.2861328125 677 66.2861328125 701 c 0,48,49
 65.2861328125 705 65.2861328125 705 65.2861328125 711 c 0,50,51
 65.2861328125 726 65.2861328125 726 78.2861328125 737 c 0,52,53
 95.2861328125 751 95.2861328125 751 115.286132812 754 c 0,54,55
 121.286132812 755 121.286132812 755 127.286132812 755 c 0,56,57
 138.286132812 755 138.286132812 755 148.286132812 752 c 0,58,59
 162.286132812 748 162.286132812 748 174.286132812 742 c 1,60,61
 195.286132812 742 195.286132812 742 227.286132812 738.5 c 128,-1,62
 259.286132812 735 259.286132812 735 294.786132812 721.5 c 128,-1,63
 330.286132812 708 330.286132812 708 365.786132812 682.5 c 128,-1,64
 401.286132812 657 401.286132812 657 429.286132812 614 c 128,-1,65
 457.286132812 571 457.286132812 571 474.786132812 507.5 c 128,-1,66
 492.286132812 444 492.286132812 444 492.286132812 355 c 0,67,68
 492.286132812 259 492.286132812 259 470.286132812 195.5 c 128,-1,69
 448.286132812 132 448.286132812 132 415.786132812 92 c 128,-1,70
 383.286132812 52 383.286132812 52 344.786132812 32.5 c 128,-1,71
 306.286132812 13 306.286132812 13 272.286132812 6 c 0,72,73
 270.286132812 5 270.286132812 5 266.286132812 5 c 0,74,75
 262.286132812 3 262.286132812 3 257.786132812 3 c 128,-1,76
 253.286132812 3 253.286132812 3 247.286132812 2 c 2,77,-1
 233.286132812 0 l 1,78,-1
 205.286132812 0 l 2,79,80
 182.286132812 -1 182.286132812 -1 158.286132812 -1 c 0,81,82
 146.286132812 0 146.286132812 0 134.286132812 0 c 0,83,84
 96.2861328125 0 96.2861328125 0 67.2861328125 0 c 0,85,86
 58.2861328125 0 58.2861328125 0 53.7861328125 2.5 c 128,-1,87
 49.2861328125 5 49.2861328125 5 46.7861328125 11.5 c 128,-1,88
 44.2861328125 18 44.2861328125 18 42.2861328125 28 c 128,-1,89
 40.2861328125 38 40.2861328125 38 37.2861328125 53 c 0,90,91
 35.2861328125 68 35.2861328125 68 47.2861328125 68 c 128,-1,92
 59.2861328125 68 59.2861328125 68 74.2861328125 62.5 c 128,-1,93
 89.2861328125 57 89.2861328125 57 102.286132812 52 c 128,-1,94
 115.286132812 47 115.286132812 47 115.286132812 53 c 0,32,33
EndSplineSet
Validated: 1
EndChar

StartChar: E
Encoding: 69 69 5
Width: 512
Flags: W
HStem: 0 82<48.6558 126.526> 0 71<199.25 348.826> 732 20G<123.029 472.529>
VStem: 126.529 72<72.2239 384 424 649.148> 348.529 60<556.524 634.781> 367.529 47<91.6471 175.905>
LayerCount: 2
Fore
SplineSet
126.529296875 67 m 0,0,1
 126.529296875 121 126.529296875 121 126.029296875 160 c 128,-1,2
 125.529296875 199 125.529296875 199 124.529296875 230 c 128,-1,3
 123.529296875 261 123.529296875 261 122.529296875 288 c 128,-1,4
 121.529296875 315 121.529296875 315 120.529296875 346 c 0,5,6
 119.529296875 369 119.529296875 369 119.529296875 393 c 0,7,8
 120.529296875 406 120.529296875 406 120.529296875 418 c 0,9,10
 120.529296875 454 120.529296875 454 120.529296875 494.5 c 128,-1,11
 120.529296875 535 120.529296875 535 120.029296875 581 c 128,-1,12
 119.529296875 627 119.529296875 627 118.529296875 680 c 0,13,14
 118.529296875 687 118.529296875 687 113.029296875 682.5 c 128,-1,15
 107.529296875 678 107.529296875 678 100.029296875 674.5 c 128,-1,16
 92.529296875 671 92.529296875 671 84.529296875 674.5 c 128,-1,17
 76.529296875 678 76.529296875 678 71.529296875 701 c 0,18,19
 68.529296875 712 68.529296875 712 73.029296875 721.5 c 128,-1,20
 77.529296875 731 77.529296875 731 86.029296875 738 c 128,-1,21
 94.529296875 745 94.529296875 745 106.029296875 748.5 c 128,-1,22
 117.529296875 752 117.529296875 752 128.529296875 752 c 2,23,-1
 472.529296875 752 l 1,24,25
 456.529296875 737 456.529296875 737 444.529296875 720 c 0,26,27
 433.529296875 706 433.529296875 706 423.529296875 689 c 128,-1,28
 413.529296875 672 413.529296875 672 409.529296875 656 c 256,29,30
 407.529296875 646 407.529296875 646 407.529296875 635 c 0,31,32
 408.529296875 628 408.529296875 628 408.529296875 620 c 0,33,34
 410.529296875 600 410.529296875 600 415.029296875 583 c 128,-1,35
 419.529296875 566 419.529296875 566 423.529296875 555 c 0,36,-1
 427.529296875 544 l 256,37,38
 408.529296875 538 l 0,39,40
 390.529296875 531 390.529296875 531 369.029296875 525 c 128,-1,41
 347.529296875 519 347.529296875 519 330.029296875 518.5 c 128,-1,42
 312.529296875 518 312.529296875 518 315.529296875 530 c 0,43,44
 319.529296875 544 319.529296875 544 328.529296875 560 c 0,45,46
 338.529296875 578 338.529296875 578 344.529296875 594 c 0,47,48
 348.529296875 605 348.529296875 605 348.529296875 618 c 0,49,50
 348.529296875 622 348.529296875 622 348.529296875 626 c 0,51,52
 346.529296875 642 346.529296875 642 328.529296875 653 c 0,53,54
 324.529296875 656 324.529296875 656 315.529296875 659.5 c 128,-1,55
 306.529296875 663 306.529296875 663 295.029296875 666.5 c 128,-1,56
 283.529296875 670 283.529296875 670 270.029296875 673.5 c 128,-1,57
 256.529296875 677 256.529296875 677 244.529296875 680 c 1,58,59
 225.529296875 663 225.529296875 663 215.529296875 641 c 128,-1,60
 205.529296875 619 205.529296875 619 200.529296875 594.5 c 128,-1,61
 195.529296875 570 195.529296875 570 195.029296875 544 c 128,-1,62
 194.529296875 518 194.529296875 518 194.529296875 494 c 0,63,64
 194.529296875 476 194.529296875 476 195.029296875 458.5 c 128,-1,65
 195.529296875 441 195.529296875 441 195.529296875 424 c 1,66,67
 201.529296875 426 201.529296875 426 207.529296875 428 c 128,-1,68
 213.529296875 430 213.529296875 430 218.529296875 432 c 0,69,70
 224.529296875 434 224.529296875 434 230.529296875 436 c 0,71,72
 269.529296875 438 269.529296875 438 300.529296875 438 c 0,73,74
 326.529296875 438 326.529296875 438 347.029296875 436 c 128,-1,75
 367.529296875 434 367.529296875 434 365.529296875 428 c 0,76,77
 362.529296875 419 362.529296875 419 356.529296875 414.5 c 128,-1,78
 350.529296875 410 350.529296875 410 347.529296875 402.5 c 128,-1,79
 344.529296875 395 344.529296875 395 346.529296875 382 c 128,-1,80
 348.529296875 369 348.529296875 369 362.529296875 344 c 1,81,82
 325.529296875 357 325.529296875 357 292.529296875 367 c 0,83,84
 264.529296875 374 264.529296875 374 236.529296875 380 c 0,85,86
 220.529296875 383 220.529296875 383 209.529296875 384 c 0,87,88
 201.529296875 384 201.529296875 384 195.529296875 382 c 1,89,90
 195.529296875 325 195.529296875 325 196.029296875 272 c 128,-1,91
 196.529296875 219 196.529296875 219 197.029296875 177 c 128,-1,92
 197.529296875 135 197.529296875 135 198.529296875 107 c 128,-1,93
 199.529296875 79 199.529296875 79 202.529296875 72 c 1,94,95
 208.529296875 71 208.529296875 71 217.529296875 71 c 128,-1,96
 226.529296875 71 226.529296875 71 238.529296875 72 c 0,97,98
 260.529296875 74 260.529296875 74 283.529296875 77.5 c 128,-1,99
 306.529296875 81 306.529296875 81 325.529296875 85.5 c 128,-1,100
 344.529296875 90 344.529296875 90 350.529296875 94 c 0,101,102
 367.529296875 104 367.529296875 104 367.529296875 119 c 128,-1,103
 367.529296875 134 367.529296875 134 360.029296875 150 c 128,-1,104
 352.529296875 166 352.529296875 166 342.029296875 181.5 c 128,-1,105
 331.529296875 197 331.529296875 197 328.529296875 210 c 0,106,107
 326.529296875 218 326.529296875 218 333.529296875 220 c 128,-1,108
 340.529296875 222 340.529296875 222 352.029296875 220.5 c 128,-1,109
 363.529296875 219 363.529296875 219 377.529296875 215 c 128,-1,110
 391.529296875 211 391.529296875 211 404.029296875 207 c 128,-1,111
 416.529296875 203 416.529296875 203 424.529296875 200 c 0,112,-1
 432.529296875 197 l 2,113,114
 428.529296875 187 l 0,115,116
 424.529296875 177 424.529296875 177 421.029296875 161 c 128,-1,117
 417.529296875 145 417.529296875 145 415.529296875 127 c 0,118,119
 414.529296875 121 414.529296875 121 414.529296875 115 c 0,120,121
 414.529296875 104 414.529296875 104 417.529296875 94 c 0,122,123
 419.529296875 79 419.529296875 79 429.029296875 62.5 c 128,-1,124
 438.529296875 46 438.529296875 46 448.529296875 32 c 0,125,126
 459.529296875 15 459.529296875 15 473.529296875 0 c 1,127,-1
 62.529296875 0 l 2,128,129
 52.529296875 0 52.529296875 0 48.529296875 5 c 128,-1,130
 44.529296875 10 44.529296875 10 43.529296875 18.5 c 128,-1,131
 42.529296875 27 42.529296875 27 42.029296875 39.5 c 128,-1,132
 41.529296875 52 41.529296875 52 37.529296875 67 c 0,133,134
 34.529296875 82 34.529296875 82 48.529296875 82 c 128,-1,135
 62.529296875 82 62.529296875 82 79.529296875 76.5 c 128,-1,136
 96.529296875 71 96.529296875 71 111.529296875 66 c 128,-1,137
 126.529296875 61 126.529296875 61 126.529296875 67 c 0,0,1
EndSplineSet
Validated: 1
EndChar

StartChar: F
Encoding: 70 70 6
Width: 510
Flags: W
HStem: 0 82<48.6558 126.526> 732 20G<117.529 471.529>
VStem: 126.529 74.5<68.2114 373 414.226 647.559> 348.529 60<556.524 634.781>
LayerCount: 2
Fore
SplineSet
208.529296875 374 m 0,0,1
 202.529296875 365 202.529296875 365 197.529296875 373 c 1,2,3
 197.529296875 314 197.529296875 314 198.029296875 260 c 128,-1,4
 198.529296875 206 198.529296875 206 199.029296875 164 c 128,-1,5
 199.529296875 122 199.529296875 122 201.029296875 96 c 128,-1,6
 202.529296875 70 202.529296875 70 205.529296875 67 c 0,7,8
 210.529296875 59 210.529296875 59 222.029296875 60 c 128,-1,9
 233.529296875 61 233.529296875 61 245.029296875 65 c 128,-1,10
 256.529296875 69 256.529296875 69 265.529296875 72 c 128,-1,11
 274.529296875 75 274.529296875 75 274.529296875 71 c 0,12,13
 275.529296875 59 275.529296875 59 279.529296875 46 c 128,-1,14
 283.529296875 33 283.529296875 33 286.529296875 22.5 c 128,-1,15
 289.529296875 12 289.529296875 12 289.529296875 5.5 c 128,-1,16
 289.529296875 -1 289.529296875 -1 282.529296875 -1 c 0,17,18
 268.529296875 0 268.529296875 0 242.529296875 0 c 128,-1,19
 216.529296875 0 216.529296875 0 185.529296875 0 c 128,-1,20
 154.529296875 0 154.529296875 0 122.029296875 0 c 128,-1,21
 89.529296875 0 89.529296875 0 62.529296875 0 c 0,22,23
 52.529296875 0 52.529296875 0 48.529296875 5 c 128,-1,24
 44.529296875 10 44.529296875 10 43.529296875 18.5 c 128,-1,25
 42.529296875 27 42.529296875 27 42.029296875 39.5 c 128,-1,26
 41.529296875 52 41.529296875 52 37.529296875 67 c 0,27,28
 34.529296875 82 34.529296875 82 48.529296875 82 c 128,-1,29
 62.529296875 82 62.529296875 82 79.529296875 76.5 c 128,-1,30
 96.529296875 71 96.529296875 71 111.529296875 66 c 128,-1,31
 126.529296875 61 126.529296875 61 126.529296875 67 c 0,32,33
 126.529296875 121 126.529296875 121 126.029296875 160 c 128,-1,34
 125.529296875 199 125.529296875 199 124.529296875 230 c 128,-1,35
 123.529296875 261 123.529296875 261 122.529296875 288 c 128,-1,36
 121.529296875 315 121.529296875 315 120.529296875 346 c 0,37,38
 119.529296875 369 119.529296875 369 119.529296875 393 c 0,39,40
 120.529296875 406 120.529296875 406 120.529296875 418 c 0,41,42
 120.529296875 454 120.529296875 454 120.529296875 494.5 c 128,-1,43
 120.529296875 535 120.529296875 535 120.029296875 581 c 128,-1,44
 119.529296875 627 119.529296875 627 118.529296875 680 c 0,45,46
 118.529296875 687 118.529296875 687 113.029296875 682.5 c 128,-1,47
 107.529296875 678 107.529296875 678 100.029296875 674.5 c 128,-1,48
 92.529296875 671 92.529296875 671 84.529296875 674.5 c 128,-1,49
 76.529296875 678 76.529296875 678 71.529296875 701 c 0,50,51
 68.529296875 711 68.529296875 711 72.529296875 720.5 c 128,-1,52
 76.529296875 730 76.529296875 730 84.029296875 736.5 c 128,-1,53
 91.529296875 743 91.529296875 743 102.029296875 747.5 c 128,-1,54
 112.529296875 752 112.529296875 752 122.529296875 752 c 2,55,-1
 471.529296875 752 l 1,56,57
 456.529296875 737 456.529296875 737 444.529296875 720 c 0,58,59
 433.529296875 706 433.529296875 706 423.529296875 689 c 128,-1,60
 413.529296875 672 413.529296875 672 409.529296875 656 c 256,61,62
 407.529296875 646 407.529296875 646 407.529296875 635 c 0,63,64
 408.529296875 628 408.529296875 628 408.529296875 620 c 0,65,66
 410.529296875 600 410.529296875 600 415.029296875 583 c 128,-1,67
 419.529296875 566 419.529296875 566 423.529296875 555 c 0,68,-1
 427.529296875 544 l 256,69,70
 408.529296875 538 l 0,71,72
 390.529296875 531 390.529296875 531 369.029296875 525 c 128,-1,73
 347.529296875 519 347.529296875 519 330.029296875 518.5 c 128,-1,74
 312.529296875 518 312.529296875 518 315.529296875 530 c 0,75,76
 319.529296875 544 319.529296875 544 328.529296875 560 c 0,77,78
 338.529296875 578 338.529296875 578 344.529296875 594 c 0,79,80
 348.529296875 605 348.529296875 605 348.529296875 618 c 0,81,82
 348.529296875 622 348.529296875 622 348.529296875 626 c 0,83,84
 346.529296875 642 346.529296875 642 328.529296875 653 c 0,85,86
 319.529296875 659 319.529296875 659 295.529296875 667 c 128,-1,87
 271.529296875 675 271.529296875 675 250.529296875 679 c 1,88,89
 229.529296875 662 229.529296875 662 218.529296875 640 c 128,-1,90
 207.529296875 618 207.529296875 618 202.529296875 593 c 128,-1,91
 197.529296875 568 197.529296875 568 197.029296875 542 c 128,-1,92
 196.529296875 516 196.529296875 516 196.529296875 491 c 0,93,94
 196.529296875 471 196.529296875 471 197.029296875 452 c 128,-1,95
 197.529296875 433 197.529296875 433 197.529296875 414 c 1,96,97
 203.529296875 416 203.529296875 416 212.529296875 419.5 c 128,-1,98
 221.529296875 423 221.529296875 423 230.529296875 426 c 0,99,100
 240.529296875 430 240.529296875 430 251.529296875 433 c 0,101,102
 285.529296875 436 285.529296875 436 311.529296875 438 c 0,103,104
 318.529296875 438 318.529296875 438 325.529296875 437 c 0,105,106
 339.529296875 437 339.529296875 437 350.529296875 436 c 0,107,108
 367.529296875 434 367.529296875 434 365.529296875 428 c 0,109,110
 362.529296875 419 362.529296875 419 356.529296875 414.5 c 128,-1,111
 350.529296875 410 350.529296875 410 347.529296875 402.5 c 128,-1,112
 344.529296875 395 344.529296875 395 346.529296875 382 c 128,-1,113
 348.529296875 369 348.529296875 369 362.529296875 344 c 1,114,115
 324.529296875 358 324.529296875 358 292.529296875 368 c 0,116,117
 265.529296875 376 265.529296875 376 240.529296875 380 c 0,118,119
 233.529296875 381 233.529296875 381 227.529296875 380 c 0,120,121
 213.529296875 380 213.529296875 380 208.529296875 374 c 0,0,1
EndSplineSet
Validated: 1
EndChar

StartChar: G
Encoding: 71 71 7
Width: 513
Flags: W
HStem: 1 67<200.507 313.328> 250 84<270.38 362.781> 683 69<204.438 301.974>
VStem: 43 74<222 521.981> 366 81<128.555 249.742>
LayerCount: 2
Fore
SplineSet
42 365 m 0,0,1
 39 395 39 395 39 433 c 0,2,3
 39 436 39 436 39 439 c 0,4,5
 39 474 39 474 45 512 c 0,6,7
 51 552 51 552 62.5 591.5 c 128,-1,8
 74 631 74 631 96 664 c 128,-1,9
 118 697 118 697 152 720 c 128,-1,10
 186 743 186 743 235 751 c 0,11,12
 243 752 243 752 252 752 c 0,13,14
 279 752 279 752 301 744 c 0,15,16
 331 734 331 734 354 721 c 0,17,18
 380 705 380 705 402 684 c 0,19,20
 413 671 413 671 421 648.5 c 128,-1,21
 429 626 429 626 435 599 c 128,-1,22
 441 572 441 572 445 544.5 c 128,-1,23
 449 517 449 517 451.5 494.5 c 128,-1,24
 454 472 454 472 454.5 458 c 128,-1,25
 455 444 455 444 454 444 c 0,26,27
 452 445 452 445 447 444.5 c 128,-1,28
 442 444 442 444 437 444 c 0,29,30
 431 443 431 443 423 443 c 0,31,32
 412 442 412 442 402.5 434 c 128,-1,33
 393 426 393 426 385.5 416 c 128,-1,34
 378 406 378 406 373.5 398.5 c 128,-1,35
 369 391 369 391 368 392 c 256,36,37
 367 393 367 393 359.5 398 c 128,-1,38
 352 403 352 403 343.5 409 c 128,-1,39
 335 415 335 415 328 420 c 128,-1,40
 321 425 321 425 321 427 c 0,41,42
 321 428 321 428 329.5 436.5 c 128,-1,43
 338 445 338 445 347.5 457 c 128,-1,44
 357 469 357 469 364 481.5 c 128,-1,45
 371 494 371 494 368 505 c 0,46,47
 361 529 361 529 352.5 561.5 c 128,-1,48
 344 594 344 594 330 622 c 128,-1,49
 316 650 316 650 295 668 c 0,50,51
 278 683 278 683 254 683 c 0,52,53
 249 683 249 683 243 682 c 0,54,55
 220 679 220 679 201.5 658.5 c 128,-1,56
 183 638 183 638 168.5 607.5 c 128,-1,57
 154 577 154 577 144 541 c 128,-1,58
 134 505 134 505 127.5 470.5 c 128,-1,59
 121 436 121 436 119 408 c 0,60,61
 117 388 117 388 117 374 c 0,62,63
 117 369 117 369 117 364 c 0,64,65
 121 300 121 300 133 246 c 128,-1,66
 145 192 145 192 161.5 152.5 c 128,-1,67
 178 113 178 113 199 90.5 c 128,-1,68
 220 68 220 68 243 68 c 0,69,70
 245 68 245 68 247 68 c 0,71,72
 284 68 284 68 307 84 c 0,73,74
 331 102 331 102 344 128.5 c 128,-1,75
 357 155 357 155 361.5 186.5 c 128,-1,76
 366 218 366 218 366 246 c 1,77,78
 360 250 360 250 350 250 c 0,79,80
 343 250 343 250 335 248 c 0,81,82
 314 244 314 244 292 236 c 0,83,84
 266 227 266 227 237 214 c 1,85,86
 250 239 250 239 252.5 256 c 128,-1,87
 255 273 255 273 251.5 286 c 128,-1,88
 248 299 248 299 242.5 308 c 128,-1,89
 237 317 237 317 234 325 c 0,90,91
 231 331 231 331 245 333 c 0,92,93
 255 334 255 334 266 334 c 0,94,95
 272 334 272 334 278 334 c 0,96,97
 299 333 299 333 327 330 c 0,98,99
 333 328 333 328 339 326 c 0,100,101
 344 324 344 324 350 322 c 128,-1,102
 356 320 356 320 363 318 c 0,103,104
 367 320 367 320 385 324.5 c 128,-1,105
 403 329 403 329 423 333.5 c 128,-1,106
 443 338 443 338 458.5 341 c 128,-1,107
 474 344 474 344 474 343 c 256,108,109
 474 342 474 342 468.5 335.5 c 128,-1,110
 463 329 463 329 456.5 318 c 128,-1,111
 450 307 450 307 446 291 c 0,112,113
 444 282 444 282 444 272 c 0,114,115
 444 264 444 264 445 256 c 0,116,117
 447 246 447 246 447 228 c 0,118,119
 447 224 447 224 447 218 c 0,120,121
 447 194 447 194 441 165 c 128,-1,122
 435 136 435 136 424.5 106.5 c 128,-1,123
 414 77 414 77 395 55 c 0,124,125
 359 12 359 12 305 4 c 0,126,127
 287 2 287 2 268 1 c 0,128,129
 231 1 231 1 192 11 c 0,130,131
 149 23 149 23 122 47 c 128,-1,132
 95 71 95 71 78.5 102 c 128,-1,133
 62 133 62 133 55 168 c 0,134,135
 47 204 47 204 45 240 c 128,-1,136
 43 276 43 276 43 297 c 0,137,138
 43 304 43 304 43 308 c 0,139,140
 43 314 43 314 44 320 c 0,141,142
 44 345 44 345 42 365 c 0,0,1
EndSplineSet
Validated: 1
EndChar

StartChar: w
Encoding: 119 119 8
Width: 952
Flags: W
HStem: 1 69<207.895 264.828 565.379 621.859> 1 45<338.926 393.312 696.926 752.312> 375 20G<816.336 912.8>
LayerCount: 2
Fore
SplineSet
912.799804688 394 m 1,0,-1
 696.799804688 53 l 1,1,2
 700.799804688 46 700.799804688 46 709.799804688 45 c 128,-1,3
 718.799804688 44 718.799804688 44 726.799804688 44.5 c 128,-1,4
 734.799804688 45 734.799804688 45 741.299804688 46 c 128,-1,5
 747.799804688 47 747.799804688 47 747.799804688 43 c 0,6,7
 748.799804688 31 748.799804688 31 752.799804688 23 c 128,-1,8
 756.799804688 15 756.799804688 15 760.799804688 10 c 128,-1,9
 764.799804688 5 764.799804688 5 765.799804688 3 c 128,-1,10
 766.799804688 1 766.799804688 1 760.799804688 1 c 0,11,12
 749.799804688 1 749.799804688 1 727.299804688 1 c 128,-1,13
 704.799804688 1 704.799804688 1 677.799804688 1 c 128,-1,14
 650.799804688 1 650.799804688 1 623.299804688 1 c 128,-1,15
 595.799804688 1 595.799804688 1 574.799804688 1 c 0,16,17
 567.799804688 1 567.799804688 1 565.299804688 4 c 128,-1,18
 562.799804688 7 562.799804688 7 561.799804688 13 c 128,-1,19
 560.799804688 19 560.799804688 19 560.299804688 29.5 c 128,-1,20
 559.799804688 40 559.799804688 40 556.799804688 55 c 256,21,22
 553.799804688 70 553.799804688 70 564.799804688 70 c 128,-1,23
 575.799804688 70 575.799804688 70 589.299804688 65 c 128,-1,24
 602.799804688 60 602.799804688 60 613.299804688 55 c 128,-1,25
 623.799804688 50 623.799804688 50 621.799804688 55 c 0,26,27
 596.799804688 123 596.799804688 123 563.299804688 173.5 c 128,-1,28
 529.799804688 224 529.799804688 224 494.799804688 267 c 1,29,-1
 338.799804688 53 l 1,30,31
 342.799804688 46 342.799804688 46 351.299804688 45 c 128,-1,32
 359.799804688 44 359.799804688 44 368.299804688 44.5 c 128,-1,33
 376.799804688 45 376.799804688 45 382.799804688 46 c 128,-1,34
 388.799804688 47 388.799804688 47 388.799804688 43 c 0,35,36
 389.799804688 31 389.799804688 31 393.799804688 23 c 128,-1,37
 397.799804688 15 397.799804688 15 401.799804688 10 c 128,-1,38
 405.799804688 5 405.799804688 5 406.799804688 3 c 128,-1,39
 407.799804688 1 407.799804688 1 401.799804688 1 c 0,40,41
 391.799804688 1 391.799804688 1 369.799804688 1 c 128,-1,42
 347.799804688 1 347.799804688 1 321.299804688 1 c 128,-1,43
 294.799804688 1 294.799804688 1 266.799804688 1 c 128,-1,44
 238.799804688 1 238.799804688 1 217.799804688 1 c 0,45,46
 210.799804688 1 210.799804688 1 207.799804688 4 c 128,-1,47
 204.799804688 7 204.799804688 7 203.799804688 13 c 128,-1,48
 202.799804688 19 202.799804688 19 202.299804688 29.5 c 128,-1,49
 201.799804688 40 201.799804688 40 198.799804688 55 c 256,50,51
 195.799804688 70 195.799804688 70 206.299804688 70 c 128,-1,52
 216.799804688 70 216.799804688 70 230.299804688 65 c 128,-1,53
 243.799804688 60 243.799804688 60 254.799804688 55 c 128,-1,54
 265.799804688 50 265.799804688 50 264.799804688 55 c 0,55,56
 246.799804688 103 246.799804688 103 223.799804688 144 c 128,-1,57
 200.799804688 185 200.799804688 185 175.299804688 220.5 c 128,-1,58
 149.799804688 256 149.799804688 256 123.799804688 286.5 c 128,-1,59
 97.7998046875 317 97.7998046875 317 75.7998046875 346 c 1,60,61
 75.7998046875 353 75.7998046875 353 71.2998046875 348.5 c 128,-1,62
 66.7998046875 344 66.7998046875 344 60.7998046875 340.5 c 128,-1,63
 54.7998046875 337 54.7998046875 337 48.2998046875 340.5 c 128,-1,64
 41.7998046875 344 41.7998046875 344 37.7998046875 367 c 0,65,66
 35.7998046875 378 35.7998046875 378 38.7998046875 387 c 128,-1,67
 41.7998046875 396 41.7998046875 396 48.2998046875 403 c 128,-1,68
 54.7998046875 410 54.7998046875 410 62.7998046875 414 c 128,-1,69
 70.7998046875 418 70.7998046875 418 78.7998046875 420 c 0,70,71
 92.7998046875 422 92.7998046875 422 105.299804688 414.5 c 128,-1,72
 117.799804688 407 117.799804688 407 127.799804688 396 c 128,-1,73
 137.799804688 385 137.799804688 385 145.799804688 374.5 c 128,-1,74
 153.799804688 364 153.799804688 364 159.799804688 361 c 0,75,76
 175.799804688 363 175.799804688 363 186.799804688 364 c 0,77,78
 196.799804688 365 196.799804688 365 202.299804688 364 c 128,-1,79
 207.799804688 363 207.799804688 363 202.799804688 359 c 0,80,81
 182.799804688 344 182.799804688 344 178.799804688 330 c 0,82,83
 177.799804688 325 177.799804688 325 176.799804688 320 c 0,84,85
 176.799804688 310 176.799804688 310 181.799804688 299 c 0,86,87
 188.799804688 283 188.799804688 283 203.799804688 263.5 c 128,-1,88
 218.799804688 244 218.799804688 244 233.799804688 218 c 0,89,90
 251.799804688 176 251.799804688 176 265.799804688 148 c 128,-1,91
 279.799804688 120 279.799804688 120 290.799804688 102 c 1,92,-1
 452.799804688 318 l 1,93,-1
 437.799804688 337 l 2,94,95
 436.799804688 344 436.799804688 344 432.299804688 339.5 c 128,-1,96
 427.799804688 335 427.799804688 335 421.799804688 331.5 c 128,-1,97
 415.799804688 328 415.799804688 328 409.799804688 331.5 c 128,-1,98
 403.799804688 335 403.799804688 335 399.799804688 358 c 0,99,100
 398.799804688 363 398.799804688 363 398.799804688 367 c 0,101,102
 398.799804688 383 398.799804688 383 410.799804688 394 c 0,103,104
 424.799804688 408 424.799804688 408 440.799804688 411 c 0,105,106
 454.799804688 413 454.799804688 413 466.799804688 405.5 c 128,-1,107
 478.799804688 398 478.799804688 398 489.299804688 387 c 128,-1,108
 499.799804688 376 499.799804688 376 507.799804688 365.5 c 128,-1,109
 515.799804688 355 515.799804688 355 521.799804688 352 c 0,110,111
 539.799804688 353 539.799804688 353 552.799804688 354 c 0,112,113
 563.799804688 354 563.799804688 354 570.799804688 353.5 c 128,-1,114
 577.799804688 353 577.799804688 353 572.799804688 349 c 0,115,116
 551.799804688 334 551.799804688 334 547.799804688 323 c 128,-1,117
 543.799804688 312 543.799804688 312 549.799804688 300 c 128,-1,118
 555.799804688 288 555.799804688 288 569.299804688 272 c 128,-1,119
 582.799804688 256 582.799804688 256 597.799804688 230 c 0,120,121
 614.799804688 194 614.799804688 194 629.799804688 166.5 c 128,-1,122
 644.799804688 139 644.799804688 139 656.799804688 119 c 1,123,-1
 828.799804688 395 l 1,124,-1
 912.799804688 394 l 1,0,-1
EndSplineSet
Validated: 1
EndChar

StartChar: s
Encoding: 115 115 9
Width: 413
Flags: W
HStem: 2 46<119.49 283.029> 379 41<146.234 288.744>
VStem: 54.333 76<291.355 363.017>
LayerCount: 2
Fore
SplineSet
47.3330078125 140 m 1,0,1
 60.3330078125 116 60.3330078125 116 81.3330078125 97 c 0,2,3
 99.3330078125 80 99.3330078125 80 128.333007812 65 c 128,-1,4
 157.333007812 50 157.333007812 50 200.333007812 48 c 1,5,6
 249.333007812 52 249.333007812 52 273.833007812 64.5 c 128,-1,7
 298.333007812 77 298.333007812 77 304.333007812 94 c 0,8,9
 306.333007812 99 306.333007812 99 305.333007812 105 c 0,10,11
 304.333007812 116 304.333007812 116 296.333007812 130 c 0,12,13
 284.333007812 150 284.333007812 150 259.833007812 167 c 128,-1,14
 235.333007812 184 235.333007812 184 200.833007812 197.5 c 128,-1,15
 166.333007812 211 166.333007812 211 126.333007812 215 c 0,16,17
 104.333007812 217 104.333007812 217 90.3330078125 228.5 c 128,-1,18
 76.3330078125 240 76.3330078125 240 67.8330078125 256 c 128,-1,19
 59.3330078125 272 59.3330078125 272 56.8330078125 289 c 128,-1,20
 54.3330078125 306 54.3330078125 306 54.3330078125 319 c 0,21,22
 55.3330078125 340 55.3330078125 340 66.8330078125 356.5 c 128,-1,23
 78.3330078125 373 78.3330078125 373 97.3330078125 385 c 128,-1,24
 116.333007812 397 116.333007812 397 140.833007812 405 c 128,-1,25
 165.333007812 413 165.333007812 413 193.333007812 417 c 0,26,27
 213.333007812 420 213.333007812 420 231.333007812 420 c 0,28,29
 256.333007812 420 256.333007812 420 278.333007812 415 c 0,30,31
 316.333007812 407 316.333007812 407 340.333007812 391 c 0,32,33
 367.333007812 372 367.333007812 372 368.333007812 349 c 0,34,35
 368.333007812 330 368.333007812 330 344.333007812 310 c 1,36,37
 329.333007812 330 329.333007812 330 309.333007812 346 c 0,38,39
 290.333007812 360 290.333007812 360 264.333007812 370 c 0,40,41
 240.333007812 379 240.333007812 379 207.333007812 379 c 0,42,43
 204.333007812 379 204.333007812 379 200.333007812 379 c 0,44,45
 172.333007812 376 172.333007812 376 152.833007812 363.5 c 128,-1,46
 133.333007812 351 133.333007812 351 130.333007812 334 c 0,47,48
 130.333007812 331 130.333007812 331 130.333007812 329 c 0,49,50
 130.333007812 314 130.333007812 314 144.333007812 298 c 0,51,52
 161.333007812 280 161.333007812 280 205.333007812 265 c 0,53,54
 236.333007812 254 236.333007812 254 264.833007812 244.5 c 128,-1,55
 293.333007812 235 293.333007812 235 315.833007812 221.5 c 128,-1,56
 338.333007812 208 338.333007812 208 352.333007812 188 c 0,57,58
 368.333007812 164 368.333007812 164 368.333007812 132 c 0,59,60
 368.333007812 110 368.333007812 110 356.333007812 87 c 0,61,62
 342.333007812 63 342.333007812 63 319.333007812 44 c 128,-1,63
 296.333007812 25 296.333007812 25 265.333007812 13.5 c 128,-1,64
 234.333007812 2 234.333007812 2 200.333007812 2 c 0,65,66
 174.333007812 2 174.333007812 2 148.333007812 5.5 c 128,-1,67
 122.333007812 9 122.333007812 9 99.8330078125 18 c 128,-1,68
 77.3330078125 27 77.3330078125 27 60.8330078125 41 c 128,-1,69
 44.3330078125 55 44.3330078125 55 38.3330078125 76 c 0,70,71
 36.3330078125 85 36.3330078125 85 37.3330078125 96 c 128,-1,72
 38.3330078125 107 38.3330078125 107 40.3330078125 117 c 0,73,74
 43.3330078125 128 43.3330078125 128 47.3330078125 140 c 1,0,1
EndSplineSet
Validated: 1
EndChar

StartChar: H
Encoding: 72 72 10
Width: 733
Flags: W
HStem: 0 79<98.1267 173 434.126 509> 191 66<125.034 171 266 507> 733 20G<168 181 503.5 516>
VStem: 170.5 94.5<66.1322 191 257 639.238> 504 96<64.1335 187 261 637.238>
LayerCount: 2
Fore
SplineSet
173 66 m 0,0,1
 173 105 173 105 173 135.5 c 128,-1,2
 173 166 173 166 172 191 c 1,3,-1
 109 191 l 2,4,5
 109 192 109 192 97.5 190 c 128,-1,6
 86 188 86 188 72 186 c 128,-1,7
 58 184 58 184 46.5 182 c 128,-1,8
 35 180 35 180 35 181 c 256,9,10
 35 182 35 182 48.5 194 c 128,-1,11
 62 206 62 206 78.5 221 c 128,-1,12
 95 236 95 236 109 248.5 c 128,-1,13
 123 261 123 261 125 263 c 1,14,15
 126 260 126 260 138 259 c 128,-1,16
 150 258 150 258 171 257 c 1,17,18
 171 279 171 279 170.5 300 c 128,-1,19
 170 321 170 321 170 345 c 0,20,21
 169 380 169 380 169 416.5 c 128,-1,22
 169 453 169 453 169 493.5 c 128,-1,23
 169 534 169 534 169 580 c 128,-1,24
 169 626 169 626 168 679 c 0,25,26
 168 686 168 686 162.5 681.5 c 128,-1,27
 157 677 157 677 149 673.5 c 128,-1,28
 141 670 141 670 132.5 673.5 c 128,-1,29
 124 677 124 677 119 700 c 0,30,31
 117 711 117 711 121 720 c 128,-1,32
 125 729 125 729 133.5 736 c 128,-1,33
 142 743 142 743 152.5 747 c 128,-1,34
 163 751 163 751 173 753 c 0,35,36
 177 753 177 753 181 753 c 0,37,38
 196 754 196 754 208 748 c 0,39,40
 224 740 224 740 237.5 729 c 128,-1,41
 251 718 251 718 261.5 707.5 c 128,-1,42
 272 697 272 697 280 694 c 0,43,44
 301 696 301 696 316 697 c 0,45,46
 329 698 329 698 336.5 697 c 128,-1,47
 344 696 344 696 337 692 c 0,48,49
 310 677 310 677 295 653.5 c 128,-1,50
 280 630 280 630 273 603 c 128,-1,51
 266 576 266 576 265 547 c 0,52,53
 265 533 265 533 265 518.5 c 128,-1,54
 265 504 265 504 265 490 c 0,55,56
 266 449 266 449 266 410 c 0,57,58
 266 390 266 390 265.5 370 c 128,-1,59
 265 350 265 350 265 331 c 0,60,61
 265 293 265 293 266 257 c 1,62,63
 326 257 326 257 391 258.5 c 128,-1,64
 456 260 456 260 507 261 c 1,65,66
 506 281 506 281 505.5 300.5 c 128,-1,67
 505 320 505 320 505 343 c 0,68,69
 504 378 504 378 504 414.5 c 128,-1,70
 504 451 504 451 504 491.5 c 128,-1,71
 504 532 504 532 504 578 c 128,-1,72
 504 624 504 624 502 677 c 0,73,74
 502 684 502 684 496.5 679.5 c 128,-1,75
 491 675 491 675 483 671.5 c 128,-1,76
 475 668 475 668 467 671.5 c 128,-1,77
 459 675 459 675 454 698 c 0,78,79
 452 709 452 709 456 718 c 128,-1,80
 460 727 460 727 468.5 734 c 128,-1,81
 477 741 477 741 487.5 745 c 128,-1,82
 498 749 498 749 509 751 c 0,83,84
 513 751 513 751 516 751 c 0,85,86
 530 752 530 752 543 746 c 0,87,88
 559 738 559 738 572.5 727 c 128,-1,89
 586 716 586 716 596.5 705.5 c 128,-1,90
 607 695 607 695 615 692 c 0,91,92
 636 694 636 694 651 695 c 0,93,94
 664 696 664 696 672 695 c 128,-1,95
 680 694 680 694 673 690 c 0,96,97
 645 675 645 675 630 651.5 c 128,-1,98
 615 628 615 628 608 601 c 128,-1,99
 601 574 601 574 600 545 c 128,-1,100
 599 516 599 516 599 488 c 0,101,102
 600 413 600 413 600.5 339.5 c 128,-1,103
 601 266 601 266 601.5 206 c 128,-1,104
 602 146 602 146 603.5 107 c 128,-1,105
 605 68 605 68 608 64 c 0,106,107
 613 56 613 56 624.5 57 c 128,-1,108
 636 58 636 58 647.5 62 c 128,-1,109
 659 66 659 66 668 69 c 128,-1,110
 677 72 677 72 677 68 c 0,111,112
 678 56 678 56 682 43.5 c 128,-1,113
 686 31 686 31 689.5 21.5 c 128,-1,114
 693 12 693 12 692.5 6 c 128,-1,115
 692 0 692 0 684 0 c 0,116,117
 670 0 670 0 642 0 c 128,-1,118
 614 0 614 0 579.5 0 c 128,-1,119
 545 0 545 0 510 0 c 128,-1,120
 475 0 475 0 448 0 c 0,121,122
 438 0 438 0 434 4.5 c 128,-1,123
 430 9 430 9 428.5 17 c 128,-1,124
 427 25 427 25 426.5 37 c 128,-1,125
 426 49 426 49 423 64 c 0,126,127
 419 79 419 79 432 79 c 128,-1,128
 445 79 445 79 462 73.5 c 128,-1,129
 479 68 479 68 494 63 c 128,-1,130
 509 58 509 58 509 64 c 0,131,132
 509 102 509 102 509 132 c 128,-1,133
 509 162 509 162 508 187 c 1,134,-1
 266 191 l 1,135,136
 267 137 267 137 268.5 103.5 c 128,-1,137
 270 70 270 70 272 66 c 0,138,139
 277 58 277 58 288.5 59 c 128,-1,140
 300 60 300 60 311.5 64 c 128,-1,141
 323 68 323 68 332 71 c 128,-1,142
 341 74 341 74 341 70 c 0,143,144
 342 58 342 58 346.5 45 c 128,-1,145
 351 32 351 32 354 22 c 128,-1,146
 357 12 357 12 357 6 c 128,-1,147
 357 0 357 0 349 0 c 0,148,149
 336 0 336 0 307.5 0 c 128,-1,150
 279 0 279 0 244.5 0 c 128,-1,151
 210 0 210 0 175 0 c 128,-1,152
 140 0 140 0 113 0 c 0,153,154
 102 0 102 0 98 4.5 c 128,-1,155
 94 9 94 9 92.5 18 c 128,-1,156
 91 27 91 27 90.5 39 c 128,-1,157
 90 51 90 51 87 66 c 0,158,159
 83 81 83 81 96 81 c 128,-1,160
 109 81 109 81 126 75.5 c 128,-1,161
 143 70 143 70 158 65 c 128,-1,162
 173 60 173 60 173 66 c 0,0,1
EndSplineSet
Validated: 1
EndChar

StartChar: I
Encoding: 73 73 11
Width: 349
Flags: W
HStem: 0 82<49.6558 126.526>
VStem: 126.529 93<68.2114 392.25 393.406 645.564>
LayerCount: 2
Fore
SplineSet
126.529296875 67 m 0,0,1
 126.529296875 121 126.529296875 121 126.029296875 160 c 128,-1,2
 125.529296875 199 125.529296875 199 124.529296875 230 c 128,-1,3
 123.529296875 261 123.529296875 261 122.529296875 288 c 128,-1,4
 121.529296875 315 121.529296875 315 120.529296875 346 c 0,5,6
 119.529296875 369 119.529296875 369 119.529296875 393 c 0,7,8
 120.529296875 406 120.529296875 406 120.529296875 418 c 0,9,10
 120.529296875 454 120.529296875 454 120.529296875 494.5 c 128,-1,11
 120.529296875 535 120.529296875 535 120.029296875 581 c 128,-1,12
 119.529296875 627 119.529296875 627 118.529296875 680 c 0,13,14
 118.529296875 687 118.529296875 687 113.029296875 682.5 c 128,-1,15
 107.529296875 678 107.529296875 678 100.029296875 674.5 c 128,-1,16
 92.529296875 671 92.529296875 671 84.529296875 674.5 c 128,-1,17
 76.529296875 678 76.529296875 678 71.529296875 701 c 0,18,19
 68.529296875 712 68.529296875 712 72.529296875 721 c 128,-1,20
 76.529296875 730 76.529296875 730 85.029296875 737 c 128,-1,21
 93.529296875 744 93.529296875 744 104.529296875 748 c 128,-1,22
 115.529296875 752 115.529296875 752 126.529296875 754 c 0,23,24
 130.529296875 754 130.529296875 754 133.529296875 754 c 0,25,26
 147.529296875 754 147.529296875 754 160.529296875 748 c 0,27,28
 176.529296875 740 176.529296875 740 189.529296875 729.5 c 128,-1,29
 202.529296875 719 202.529296875 719 213.029296875 708.5 c 128,-1,30
 223.529296875 698 223.529296875 698 231.529296875 695 c 0,31,32
 252.529296875 697 252.529296875 697 267.529296875 698 c 0,33,34
 280.529296875 699 280.529296875 699 288.529296875 698 c 128,-1,35
 296.529296875 697 296.529296875 697 288.529296875 693 c 0,36,37
 261.529296875 678 261.529296875 678 246.529296875 654.5 c 128,-1,38
 231.529296875 631 231.529296875 631 224.529296875 604 c 128,-1,39
 217.529296875 577 217.529296875 577 216.529296875 548 c 0,40,41
 216.529296875 534 216.529296875 534 216.529296875 519.5 c 128,-1,42
 216.529296875 505 216.529296875 505 216.529296875 491 c 0,43,44
 217.529296875 416 217.529296875 416 217.529296875 342.5 c 128,-1,45
 217.529296875 269 217.529296875 269 218.029296875 209 c 128,-1,46
 218.529296875 149 218.529296875 149 219.529296875 110 c 128,-1,47
 220.529296875 71 220.529296875 71 223.529296875 67 c 0,48,49
 228.529296875 59 228.529296875 59 240.029296875 60 c 128,-1,50
 251.529296875 61 251.529296875 61 263.029296875 65 c 128,-1,51
 274.529296875 69 274.529296875 69 283.529296875 72 c 128,-1,52
 292.529296875 75 292.529296875 75 292.529296875 71 c 0,53,54
 293.529296875 59 293.529296875 59 298.529296875 46 c 128,-1,55
 303.529296875 33 303.529296875 33 306.529296875 23 c 128,-1,56
 309.529296875 13 309.529296875 13 309.029296875 6.5 c 128,-1,57
 308.529296875 0 308.529296875 0 300.529296875 0 c 2,58,-1
 63.529296875 0 l 2,59,60
 53.529296875 0 53.529296875 0 49.529296875 5 c 128,-1,61
 45.529296875 10 45.529296875 10 44.029296875 18.5 c 128,-1,62
 42.529296875 27 42.529296875 27 42.029296875 39.5 c 128,-1,63
 41.529296875 52 41.529296875 52 37.529296875 67 c 0,64,65
 34.529296875 82 34.529296875 82 48.529296875 82 c 128,-1,66
 62.529296875 82 62.529296875 82 79.529296875 76.5 c 128,-1,67
 96.529296875 71 96.529296875 71 111.529296875 66 c 128,-1,68
 126.529296875 61 126.529296875 61 126.529296875 67 c 0,0,1
EndSplineSet
Validated: 1
EndChar

StartChar: J
Encoding: 74 74 12
Width: 555
Flags: W
HStem: -2 86<206.514 334.25> 729 20G<359.5 373>
VStem: 64 98<128.637 331.974> 359 111<514.969 666.555> 377 85<191.508 651.561>
LayerCount: 2
Fore
SplineSet
425 107 m 2,0,1
 412 68 412 68 393.5 41.5 c 128,-1,2
 375 15 375 15 349 7 c 0,3,4
 320 -2 320 -2 287 -2 c 0,5,6
 285 -2 285 -2 283 -2 c 0,7,8
 252 -2 252 -2 222 5 c 0,9,10
 190 12 190 12 161.5 26 c 128,-1,11
 133 40 133 40 115 62 c 128,-1,12
 97 84 97 84 86 113 c 128,-1,13
 75 142 75 142 70 170 c 0,14,15
 64 200 64 200 64 224 c 0,16,17
 64 229 64 229 64 233 c 0,18,19
 64 251 64 251 66 261 c 0,20,21
 67 269 67 269 67 276 c 0,22,23
 66 288 66 288 64 296 c 0,24,25
 60 312 60 312 54 322.5 c 128,-1,26
 48 333 48 333 42 339.5 c 128,-1,27
 36 346 36 346 36 347 c 128,-1,28
 36 348 36 348 47 347.5 c 128,-1,29
 58 347 58 347 74 346 c 128,-1,30
 90 345 90 345 109 343.5 c 128,-1,31
 128 342 128 342 144.5 340 c 128,-1,32
 161 338 161 338 172 336.5 c 128,-1,33
 183 335 183 335 184 334 c 128,-1,34
 185 333 185 333 178.5 313.5 c 128,-1,35
 172 294 172 294 167 265.5 c 128,-1,36
 162 237 162 237 162 204 c 128,-1,37
 162 171 162 171 175 144 c 0,38,39
 188 115 188 115 218 98 c 0,40,41
 243 84 243 84 282 84 c 0,42,43
 284 84 284 84 287 84 c 0,44,45
 295 84 295 84 303 84 c 0,46,47
 325 84 325 84 340.5 117 c 128,-1,48
 356 150 356 150 365 202 c 128,-1,49
 374 254 374 254 376 318 c 0,50,51
 377 343 377 343 377 368 c 0,52,53
 377 427 377 427 375 447 c 0,54,55
 374 457 374 457 374 466 c 0,56,57
 374 467 374 467 372 492 c 0,58,59
 363 581 363 581 359 675 c 0,60,61
 359 682 359 682 353 677.5 c 128,-1,62
 347 673 347 673 339 669.5 c 128,-1,63
 331 666 331 666 323 669.5 c 128,-1,64
 315 673 315 673 310 696 c 0,65,66
 307 707 307 707 311.5 716 c 128,-1,67
 316 725 316 725 324.5 732 c 128,-1,68
 333 739 333 739 343.5 743 c 128,-1,69
 354 747 354 747 365 749 c 0,70,71
 369 749 369 749 373 749 c 0,72,73
 387 750 387 750 398 744 c 0,74,75
 412 736 412 736 422 725 c 128,-1,76
 432 714 432 714 440 703.5 c 128,-1,77
 448 693 448 693 456 690 c 0,78,79
 476 692 476 692 491 693 c 0,80,81
 504 694 504 694 512 693 c 128,-1,82
 520 692 520 692 514 688 c 0,83,84
 490 674 490 674 480.5 642 c 128,-1,85
 471 610 471 610 470 578 c 0,86,87
 468 545 468 545 466.5 514 c 128,-1,88
 465 483 465 483 463 454 c 0,89,90
 463 452 463 452 462.5 451 c 128,-1,91
 462 450 462 450 462 448 c 2,92,-1
 462 442 l 2,93,94
 460 367 460 367 455 291.5 c 128,-1,95
 450 216 450 216 436 153 c 2,96,-1
 434 141 l 1,97,-1
 425 107 l 2,0,1
EndSplineSet
Validated: 1
EndChar

StartChar: K
Encoding: 75 75 13
Width: 694
Flags: W
HStem: 0 83<50.5834 123.938> 732 20G<463.941 581.941>
VStem: 119.941 95.5<69.6838 187 361 640.471>
LayerCount: 2
Fore
SplineSet
123.94140625 68 m 0,0,1
 123.94140625 122 123.94140625 122 123.44140625 161 c 128,-1,2
 122.94140625 200 122.94140625 200 122.44140625 231 c 128,-1,3
 121.94140625 262 121.94140625 262 121.44140625 289 c 128,-1,4
 120.94140625 316 120.94140625 316 120.94140625 347 c 0,5,6
 119.94140625 382 119.94140625 382 119.94140625 418.5 c 128,-1,7
 119.94140625 455 119.94140625 455 119.94140625 495.5 c 128,-1,8
 119.94140625 536 119.94140625 536 119.94140625 582 c 128,-1,9
 119.94140625 628 119.94140625 628 118.94140625 681 c 0,10,11
 118.94140625 688 118.94140625 688 112.94140625 683.5 c 128,-1,12
 106.94140625 679 106.94140625 679 98.94140625 675.5 c 128,-1,13
 90.94140625 672 90.94140625 672 82.94140625 675.5 c 128,-1,14
 74.94140625 679 74.94140625 679 69.94140625 702 c 0,15,16
 67.94140625 713 67.94140625 713 71.94140625 722 c 128,-1,17
 75.94140625 731 75.94140625 731 84.44140625 738 c 128,-1,18
 92.94140625 745 92.94140625 745 103.44140625 749 c 128,-1,19
 113.94140625 753 113.94140625 753 123.94140625 755 c 0,20,21
 127.94140625 755 127.94140625 755 131.94140625 755 c 0,22,23
 146.94140625 756 146.94140625 756 158.94140625 750 c 0,24,25
 174.94140625 742 174.94140625 742 188.44140625 731 c 128,-1,26
 201.94140625 720 201.94140625 720 212.44140625 709.5 c 128,-1,27
 222.94140625 699 222.94140625 699 230.94140625 696 c 0,28,29
 251.94140625 698 251.94140625 698 266.94140625 699 c 0,30,31
 279.94140625 700 279.94140625 700 287.94140625 699 c 128,-1,32
 295.94140625 698 295.94140625 698 288.94140625 694 c 0,33,34
 260.94140625 679 260.94140625 679 245.94140625 655.5 c 128,-1,35
 230.94140625 632 230.94140625 632 223.94140625 605 c 128,-1,36
 216.94140625 578 216.94140625 578 215.94140625 549 c 128,-1,37
 214.94140625 520 214.94140625 520 214.94140625 492 c 0,38,39
 214.94140625 459 214.94140625 459 215.44140625 426 c 128,-1,40
 215.94140625 393 215.94140625 393 215.94140625 361 c 1,41,42
 227.94140625 377 227.94140625 377 245.94140625 402.5 c 128,-1,43
 263.94140625 428 263.94140625 428 285.94140625 458.5 c 128,-1,44
 307.94140625 489 307.94140625 489 331.94140625 522.5 c 128,-1,45
 355.94140625 556 355.94140625 556 378.94140625 589 c 0,46,47
 433.94140625 666 433.94140625 666 493.94140625 752 c 1,48,-1
 581.94140625 752 l 1,49,-1
 402.94140625 475 l 1,50,-1
 416.94140625 451 l 2,51,52
 427.94140625 429 427.94140625 429 437.44140625 391 c 128,-1,53
 446.94140625 353 446.94140625 353 454.44140625 307 c 128,-1,54
 461.94140625 261 461.94140625 261 469.44140625 210.5 c 128,-1,55
 476.94140625 160 476.94140625 160 484.44140625 114.5 c 128,-1,56
 491.94140625 69 491.94140625 69 499.94140625 31.5 c 128,-1,57
 507.94140625 -6 507.94140625 -6 518.94140625 -26 c 0,58,59
 534.94140625 -58 534.94140625 -58 557.94140625 -80.5 c 128,-1,60
 580.94140625 -103 580.94140625 -103 602.44140625 -116.5 c 128,-1,61
 623.94140625 -130 623.94140625 -130 639.44140625 -136 c 128,-1,62
 654.94140625 -142 654.94140625 -142 655.94140625 -142 c 256,63,64
 656.94140625 -142 656.94140625 -142 642.94140625 -145 c 128,-1,65
 628.94140625 -148 628.94140625 -148 607.94140625 -150 c 0,66,67
 591.94140625 -151 591.94140625 -151 574.94140625 -151 c 0,68,69
 568.94140625 -150 568.94140625 -150 562.94140625 -150 c 0,70,71
 538.94140625 -150 538.94140625 -150 520.94140625 -142 c 0,72,73
 497.94140625 -133 497.94140625 -133 482.94140625 -123.5 c 128,-1,74
 467.94140625 -114 467.94140625 -114 456.94140625 -100 c 128,-1,75
 445.94140625 -86 445.94140625 -86 437.44140625 -65 c 128,-1,76
 428.94140625 -44 428.94140625 -44 419.94140625 -11 c 0,77,78
 419.94140625 -8 419.94140625 -8 415.94140625 14 c 128,-1,79
 411.94140625 36 411.94140625 36 404.94140625 69.5 c 128,-1,80
 397.94140625 103 397.94140625 103 388.94140625 145 c 128,-1,81
 379.94140625 187 379.94140625 187 370.94140625 229.5 c 128,-1,82
 361.94140625 272 361.94140625 272 353.44140625 311 c 128,-1,83
 344.94140625 350 344.94140625 350 339.94140625 378 c 1,84,-1
 216.94140625 187 l 1,85,86
 216.94140625 136 216.94140625 136 218.44140625 104 c 128,-1,87
 219.94140625 72 219.94140625 72 222.94140625 68 c 0,88,89
 227.94140625 60 227.94140625 60 239.44140625 61 c 128,-1,90
 250.94140625 62 250.94140625 62 262.44140625 66 c 128,-1,91
 273.94140625 70 273.94140625 70 282.94140625 73 c 128,-1,92
 291.94140625 76 291.94140625 76 291.94140625 72 c 0,93,94
 292.94140625 60 292.94140625 60 297.44140625 47 c 128,-1,95
 301.94140625 34 301.94140625 34 304.94140625 23.5 c 128,-1,96
 307.94140625 13 307.94140625 13 307.94140625 6.5 c 128,-1,97
 307.94140625 0 307.94140625 0 299.94140625 0 c 2,98,-1
 64.94140625 0 l 2,99,100
 54.94140625 0 54.94140625 0 50.44140625 5 c 128,-1,101
 45.94140625 10 45.94140625 10 44.44140625 19 c 128,-1,102
 42.94140625 28 42.94140625 28 41.94140625 40.5 c 128,-1,103
 40.94140625 53 40.94140625 53 37.94140625 68 c 0,104,105
 33.94140625 83 33.94140625 83 46.94140625 83 c 128,-1,106
 59.94140625 83 59.94140625 83 76.94140625 77.5 c 128,-1,107
 93.94140625 72 93.94140625 72 108.94140625 67 c 128,-1,108
 123.94140625 62 123.94140625 62 123.94140625 68 c 0,0,1
EndSplineSet
Validated: 1
EndChar

StartChar: L
Encoding: 76 76 14
Width: 511
Flags: W
HStem: 0 53<219.616 289.467>
VStem: 120.529 96<68.6838 639.662> 360.529 54<76.1549 127>
LayerCount: 2
Fore
SplineSet
126.529296875 67 m 0,0,1
 126.529296875 121 126.529296875 121 126.029296875 160 c 128,-1,2
 125.529296875 199 125.529296875 199 124.529296875 230 c 128,-1,3
 123.529296875 261 123.529296875 261 122.529296875 288 c 128,-1,4
 121.529296875 315 121.529296875 315 120.529296875 346 c 0,5,6
 119.529296875 369 119.529296875 369 119.529296875 393 c 0,7,8
 120.529296875 406 120.529296875 406 120.529296875 418 c 0,9,10
 120.529296875 454 120.529296875 454 120.529296875 494.5 c 128,-1,11
 120.529296875 535 120.529296875 535 120.029296875 581 c 128,-1,12
 119.529296875 627 119.529296875 627 118.529296875 680 c 0,13,14
 118.529296875 687 118.529296875 687 113.029296875 682.5 c 128,-1,15
 107.529296875 678 107.529296875 678 100.029296875 674.5 c 128,-1,16
 92.529296875 671 92.529296875 671 84.529296875 674.5 c 128,-1,17
 76.529296875 678 76.529296875 678 71.529296875 701 c 0,18,19
 68.529296875 712 68.529296875 712 72.529296875 721 c 128,-1,20
 76.529296875 730 76.529296875 730 85.029296875 737 c 128,-1,21
 93.529296875 744 93.529296875 744 104.529296875 748 c 128,-1,22
 115.529296875 752 115.529296875 752 126.529296875 754 c 0,23,24
 130.529296875 754 130.529296875 754 133.529296875 754 c 0,25,26
 147.529296875 754 147.529296875 754 160.529296875 748 c 0,27,28
 176.529296875 740 176.529296875 740 189.529296875 729.5 c 128,-1,29
 202.529296875 719 202.529296875 719 213.029296875 708.5 c 128,-1,30
 223.529296875 698 223.529296875 698 231.529296875 695 c 0,31,32
 252.529296875 697 252.529296875 697 267.529296875 698 c 0,33,34
 280.529296875 699 280.529296875 699 288.529296875 698 c 128,-1,35
 296.529296875 697 296.529296875 697 288.529296875 693 c 0,36,37
 261.529296875 678 261.529296875 678 246.529296875 654.5 c 128,-1,38
 231.529296875 631 231.529296875 631 224.529296875 604 c 128,-1,39
 217.529296875 577 217.529296875 577 216.529296875 548 c 0,40,41
 216.529296875 534 216.529296875 534 216.529296875 519.5 c 128,-1,42
 216.529296875 505 216.529296875 505 216.529296875 491 c 0,43,44
 217.529296875 416 217.529296875 416 217.529296875 340.5 c 128,-1,45
 217.529296875 265 217.529296875 265 217.529296875 203.5 c 128,-1,46
 217.529296875 142 217.529296875 142 218.529296875 101 c 128,-1,47
 219.529296875 60 219.529296875 60 222.529296875 56 c 0,48,49
 222.529296875 55 222.529296875 55 224.529296875 53 c 0,50,51
 235.529296875 53 235.529296875 53 249.529296875 55 c 128,-1,52
 263.529296875 57 263.529296875 57 278.529296875 60 c 0,53,54
 282.529296875 61 282.529296875 61 285.029296875 62 c 128,-1,55
 287.529296875 63 287.529296875 63 289.529296875 62 c 0,56,57
 307.529296875 66 307.529296875 66 322.029296875 70 c 128,-1,58
 336.529296875 74 336.529296875 74 341.529296875 78 c 0,59,60
 358.529296875 88 358.529296875 88 360.529296875 106 c 0,61,62
 360.529296875 110 360.529296875 110 360.529296875 113 c 0,63,64
 360.529296875 127 360.529296875 127 355.529296875 142 c 0,65,66
 349.529296875 161 349.529296875 161 340.529296875 179 c 128,-1,67
 331.529296875 197 331.529296875 197 328.529296875 210 c 0,68,69
 326.529296875 218 326.529296875 218 333.529296875 220 c 128,-1,70
 340.529296875 222 340.529296875 222 352.029296875 220.5 c 128,-1,71
 363.529296875 219 363.529296875 219 377.529296875 215 c 128,-1,72
 391.529296875 211 391.529296875 211 404.029296875 207 c 128,-1,73
 416.529296875 203 416.529296875 203 424.529296875 200 c 0,74,-1
 432.529296875 197 l 2,75,76
 428.529296875 187 l 0,77,78
 424.529296875 177 424.529296875 177 421.029296875 161 c 128,-1,79
 417.529296875 145 417.529296875 145 416.529296875 127 c 0,80,81
 415.529296875 121 415.529296875 121 414.529296875 115 c 0,82,83
 414.529296875 104 414.529296875 104 417.529296875 94 c 0,84,85
 419.529296875 79 419.529296875 79 428.529296875 62.5 c 128,-1,86
 437.529296875 46 437.529296875 46 447.529296875 32 c 0,87,88
 458.529296875 15 458.529296875 15 472.529296875 0 c 1,89,-1
 66.529296875 0 l 2,90,91
 56.529296875 0 56.529296875 0 52.029296875 5 c 128,-1,92
 47.529296875 10 47.529296875 10 45.529296875 18.5 c 128,-1,93
 43.529296875 27 43.529296875 27 42.529296875 39.5 c 128,-1,94
 41.529296875 52 41.529296875 52 37.529296875 67 c 0,95,96
 34.529296875 82 34.529296875 82 48.529296875 82 c 128,-1,97
 62.529296875 82 62.529296875 82 79.529296875 76.5 c 128,-1,98
 96.529296875 71 96.529296875 71 111.529296875 66 c 128,-1,99
 126.529296875 61 126.529296875 61 126.529296875 67 c 0,0,1
EndSplineSet
Validated: 1
EndChar

StartChar: M
Encoding: 77 77 15
Width: 681
Flags: W
HStem: 0 42<55.9242 140.077> 743 4<333.909 344.563>
VStem: 157.409 62.5<67.1324 515.826> 331.909 73<1 97.8362> 507.909 54<83.849 270.423> 509.909 68<417.564 519> 510.409 57.5<156.658 517.908>
LayerCount: 2
Fore
SplineSet
152.909179688 116 m 0,0,1
 155.909179688 168 155.909179688 168 157.409179688 204 c 128,-1,2
 158.909179688 240 158.909179688 240 159.909179688 268.5 c 128,-1,3
 160.909179688 297 160.909179688 297 160.909179688 323.5 c 128,-1,4
 160.909179688 350 160.909179688 350 159.409179688 384.5 c 128,-1,5
 157.909179688 419 157.909179688 419 155.909179688 465.5 c 128,-1,6
 153.909179688 512 153.909179688 512 149.909179688 581 c 0,7,8
 147.909179688 616 147.909179688 616 138.909179688 646 c 128,-1,9
 129.909179688 676 129.909179688 676 120.409179688 698 c 128,-1,10
 110.909179688 720 110.909179688 720 103.409179688 733 c 128,-1,11
 95.9091796875 746 95.9091796875 746 95.9091796875 747 c 256,12,13
 95.9091796875 748 95.9091796875 748 111.909179688 745 c 128,-1,14
 127.909179688 742 127.909179688 742 147.409179688 738.5 c 128,-1,15
 166.909179688 735 166.909179688 735 183.909179688 732 c 0,16,-1
 199.909179688 730 l 1,17,18
 205.909179688 743 205.909179688 743 225.909179688 748 c 0,19,20
 238.909179688 751 238.909179688 751 251.909179688 751 c 0,21,22
 254.909179688 751 254.909179688 751 258.909179688 751 c 0,23,24
 263.909179688 751 263.909179688 751 267.909179688 751 c 0,25,26
 289.909179688 750 289.909179688 750 311.909179688 747 c 128,-1,27
 333.909179688 744 333.909179688 744 344.909179688 743 c 1,28,29
 333.909179688 742 333.909179688 742 323.409179688 735 c 128,-1,30
 312.909179688 728 312.909179688 728 304.909179688 720 c 0,31,32
 294.909179688 710 294.909179688 710 285.909179688 697 c 1,33,34
 287.909179688 689 287.909179688 689 293.909179688 651.5 c 128,-1,35
 299.909179688 614 299.909179688 614 308.409179688 561.5 c 128,-1,36
 316.909179688 509 316.909179688 509 325.909179688 449 c 128,-1,37
 334.909179688 389 334.909179688 389 342.909179688 337 c 128,-1,38
 350.909179688 285 350.909179688 285 356.409179688 248 c 128,-1,39
 361.909179688 211 361.909179688 211 361.909179688 204 c 1,40,41
 362.909179688 211 362.909179688 211 366.909179688 236 c 128,-1,42
 370.909179688 261 370.909179688 261 376.909179688 298.5 c 128,-1,43
 382.909179688 336 382.909179688 336 390.909179688 382.5 c 128,-1,44
 398.909179688 429 398.909179688 429 407.909179688 479 c 128,-1,45
 416.909179688 529 416.909179688 529 425.909179688 579.5 c 128,-1,46
 434.909179688 630 434.909179688 630 443.909179688 674 c 0,47,48
 445.909179688 684 445.909179688 684 443.909179688 696 c 128,-1,49
 441.909179688 708 441.909179688 708 438.909179688 719 c 0,50,51
 434.909179688 731 434.909179688 731 430.909179688 743 c 1,52,53
 450.909179688 747 450.909179688 747 469.909179688 747 c 0,54,55
 473.909179688 747 473.909179688 747 476.909179688 747 c 0,56,57
 495.909179688 746 495.909179688 746 514.409179688 738.5 c 128,-1,58
 532.909179688 731 532.909179688 731 543.909179688 712 c 1,59,60
 568.909179688 732 568.909179688 732 585.909179688 739 c 128,-1,61
 602.909179688 746 602.909179688 746 613.909179688 745 c 0,62,63
 625.909179688 744 625.909179688 744 633.909179688 737 c 1,64,65
 617.909179688 716 617.909179688 716 605.909179688 692 c 0,66,67
 594.909179688 671 594.909179688 671 586.409179688 644 c 128,-1,68
 577.909179688 617 577.909179688 617 577.909179688 587 c 0,69,70
 574.909179688 497 574.909179688 497 570.909179688 415 c 0,71,72
 568.909179688 380 568.909179688 380 567.909179688 343 c 128,-1,73
 566.909179688 306 566.909179688 306 565.409179688 271.5 c 128,-1,74
 563.909179688 237 563.909179688 237 562.909179688 207 c 128,-1,75
 561.909179688 177 561.909179688 177 561.909179688 156 c 0,76,77
 567.909179688 115 567.909179688 115 582.409179688 86.5 c 128,-1,78
 596.909179688 58 596.909179688 58 611.909179688 39 c 128,-1,79
 626.909179688 20 626.909179688 20 636.409179688 11 c 128,-1,80
 645.909179688 2 645.909179688 2 640.909179688 0 c 0,81,82
 639.909179688 0 639.909179688 0 611.909179688 0.5 c 128,-1,83
 583.909179688 1 583.909179688 1 548.909179688 1 c 2,84,-1
 456.909179688 1 l 1,85,86
 459.909179688 14 459.909179688 14 464.909179688 27 c 0,87,88
 469.909179688 38 469.909179688 38 476.409179688 51.5 c 128,-1,89
 482.909179688 65 482.909179688 65 491.909179688 77 c 0,90,91
 497.909179688 85 497.909179688 85 501.909179688 121 c 128,-1,92
 505.909179688 157 505.909179688 157 507.909179688 206 c 128,-1,93
 509.909179688 255 509.909179688 255 510.409179688 310.5 c 128,-1,94
 510.909179688 366 510.909179688 366 510.909179688 412.5 c 128,-1,95
 510.909179688 459 510.909179688 459 509.909179688 489 c 0,96,-1
 509.909179688 519 l 2,97,98
 508.909179688 519 508.909179688 519 503.409179688 497.5 c 128,-1,99
 497.909179688 476 497.909179688 476 489.909179688 441 c 128,-1,100
 481.909179688 406 481.909179688 406 471.409179688 361 c 128,-1,101
 460.909179688 316 460.909179688 316 450.909179688 268.5 c 128,-1,102
 440.909179688 221 440.909179688 221 431.409179688 175 c 128,-1,103
 421.909179688 129 421.909179688 129 415.409179688 92 c 128,-1,104
 408.909179688 55 408.909179688 55 405.909179688 30 c 128,-1,105
 402.909179688 5 402.909179688 5 404.909179688 1 c 1,106,-1
 331.909179688 1 l 1,107,108
 329.909179688 5 329.909179688 5 324.409179688 29.5 c 128,-1,109
 318.909179688 54 318.909179688 54 311.409179688 91 c 128,-1,110
 303.909179688 128 303.909179688 128 294.909179688 174 c 128,-1,111
 285.909179688 220 285.909179688 220 276.909179688 267.5 c 128,-1,112
 267.909179688 315 267.909179688 315 259.409179688 360 c 128,-1,113
 250.909179688 405 250.909179688 405 243.909179688 439.5 c 128,-1,114
 236.909179688 474 236.909179688 474 232.909179688 495 c 128,-1,115
 228.909179688 516 228.909179688 516 227.909179688 516 c 0,116,117
 226.909179688 515 226.909179688 515 225.409179688 483 c 128,-1,118
 223.909179688 451 223.909179688 451 222.409179688 402.5 c 128,-1,119
 220.909179688 354 220.909179688 354 219.909179688 297 c 0,120,121
 219.909179688 274 219.909179688 274 219.909179688 253 c 0,122,123
 219.909179688 220 219.909179688 220 219.909179688 190 c 0,124,125
 221.909179688 140 221.909179688 140 226.409179688 105.5 c 128,-1,126
 230.909179688 71 230.909179688 71 238.909179688 67 c 0,127,128
 250.909179688 61 250.909179688 61 257.409179688 49.5 c 128,-1,129
 263.909179688 38 263.909179688 38 266.909179688 27 c 0,130,131
 270.909179688 14 270.909179688 14 271.909179688 0 c 1,132,-1
 251.909179688 0 l 0,133,134
 232.909179688 0 232.909179688 0 202.909179688 0 c 128,-1,135
 172.909179688 0 172.909179688 0 137.409179688 0 c 128,-1,136
 101.909179688 0 101.909179688 0 70.9091796875 0 c 0,137,138
 60.9091796875 0 60.9091796875 0 52.4091796875 9 c 128,-1,139
 43.9091796875 18 43.9091796875 18 39.9091796875 31 c 128,-1,140
 35.9091796875 44 35.9091796875 44 37.4091796875 56.5 c 128,-1,141
 38.9091796875 69 38.9091796875 69 48.9091796875 77 c 1,142,143
 46.9091796875 74 46.9091796875 74 51.9091796875 67.5 c 128,-1,144
 56.9091796875 61 56.9091796875 61 64.9091796875 55 c 128,-1,145
 72.9091796875 49 72.9091796875 49 82.9091796875 45 c 128,-1,146
 92.9091796875 41 92.9091796875 41 101.909179688 42 c 0,147,148
 129.909179688 46 129.909179688 46 140.409179688 63 c 128,-1,149
 150.909179688 80 150.909179688 80 152.909179688 116 c 0,0,1
EndSplineSet
Validated: 1
EndChar

StartChar: N
Encoding: 78 78 16
Width: 611
Flags: W
HStem: 0 48<85.0944 141.062> 730 20G<161.5 171.5 439.5 466>
VStem: 49 38<625.623 673.828> 165 58<88.1884 558.049> 371 115<0 109.438> 412 69<173.974 649.23>
LayerCount: 2
Fore
SplineSet
233 109 m 0,0,1
 242 91 242 91 254.5 73 c 128,-1,2
 267 55 267 55 279 39.5 c 128,-1,3
 291 24 291 24 300 13.5 c 128,-1,4
 309 3 309 3 311 1 c 1,5,6
 291 1 291 1 265 0.5 c 128,-1,7
 239 0 239 0 210.5 0 c 128,-1,8
 182 0 182 0 153 0 c 128,-1,9
 124 0 124 0 99 0 c 0,10,11
 75 0 75 0 62.5 9 c 128,-1,12
 50 18 50 18 44 28.5 c 128,-1,13
 38 39 38 39 37.5 47 c 128,-1,14
 37 55 37 55 37 53 c 1,15,16
 37 59 37 59 41.5 71.5 c 128,-1,17
 46 84 46 84 55 95 c 128,-1,18
 64 106 64 106 77 111.5 c 128,-1,19
 90 117 90 117 107 109 c 1,20,21
 89 92 89 92 85.5 81 c 128,-1,22
 82 70 82 70 85 63 c 128,-1,23
 88 56 88 56 93.5 53 c 128,-1,24
 99 50 99 50 99 49 c 256,25,26
 99 48 99 48 109 48 c 128,-1,27
 119 48 119 48 130.5 57.5 c 128,-1,28
 142 67 142 67 152.5 92 c 128,-1,29
 163 117 163 117 165 166 c 0,30,31
 168 204 168 204 168 257.5 c 128,-1,32
 168 311 168 311 165.5 369.5 c 128,-1,33
 163 428 163 428 158 486 c 0,34,35
 156 520 156 520 147 595 c 0,36,37
 142 637 142 637 128 655 c 0,38,39
 113 674 113 674 101 674 c 0,40,41
 87 674 87 674 87 658 c 0,42,43
 87 645 87 645 105 625 c 1,44,45
 99 611 99 611 91.5 606.5 c 128,-1,46
 84 602 84 602 76.5 604.5 c 128,-1,47
 69 607 69 607 61.5 615.5 c 128,-1,48
 54 624 54 624 49 637 c 0,49,50
 49 648 49 648 53 662.5 c 128,-1,51
 57 677 57 677 65 691.5 c 128,-1,52
 73 706 73 706 85 718.5 c 128,-1,53
 97 731 97 731 112 738 c 0,54,55
 130 746 130 746 148 748 c 0,56,57
 157 749 157 749 166 750 c 0,58,59
 177 750 177 750 184 748 c 0,60,61
 210 741 210 741 216 738 c 0,62,63
 231 730 231 730 241 716 c 256,64,65
 251 702 251 702 263.5 671.5 c 128,-1,66
 276 641 276 641 289 600 c 128,-1,67
 302 559 302 559 316 512 c 128,-1,68
 330 465 330 465 343 417.5 c 128,-1,69
 356 370 356 370 367 326.5 c 128,-1,70
 378 283 378 283 386.5 249 c 128,-1,71
 395 215 395 215 400 194 c 0,72,-1
 406 174 l 2,73,74
 407 173 407 173 407.5 194.5 c 128,-1,75
 408 216 408 216 409 250 c 128,-1,76
 410 284 410 284 411 325 c 128,-1,77
 412 366 412 366 412 405 c 128,-1,78
 412 444 412 444 412 475 c 128,-1,79
 412 506 412 506 412 521 c 0,80,81
 412 549 412 549 409.5 569.5 c 128,-1,82
 407 590 407 590 402.5 608 c 128,-1,83
 398 626 398 626 391.5 645.5 c 128,-1,84
 385 665 385 665 375 691 c 0,85,86
 370 704 370 704 371 716 c 128,-1,87
 372 728 372 728 382 736.5 c 128,-1,88
 392 745 392 745 412 749 c 0,89,90
 428 752 428 752 451 752 c 0,91,92
 457 752 457 752 463 752 c 128,-1,93
 469 752 469 752 463.5 747.5 c 128,-1,94
 458 743 458 743 450 738.5 c 128,-1,95
 442 734 442 734 436 730 c 128,-1,96
 430 726 430 726 435 726 c 0,97,98
 446 726 446 726 462.5 733 c 128,-1,99
 479 740 479 740 498 746 c 0,100,101
 518 752 518 752 536 754 c 0,102,103
 538 754 538 754 540 754 c 0,104,105
 556 754 556 754 570 745 c 0,106,107
 578 740 578 740 564.5 736.5 c 128,-1,108
 551 733 551 733 531.5 721 c 128,-1,109
 512 709 512 709 494.5 684 c 128,-1,110
 477 659 477 659 477 613 c 2,111,-1
 481 307 l 2,112,113
 482 250 482 250 482.5 194.5 c 128,-1,114
 483 139 483 139 484 96 c 0,115,116
 486 52 486 52 486 26 c 0,117,-1
 486 0 l 1,118,-1
 371 0 l 1,119,120
 371 7 371 7 364 42 c 128,-1,121
 357 77 357 77 345 128 c 128,-1,122
 333 179 333 179 317.5 240 c 128,-1,123
 302 301 302 301 285 361 c 128,-1,124
 268 421 268 421 250 473 c 128,-1,125
 232 525 232 525 216 559 c 0,126,127
 215 561 215 561 215.5 529.5 c 128,-1,128
 216 498 216 498 217 449.5 c 128,-1,129
 218 401 218 401 219.5 343.5 c 128,-1,130
 221 286 221 286 223 235.5 c 128,-1,131
 225 185 225 185 227.5 149.5 c 128,-1,132
 230 114 230 114 233 109 c 0,0,1
EndSplineSet
Validated: 1
EndChar

StartChar: O
Encoding: 79 79 17
Width: 617
Flags: W
HStem: -1 84<252.862 382.215> 656 96<239.705 381.041>
VStem: 39 98<248.319 514.043> 477 98<225.876 535.421>
LayerCount: 2
Fore
SplineSet
322 752 m 0,0,1
 409 752 409 752 463 708.5 c 128,-1,2
 517 665 517 665 544 596 c 0,3,4
 571 528 571 528 574 442 c 0,5,6
 575 427 575 427 575 411 c 0,7,8
 575 341 575 341 563 272 c 0,9,10
 540 140 540 140 478.5 69.5 c 128,-1,11
 417 -1 417 -1 323 -1 c 0,12,13
 270 0 270 0 220 21 c 128,-1,14
 170 42 170 42 130.5 82.5 c 128,-1,15
 91 123 91 123 66.5 181 c 128,-1,16
 42 239 42 239 40 313 c 0,17,18
 39 336 39 336 39 358 c 0,19,20
 40 422 40 422 46 480 c 0,21,22
 54 560 54 560 85 620 c 128,-1,23
 116 680 116 680 172.5 716 c 128,-1,24
 229 752 229 752 322 752 c 0,0,1
316 655 m 0,25,26
 310 656 310 656 304 656 c 0,27,28
 268 656 268 656 240 635 c 0,29,30
 206 611 206 611 183 570 c 128,-1,31
 160 529 160 529 148 476 c 0,32,33
 137 427 137 427 137 376 c 0,34,35
 137 372 137 372 137 368 c 0,36,37
 140 315 140 315 154 264 c 128,-1,38
 168 213 168 213 192 172.5 c 128,-1,39
 216 132 216 132 248.5 107.5 c 128,-1,40
 281 83 281 83 320 83 c 0,41,42
 357 83 357 83 385 106 c 128,-1,43
 413 129 413 129 432.5 167 c 128,-1,44
 452 205 452 205 463 254 c 128,-1,45
 474 303 474 303 477 355 c 0,46,47
 477 363 477 363 477 372 c 0,48,49
 476 416 476 416 472 460 c 0,50,51
 466 512 466 512 448.5 553.5 c 128,-1,52
 431 595 431 595 399 622 c 128,-1,53
 367 649 367 649 316 655 c 0,25,26
EndSplineSet
Validated: 1
EndChar

StartChar: P
Encoding: 80 80 18
Width: 581
Flags: W
HStem: 0 82<47.4219 125.526> 186 70<214.529 361.154> 643 105<204.744 342.322>
VStem: 119.529 88<258.439 644> 125.029 89.5<68.3712 187 257 351.923> 459.529 81<359.516 545.393>
LayerCount: 2
Fore
SplineSet
125.529296875 67 m 0,0,1
 125.529296875 121 125.529296875 121 125.029296875 160 c 128,-1,2
 124.529296875 199 124.529296875 199 123.529296875 230 c 128,-1,3
 122.529296875 261 122.529296875 261 121.529296875 288 c 128,-1,4
 120.529296875 315 120.529296875 315 119.529296875 346 c 0,5,6
 118.529296875 369 118.529296875 369 118.529296875 393 c 0,7,8
 119.529296875 406 119.529296875 406 119.529296875 418 c 0,9,10
 119.529296875 454 119.529296875 454 119.529296875 494.5 c 128,-1,11
 119.529296875 535 119.529296875 535 119.029296875 581 c 128,-1,12
 118.529296875 627 118.529296875 627 117.529296875 680 c 0,13,14
 117.529296875 687 117.529296875 687 112.029296875 682.5 c 128,-1,15
 106.529296875 678 106.529296875 678 99.029296875 674.5 c 128,-1,16
 91.529296875 671 91.529296875 671 83.529296875 674.5 c 128,-1,17
 75.529296875 678 75.529296875 678 70.529296875 701 c 0,18,19
 67.529296875 712 67.529296875 712 71.529296875 721 c 128,-1,20
 75.529296875 730 75.529296875 730 84.029296875 737 c 128,-1,21
 92.529296875 744 92.529296875 744 103.529296875 748 c 128,-1,22
 114.529296875 752 114.529296875 752 125.529296875 754 c 0,23,24
 137.529296875 756 137.529296875 756 148.529296875 752.5 c 128,-1,25
 159.529296875 749 159.529296875 749 169.529296875 743 c 1,26,27
 177.529296875 744 177.529296875 744 208.529296875 746 c 0,28,29
 222.529296875 747 222.529296875 747 238.529296875 748 c 0,30,31
 259.529296875 748 259.529296875 748 281.529296875 746 c 0,32,33
 323.529296875 743 323.529296875 743 369.029296875 731.5 c 128,-1,34
 414.529296875 720 414.529296875 720 453.029296875 692 c 128,-1,35
 491.529296875 664 491.529296875 664 516.029296875 617.5 c 128,-1,36
 540.529296875 571 540.529296875 571 540.529296875 498 c 0,37,38
 539.529296875 421 539.529296875 421 521.529296875 367.5 c 128,-1,39
 503.529296875 314 503.529296875 314 474.529296875 279 c 128,-1,40
 445.529296875 244 445.529296875 244 409.529296875 224.5 c 128,-1,41
 373.529296875 205 373.529296875 205 337.529296875 196 c 128,-1,42
 301.529296875 187 301.529296875 187 269.529296875 186 c 0,43,44
 258.529296875 186 258.529296875 186 248.529296875 186 c 0,45,46
 229.529296875 186 229.529296875 186 214.529296875 187 c 1,47,48
 216.529296875 136 216.529296875 136 218.529296875 103 c 128,-1,49
 220.529296875 70 220.529296875 70 222.529296875 67 c 0,50,51
 227.529296875 59 227.529296875 59 239.029296875 60 c 128,-1,52
 250.529296875 61 250.529296875 61 262.029296875 65 c 128,-1,53
 273.529296875 69 273.529296875 69 282.529296875 72 c 128,-1,54
 291.529296875 75 291.529296875 75 291.529296875 71 c 0,55,56
 292.529296875 59 292.529296875 59 297.029296875 46 c 128,-1,57
 301.529296875 33 301.529296875 33 304.529296875 23 c 128,-1,58
 307.529296875 13 307.529296875 13 307.529296875 6.5 c 128,-1,59
 307.529296875 0 307.529296875 0 299.529296875 0 c 2,60,-1
 72.529296875 0 l 2,61,62
 62.529296875 0 62.529296875 0 57.029296875 5 c 128,-1,63
 51.529296875 10 51.529296875 10 48.529296875 18.5 c 128,-1,64
 45.529296875 27 45.529296875 27 43.029296875 39.5 c 128,-1,65
 40.529296875 52 40.529296875 52 36.529296875 67 c 0,66,67
 33.529296875 82 33.529296875 82 47.529296875 82 c 128,-1,68
 61.529296875 82 61.529296875 82 78.529296875 76.5 c 128,-1,69
 95.529296875 71 95.529296875 71 110.529296875 66 c 128,-1,70
 125.529296875 61 125.529296875 61 125.529296875 67 c 0,0,1
204.529296875 644 m 2,71,-1
 204.529296875 643 l 2,72,73
 204.529296875 602 204.529296875 602 205.529296875 554 c 128,-1,74
 206.529296875 506 206.529296875 506 207.529296875 455 c 128,-1,75
 208.529296875 404 208.529296875 404 209.529296875 353.5 c 128,-1,76
 210.529296875 303 210.529296875 303 212.529296875 257 c 0,77,78
 213.529296875 258 213.529296875 258 234.529296875 256 c 0,79,80
 240.529296875 256 240.529296875 256 247.529296875 255 c 0,81,82
 264.529296875 256 264.529296875 256 285.529296875 258 c 0,83,84
 315.529296875 262 315.529296875 262 349.029296875 273 c 128,-1,85
 382.529296875 284 382.529296875 284 409.029296875 310 c 128,-1,86
 435.529296875 336 435.529296875 336 449.529296875 379 c 0,87,88
 458.529296875 407 458.529296875 407 459.529296875 444 c 0,89,90
 459.529296875 465 459.529296875 465 456.529296875 488 c 0,91,92
 450.529296875 530 450.529296875 530 430.029296875 557.5 c 128,-1,93
 409.529296875 585 409.529296875 585 381.529296875 602 c 128,-1,94
 353.529296875 619 353.529296875 619 323.029296875 627.5 c 128,-1,95
 292.529296875 636 292.529296875 636 266.029296875 639.5 c 128,-1,96
 239.529296875 643 239.529296875 643 222.529296875 643 c 128,-1,97
 205.529296875 643 205.529296875 643 204.529296875 644 c 2,71,-1
EndSplineSet
Validated: 1
EndChar

StartChar: Q
Encoding: 81 81 19
Width: 719
Flags: W
HStem: 0 84<251.027 380.902> 656 96<236.97 379.713>
VStem: 39 98<248.331 514.043> 410 2<285 285.997> 443.5 82<-31.9165 34> 477 97<324.496 533.92>
LayerCount: 2
Fore
SplineSet
321 752 m 0,0,1
 408 752 408 752 462 708 c 0,2,3
 515 665 515 665 543 596 c 0,4,5
 574 520 574 520 574 442 c 0,6,7
 574 434 574 434 574 425 c 128,-1,8
 574 416 574 416 574 407 c 0,9,10
 574 339 574 339 563 272 c 0,11,12
 556 232 556 232 545 197.5 c 128,-1,13
 534 163 534 163 520 134 c 1,14,15
 522 88 522 88 525.5 45.5 c 128,-1,16
 529 3 529 3 544 -26 c 0,17,18
 560 -58 560 -58 583 -80.5 c 128,-1,19
 606 -103 606 -103 627.5 -116.5 c 128,-1,20
 649 -130 649 -130 664.5 -136 c 128,-1,21
 680 -142 680 -142 681 -142 c 256,22,23
 682 -142 682 -142 668 -145 c 128,-1,24
 654 -148 654 -148 633 -150 c 0,25,26
 617 -151 617 -151 600 -151 c 0,27,28
 594 -150 594 -150 588 -150 c 0,29,30
 564 -150 564 -150 546 -142 c 0,31,32
 523 -133 523 -133 508 -123.5 c 128,-1,33
 493 -114 493 -114 482 -100 c 128,-1,34
 471 -86 471 -86 462.5 -65 c 128,-1,35
 454 -44 454 -44 445 -11 c 0,36,37
 445 -9 445 -9 443.5 3.5 c 128,-1,38
 442 16 442 16 440 34 c 1,39,40
 390 0 390 0 331 0 c 0,41,42
 326 0 326 0 321 0 c 0,43,44
 267 1 267 1 217.5 22 c 128,-1,45
 168 43 168 43 129 83 c 128,-1,46
 90 123 90 123 66 181 c 128,-1,47
 42 239 42 239 40 313 c 0,48,49
 39 336 39 336 39 358 c 0,50,51
 40 422 40 422 46 480 c 0,52,53
 54 560 54 560 84 620 c 128,-1,54
 114 680 114 680 171 716 c 128,-1,55
 228 752 228 752 321 752 c 0,0,1
412 286 m 1,56,57
 410 285 410 285 416.5 291 c 128,-1,58
 423 297 423 297 434 306 c 128,-1,59
 445 315 445 315 456.5 324 c 128,-1,60
 468 333 468 333 476 338 c 0,61,62
 476 342 476 342 476 346 c 128,-1,63
 476 350 476 350 477 355 c 0,64,65
 477 363 477 363 477 370 c 0,66,67
 477 416 477 416 472 460 c 0,68,69
 466 512 466 512 448 553.5 c 128,-1,70
 430 595 430 595 397.5 622 c 128,-1,71
 365 649 365 649 315 655 c 0,72,73
 309 656 309 656 303 656 c 0,74,75
 266 656 266 656 238 635 c 0,76,77
 204 611 204 611 182 570 c 128,-1,78
 160 529 160 529 148 476 c 0,79,80
 137 427 137 427 137 376 c 0,81,82
 137 372 137 372 137 368 c 0,83,84
 140 315 140 315 154 264 c 128,-1,85
 168 213 168 213 191.5 173 c 128,-1,86
 215 133 215 133 247 108.5 c 128,-1,87
 279 84 279 84 318 84 c 0,88,89
 351 84 351 84 377 102.5 c 128,-1,90
 403 121 403 121 423 153 c 1,91,92
 420 178 420 178 417 202 c 128,-1,93
 414 226 414 226 412 244.5 c 128,-1,94
 410 263 410 263 410 274.5 c 128,-1,95
 410 286 410 286 412 286 c 1,56,57
EndSplineSet
Validated: 1
EndChar

StartChar: R
Encoding: 82 82 20
Width: 713
Flags: W
HStem: 0 82<52.1713 125.526> 186 70<214.529 361.666> 645 103<206.564 341.69>
VStem: 119.529 88<258.439 645.972> 435.029 84<-31.9165 186.775> 459.529 81<360.043 545.867>
LayerCount: 2
Fore
SplineSet
125.529296875 67 m 0,0,1
 125.529296875 121 125.529296875 121 125.029296875 160 c 128,-1,2
 124.529296875 199 124.529296875 199 123.529296875 230 c 128,-1,3
 122.529296875 261 122.529296875 261 121.529296875 288 c 128,-1,4
 120.529296875 315 120.529296875 315 119.529296875 346 c 0,5,6
 118.529296875 369 118.529296875 369 118.529296875 393 c 0,7,8
 119.529296875 406 119.529296875 406 119.529296875 418 c 0,9,10
 119.529296875 454 119.529296875 454 119.529296875 494.5 c 128,-1,11
 119.529296875 535 119.529296875 535 119.029296875 581 c 128,-1,12
 118.529296875 627 118.529296875 627 117.529296875 680 c 0,13,14
 117.529296875 687 117.529296875 687 112.029296875 682.5 c 128,-1,15
 106.529296875 678 106.529296875 678 99.029296875 674.5 c 128,-1,16
 91.529296875 671 91.529296875 671 83.529296875 674.5 c 128,-1,17
 75.529296875 678 75.529296875 678 70.529296875 701 c 0,18,19
 67.529296875 712 67.529296875 712 71.529296875 721 c 128,-1,20
 75.529296875 730 75.529296875 730 84.029296875 737 c 128,-1,21
 92.529296875 744 92.529296875 744 103.529296875 748 c 128,-1,22
 114.529296875 752 114.529296875 752 125.529296875 754 c 0,23,24
 137.529296875 756 137.529296875 756 148.529296875 752.5 c 128,-1,25
 159.529296875 749 159.529296875 749 169.529296875 743 c 1,26,27
 177.529296875 744 177.529296875 744 208.529296875 746 c 0,28,29
 222.529296875 747 222.529296875 747 238.529296875 748 c 0,30,31
 259.529296875 748 259.529296875 748 281.529296875 746 c 0,32,33
 323.529296875 743 323.529296875 743 369.029296875 731.5 c 128,-1,34
 414.529296875 720 414.529296875 720 453.029296875 692 c 128,-1,35
 491.529296875 664 491.529296875 664 516.029296875 617.5 c 128,-1,36
 540.529296875 571 540.529296875 571 540.529296875 498 c 0,37,38
 539.529296875 432 539.529296875 432 526.529296875 384.5 c 128,-1,39
 513.529296875 337 513.529296875 337 491.529296875 302 c 1,40,41
 506.529296875 269 506.529296875 269 510.029296875 224.5 c 128,-1,42
 513.529296875 180 513.529296875 180 514.529296875 134.5 c 128,-1,43
 515.529296875 89 515.529296875 89 519.029296875 46.5 c 128,-1,44
 522.529296875 4 522.529296875 4 537.529296875 -26 c 0,45,46
 553.529296875 -58 553.529296875 -58 576.529296875 -80.5 c 128,-1,47
 599.529296875 -103 599.529296875 -103 621.029296875 -116.5 c 128,-1,48
 642.529296875 -130 642.529296875 -130 658.029296875 -136 c 128,-1,49
 673.529296875 -142 673.529296875 -142 674.529296875 -142 c 256,50,51
 675.529296875 -142 675.529296875 -142 661.529296875 -145 c 128,-1,52
 647.529296875 -148 647.529296875 -148 626.529296875 -150 c 0,53,54
 610.529296875 -151 610.529296875 -151 593.529296875 -151 c 0,55,56
 587.529296875 -150 587.529296875 -150 581.529296875 -150 c 0,57,58
 557.529296875 -150 557.529296875 -150 539.529296875 -142 c 0,59,60
 516.529296875 -133 516.529296875 -133 501.529296875 -123.5 c 128,-1,61
 486.529296875 -114 486.529296875 -114 475.529296875 -100 c 128,-1,62
 464.529296875 -86 464.529296875 -86 456.029296875 -65 c 128,-1,63
 447.529296875 -44 447.529296875 -44 438.529296875 -11 c 0,64,65
 438.529296875 -8 438.529296875 -8 435.029296875 17.5 c 128,-1,66
 431.529296875 43 431.529296875 43 427.029296875 78 c 128,-1,67
 422.529296875 113 422.529296875 113 417.529296875 152.5 c 128,-1,68
 412.529296875 192 412.529296875 192 408.529296875 224 c 1,69,70
 382.529296875 209 382.529296875 209 355.029296875 201 c 128,-1,71
 327.529296875 193 327.529296875 193 302.029296875 189.5 c 128,-1,72
 276.529296875 186 276.529296875 186 253.529296875 186 c 128,-1,73
 230.529296875 186 230.529296875 186 214.529296875 187 c 1,74,75
 216.529296875 135 216.529296875 135 218.529296875 102.5 c 128,-1,76
 220.529296875 70 220.529296875 70 222.529296875 67 c 0,77,78
 227.529296875 59 227.529296875 59 239.029296875 60 c 128,-1,79
 250.529296875 61 250.529296875 61 262.029296875 65 c 128,-1,80
 273.529296875 69 273.529296875 69 282.529296875 72 c 128,-1,81
 291.529296875 75 291.529296875 75 291.529296875 71 c 0,82,83
 292.529296875 59 292.529296875 59 297.529296875 46 c 128,-1,84
 302.529296875 33 302.529296875 33 305.529296875 23 c 128,-1,85
 308.529296875 13 308.529296875 13 308.029296875 6.5 c 128,-1,86
 307.529296875 0 307.529296875 0 299.529296875 0 c 2,87,-1
 66.529296875 0 l 2,88,89
 56.529296875 0 56.529296875 0 52.029296875 5 c 128,-1,90
 47.529296875 10 47.529296875 10 45.529296875 18.5 c 128,-1,91
 43.529296875 27 43.529296875 27 42.029296875 39.5 c 128,-1,92
 40.529296875 52 40.529296875 52 36.529296875 67 c 0,93,94
 33.529296875 82 33.529296875 82 47.529296875 82 c 128,-1,95
 61.529296875 82 61.529296875 82 78.529296875 76.5 c 128,-1,96
 95.529296875 71 95.529296875 71 110.529296875 66 c 128,-1,97
 125.529296875 61 125.529296875 61 125.529296875 67 c 0,0,1
207.529296875 491 m 2,98,-1
 207.529296875 455 l 2,99,100
 209.529296875 404 209.529296875 404 210.529296875 353.5 c 128,-1,101
 211.529296875 303 211.529296875 303 212.529296875 257 c 0,102,103
 213.529296875 258 213.529296875 258 235.529296875 256 c 0,104,105
 241.529296875 256 241.529296875 256 248.529296875 255 c 0,106,107
 265.529296875 255 265.529296875 255 287.529296875 258 c 0,108,109
 317.529296875 262 317.529296875 262 350.529296875 273.5 c 128,-1,110
 383.529296875 285 383.529296875 285 409.529296875 311 c 0,111,112
 435.529296875 338 435.529296875 338 449.529296875 380 c 0,113,114
 458.529296875 407 458.529296875 407 459.529296875 444 c 0,115,116
 459.529296875 464 459.529296875 464 456.529296875 488 c 0,117,118
 450.529296875 530 450.529296875 530 430.529296875 557.5 c 128,-1,119
 410.529296875 585 410.529296875 585 383.029296875 602.5 c 128,-1,120
 355.529296875 620 355.529296875 620 324.529296875 629 c 128,-1,121
 293.529296875 638 293.529296875 638 267.529296875 641.5 c 128,-1,122
 241.529296875 645 241.529296875 645 224.529296875 645 c 128,-1,123
 207.529296875 645 207.529296875 645 206.529296875 646 c 0,124,125
 205.529296875 646 205.529296875 646 205.529296875 623 c 128,-1,126
 205.529296875 600 205.529296875 600 206.529296875 564 c 0,127,128
 206.529296875 547 206.529296875 547 206.529296875 529 c 128,-1,129
 206.529296875 511 206.529296875 511 207.529296875 491 c 2,98,-1
EndSplineSet
Validated: 1
EndChar

StartChar: S
Encoding: 83 83 21
Width: 514
Flags: W
HStem: 0 68<205.658 319.677> 689 62<204.306 316.829>
VStem: 76.4707 69<525 632.068> 377.471 75<130.004 263.109>
LayerCount: 2
Fore
SplineSet
77.470703125 570 m 0,0,1
 76.470703125 579 76.470703125 579 76.470703125 588 c 0,2,3
 77.470703125 614 77.470703125 614 83.470703125 638 c 0,4,5
 91.470703125 672 91.470703125 672 114.970703125 698 c 128,-1,6
 138.470703125 724 138.470703125 724 178.470703125 738 c 0,7,8
 213.470703125 751 213.470703125 751 263.470703125 751 c 0,9,10
 270.470703125 751 270.470703125 751 277.470703125 751 c 0,11,12
 334.470703125 746 334.470703125 746 367.470703125 727 c 128,-1,13
 400.470703125 708 400.470703125 708 416.970703125 682.5 c 128,-1,14
 433.470703125 657 433.470703125 657 437.970703125 630 c 128,-1,15
 442.470703125 603 442.470703125 603 442.470703125 582 c 1,16,17
 442.470703125 583 442.470703125 583 447.470703125 579.5 c 128,-1,18
 452.470703125 576 452.470703125 576 459.470703125 571 c 256,19,20
 466.470703125 566 466.470703125 566 476.470703125 558 c 1,21,22
 459.470703125 558 459.470703125 558 438.970703125 550 c 128,-1,23
 418.470703125 542 418.470703125 542 400.470703125 539 c 0,24,25
 396.470703125 538 396.470703125 538 392.470703125 538 c 0,26,27
 379.470703125 538 379.470703125 538 368.470703125 546 c 0,28,29
 354.470703125 556 354.470703125 556 350.470703125 593 c 0,30,31
 348.470703125 606 348.470703125 606 343.470703125 622.5 c 128,-1,32
 338.470703125 639 338.470703125 639 328.470703125 653.5 c 128,-1,33
 318.470703125 668 318.470703125 668 303.470703125 678 c 128,-1,34
 288.470703125 688 288.470703125 688 266.470703125 689 c 0,35,36
 264.470703125 689 264.470703125 689 262.470703125 689 c 0,37,38
 239.470703125 688 239.470703125 688 221.470703125 678 c 0,39,40
 199.470703125 666 199.470703125 666 181.470703125 648 c 0,41,42
 163.470703125 631 163.470703125 631 153.470703125 609 c 0,43,44
 146.470703125 594 146.470703125 594 145.470703125 577 c 0,45,46
 145.470703125 572 145.470703125 572 146.470703125 568 c 0,47,48
 151.470703125 542 151.470703125 542 170.970703125 520.5 c 128,-1,49
 190.470703125 499 190.470703125 499 217.470703125 480 c 128,-1,50
 244.470703125 461 244.470703125 461 275.970703125 443 c 128,-1,51
 307.470703125 425 307.470703125 425 336.470703125 406 c 128,-1,52
 365.470703125 387 365.470703125 387 388.470703125 365 c 128,-1,53
 411.470703125 343 411.470703125 343 422.470703125 317 c 0,54,55
 429.470703125 298 429.470703125 298 437.970703125 267 c 128,-1,56
 446.470703125 236 446.470703125 236 450.470703125 201 c 0,57,58
 452.470703125 183 452.470703125 183 452.470703125 165.5 c 128,-1,59
 452.470703125 148 452.470703125 148 450.470703125 130 c 0,60,61
 446.470703125 94 446.470703125 94 429.470703125 65 c 128,-1,62
 412.470703125 36 412.470703125 36 379.470703125 18 c 128,-1,63
 346.470703125 0 346.470703125 0 292.470703125 0 c 0,64,65
 268.470703125 0 268.470703125 0 238.470703125 2.5 c 128,-1,66
 208.470703125 5 208.470703125 5 178.470703125 15 c 128,-1,67
 148.470703125 25 148.470703125 25 121.470703125 43.5 c 128,-1,68
 94.470703125 62 94.470703125 62 77.470703125 94 c 0,69,70
 70.470703125 107 70.470703125 107 71.470703125 120 c 128,-1,71
 72.470703125 133 72.470703125 133 75.470703125 145 c 128,-1,72
 78.470703125 157 78.470703125 157 79.970703125 168.5 c 128,-1,73
 81.470703125 180 81.470703125 180 77.470703125 192 c 1,74,75
 65.470703125 201 65.470703125 201 55.470703125 209 c 0,76,77
 47.470703125 216 47.470703125 216 40.970703125 222 c 128,-1,78
 34.470703125 228 34.470703125 228 36.470703125 230 c 0,79,80
 37.470703125 232 37.470703125 232 53.470703125 238.5 c 128,-1,81
 69.470703125 245 69.470703125 245 87.970703125 250.5 c 128,-1,82
 106.470703125 256 106.470703125 256 122.970703125 256 c 128,-1,83
 139.470703125 256 139.470703125 256 142.470703125 244 c 0,84,85
 143.470703125 238 143.470703125 238 145.470703125 222.5 c 128,-1,86
 147.470703125 207 147.470703125 207 153.470703125 187.5 c 128,-1,87
 159.470703125 168 159.470703125 168 167.970703125 146.5 c 128,-1,88
 176.470703125 125 176.470703125 125 189.470703125 108 c 0,89,90
 203.470703125 89 203.470703125 89 219.470703125 78 c 0,91,92
 234.470703125 68 234.470703125 68 252.470703125 68 c 0,93,94
 253.470703125 68 253.470703125 68 255.470703125 68 c 128,-1,95
 257.470703125 68 257.470703125 68 258.470703125 68 c 0,96,97
 291.470703125 69 291.470703125 69 317.470703125 88 c 128,-1,98
 343.470703125 107 343.470703125 107 358.470703125 134.5 c 128,-1,99
 373.470703125 162 373.470703125 162 377.470703125 192 c 0,100,101
 378.470703125 199 378.470703125 199 377.470703125 204 c 0,102,103
 377.470703125 226 377.470703125 226 368.470703125 243 c 0,104,105
 351.470703125 274 351.470703125 274 324.970703125 300 c 128,-1,106
 298.470703125 326 298.470703125 326 267.470703125 349.5 c 128,-1,107
 236.470703125 373 236.470703125 373 204.470703125 396 c 128,-1,108
 172.470703125 419 172.470703125 419 145.470703125 445 c 128,-1,109
 118.470703125 471 118.470703125 471 99.970703125 501.5 c 128,-1,110
 81.470703125 532 81.470703125 532 77.470703125 570 c 0,0,1
EndSplineSet
Validated: 1
EndChar

StartChar: T
Encoding: 84 84 22
Width: 680
Flags: W
HStem: 0 80<219.126 291.996> 732 20G<35 642>
VStem: 96 55<562.559 656.031> 287 96<66.6838 638.37> 528 59<558.937 653.624>
LayerCount: 2
Fore
SplineSet
292 65 m 0,0,1
 292 119 292 119 291.5 158 c 128,-1,2
 291 197 291 197 290.5 228 c 128,-1,3
 290 259 290 259 289 286 c 128,-1,4
 288 313 288 313 288 344 c 0,5,6
 287 379 287 379 287 415.5 c 128,-1,7
 287 452 287 452 287 492.5 c 128,-1,8
 287 533 287 533 287 579 c 128,-1,9
 287 625 287 625 286 678 c 1,10,11
 267 675 267 675 248 672 c 128,-1,12
 229 669 229 669 213 666 c 128,-1,13
 197 663 197 663 185.5 660 c 128,-1,14
 174 657 174 657 170 655 c 0,15,16
 152 644 152 644 151 629.5 c 128,-1,17
 150 615 150 615 156 599 c 128,-1,18
 162 583 162 583 170.5 567 c 128,-1,19
 179 551 179 551 182 538 c 0,20,21
 185 526 185 526 169 527 c 128,-1,22
 153 528 153 528 132.5 534 c 128,-1,23
 112 540 112 540 95 546 c 0,24,-1
 77 552 l 256,25,26
 81 562 l 0,27,28
 85 573 85 573 89 589 c 128,-1,29
 93 605 93 605 95 624 c 0,30,31
 96 634 96 634 96 640 c 0,32,33
 96 649 96 649 94 658 c 0,34,35
 90 673 90 673 80.5 689.5 c 128,-1,36
 71 706 71 706 61 720 c 0,37,38
 49 736 49 736 35 752 c 1,39,-1
 642 752 l 1,40,41
 630 736 630 736 619 720 c 0,42,43
 610 706 610 706 601.5 689.5 c 128,-1,44
 593 673 593 673 589 657 c 256,45,46
 587 647 587 647 587 636 c 0,47,48
 587 629 587 629 587 621 c 0,49,50
 589 601 589 601 593.5 584 c 128,-1,51
 598 567 598 567 602 556 c 0,52,53
 606 545 l 256,54,55
 587 538 l 0,56,57
 569 532 569 532 547 526 c 128,-1,58
 525 520 525 520 508.5 519.5 c 128,-1,59
 492 519 492 519 495 531 c 0,60,61
 498 545 498 545 507.5 561.5 c 128,-1,62
 517 578 517 578 523 594 c 0,63,64
 528 607 528 607 528 620 c 0,65,66
 527 622 527 622 527 626 c 0,67,68
 525 642 525 642 508 654 c 0,69,70
 501 658 501 658 480.5 664 c 128,-1,71
 460 670 460 670 435 676 c 1,72,73
 415 659 415 659 404 637 c 128,-1,74
 393 615 393 615 388 590.5 c 128,-1,75
 383 566 383 566 383 540 c 0,76,77
 383 531 383 531 382 523 c 0,78,79
 382 506 382 506 383 489 c 0,80,81
 384 414 384 414 384 340.5 c 128,-1,82
 384 267 384 267 384.5 207 c 128,-1,83
 385 147 385 147 386 108 c 128,-1,84
 387 69 387 69 390 65 c 0,85,86
 396 57 396 57 407.5 58 c 128,-1,87
 419 59 419 59 430.5 63 c 128,-1,88
 442 67 442 67 451 70 c 128,-1,89
 460 73 460 73 460 69 c 0,90,91
 461 57 461 57 465.5 44.5 c 128,-1,92
 470 32 470 32 473.5 22.5 c 128,-1,93
 477 13 477 13 477 6.5 c 128,-1,94
 477 0 477 0 470 0 c 0,95,96
 456 0 456 0 427.5 0 c 128,-1,97
 399 0 399 0 365 0 c 128,-1,98
 331 0 331 0 296 0 c 128,-1,99
 261 0 261 0 233 0 c 0,100,101
 223 0 223 0 219 4.5 c 128,-1,102
 215 9 215 9 213 17.5 c 128,-1,103
 211 26 211 26 210 38 c 128,-1,104
 209 50 209 50 205 65 c 0,105,106
 202 80 202 80 215 80 c 128,-1,107
 228 80 228 80 245 74.5 c 128,-1,108
 262 69 262 69 277 64 c 128,-1,109
 292 59 292 59 292 65 c 0,0,1
EndSplineSet
Validated: 1
EndChar

StartChar: U
Encoding: 85 85 23
Width: 600
Flags: W
HStem: 0 80<212.646 354.054> 682 4<218.05 230.175> 732 20G<416 524.5>
VStem: 43 106<161.141 553.73> 436 92<246.36 679.046>
LayerCount: 2
Fore
SplineSet
518 97 m 1,0,1
 560 57 560 57 560 46 c 2,2,3
 560 42 l 2,4,5
 560 32 560 32 548 0 c 1,6,-1
 424 0 l 2,7,8
 411 0 411 0 411 15 c 128,-1,9
 411 30 411 30 416 47 c 1,10,11
 389 32 389 32 349 16 c 128,-1,12
 309 0 309 0 242.5 0 c 128,-1,13
 176 0 176 0 133.5 37.5 c 128,-1,14
 91 75 91 75 68.5 136.5 c 128,-1,15
 46 198 46 198 44.5 251 c 128,-1,16
 43 304 43 304 43 324 c 2,17,-1
 43 366 l 1,18,19
 43 377 l 2,20,21
 43 394 43 394 48 442 c 0,22,23
 60 560 60 560 85 667 c 1,24,25
 67 656 67 656 60 657 c 0,26,27
 47 659 47 659 39 693 c 0,28,29
 38 698 38 698 38 701 c 0,30,31
 40 722 40 722 52 736 c 0,32,33
 72 759 72 759 91 759 c 128,-1,34
 110 759 110 759 122 750 c 128,-1,35
 134 741 134 741 146 727.5 c 128,-1,36
 158 714 158 714 167.5 701.5 c 128,-1,37
 177 689 177 689 185 685 c 1,38,39
 205 686 205 686 217 686 c 0,40,41
 251 686 251 686 235 682 c 0,42,43
 204 673 204 673 176 619 c 1,44,45
 174 576 174 576 167 520 c 0,46,47
 149 376 149 376 149 297 c 0,48,49
 149 292 149 292 149 287 c 0,50,51
 149 166 149 166 203 110 c 0,52,53
 232 80 232 80 281 80 c 0,54,55
 282 80 282 80 284 80 c 128,-1,56
 286 80 286 80 288 80 c 128,-1,57
 290 80 290 80 292 80 c 128,-1,58
 293.991210938 79.9228515625 293.991210938 79.9228515625 295.958007812 79.9228515625 c 0,59,60
 370.034179688 79.9228515625 370.034179688 79.9228515625 409 190 c 0,61,62
 436 266 436 266 436 385 c 2,63,-1
 436 422 l 1,64,65
 435 506 435 506 424.5 602 c 128,-1,66
 414 698 414 698 412 726 c 128,-1,67
 410 754 410 754 416 752 c 1,68,-1
 521 752 l 2,69,70
 528 752 528 752 528 502 c 128,-1,71
 528 252 528 252 518 102 c 1,72,-1
 518 97 l 1,0,1
EndSplineSet
Validated: 1
EndChar

StartChar: V
Encoding: 86 86 24
Width: 642
Flags: W
HStem: 0 21G<441.333 464.333> 705 48<542.37 593.333> 712 41<74.7905 125.207 545.339 593.333>
VStem: 420.333 122<614.311 702.129>
LayerCount: 2
Fore
SplineSet
246.333007812 700 m 0,0,1
 241.333007812 695 241.333007812 695 241.333007812 677 c 0,2,3
 241.333007812 668 241.333007812 668 242.333007812 654 c 0,4,5
 246.333007812 616 246.333007812 616 255.833007812 561.5 c 128,-1,6
 265.333007812 507 265.333007812 507 279.333007812 444.5 c 128,-1,7
 293.333007812 382 293.333007812 382 305.833007812 326.5 c 128,-1,8
 318.333007812 271 318.333007812 271 327.833007812 231 c 128,-1,9
 337.333007812 191 337.333007812 191 339.333007812 181 c 1,10,11
 340.333007812 192 340.333007812 192 348.833007812 228.5 c 128,-1,12
 357.333007812 265 357.333007812 265 368.333007812 315 c 128,-1,13
 379.333007812 365 379.333007812 365 391.333007812 422.5 c 128,-1,14
 403.333007812 480 403.333007812 480 411.333007812 533 c 128,-1,15
 419.333007812 586 419.333007812 586 420.333007812 628 c 0,16,17
 420.333007812 632 420.333007812 632 420.333007812 635 c 0,18,19
 420.333007812 671 420.333007812 671 411.333007812 690 c 0,20,21
 408.333007812 697 408.333007812 697 396.333007812 708 c 128,-1,22
 384.333007812 719 384.333007812 719 373.833007812 729 c 128,-1,23
 363.333007812 739 363.333007812 739 359.333007812 746 c 128,-1,24
 355.333007812 753 355.333007812 753 368.333007812 753 c 2,25,-1
 593.333007812 753 l 1,26,-1
 599.333007812 743 l 2,27,28
 604.333007812 733 604.333007812 733 604.333007812 725 c 0,29,30
 603.333007812 716 603.333007812 716 593.833007812 712 c 128,-1,31
 584.333007812 708 584.333007812 708 572.833007812 705 c 128,-1,32
 561.333007812 702 561.333007812 702 551.833007812 697 c 128,-1,33
 542.333007812 692 542.333007812 692 542.333007812 682 c 0,34,35
 493.333007812 524 493.333007812 524 459.333007812 396 c 0,36,37
 444.333007812 341 444.333007812 341 431.833007812 286.5 c 128,-1,38
 419.333007812 232 419.333007812 232 411.333007812 187 c 128,-1,39
 403.333007812 142 403.333007812 142 401.333007812 110 c 0,40,41
 401.333007812 104 401.333007812 104 401.333007812 99 c 0,42,43
 401.333007812 77 401.333007812 77 407.333007812 69 c 0,44,45
 415.333007812 58 415.333007812 58 424.833007812 58 c 128,-1,46
 434.333007812 58 434.333007812 58 443.333007812 61 c 0,47,48
 454.333007812 65 454.333007812 65 464.333007812 73 c 1,49,50
 476.333007812 52 476.333007812 52 476.333007812 31 c 0,51,52
 476.333007812 6 476.333007812 6 452.333007812 0 c 1,53,54
 430.333007812 6 430.333007812 6 408.333007812 10 c 0,55,56
 389.333007812 14 389.333007812 14 367.333007812 17 c 0,57,58
 351.333007812 19 351.333007812 19 336.333007812 19 c 0,59,60
 331.333007812 19 331.333007812 19 327.333007812 19 c 0,61,62
 313.333007812 18 313.333007812 18 301.833007812 14 c 128,-1,63
 290.333007812 10 290.333007812 10 279.833007812 6 c 128,-1,64
 269.333007812 2 269.333007812 2 258.833007812 0.5 c 128,-1,65
 248.333007812 -1 248.333007812 -1 238.333007812 3 c 0,66,67
 231.333007812 7 231.333007812 7 226.333007812 13 c 0,68,69
 221.333007812 18 221.333007812 18 217.833007812 26.5 c 128,-1,70
 214.333007812 35 214.333007812 35 213.333007812 47 c 0,71,72
 212.333007812 63 212.333007812 63 220.333007812 66 c 128,-1,73
 228.333007812 69 228.333007812 69 238.333007812 68 c 128,-1,74
 248.333007812 67 248.333007812 67 256.833007812 65.5 c 128,-1,75
 265.333007812 64 265.333007812 64 265.333007812 71 c 0,76,77
 262.333007812 100 262.333007812 100 253.333007812 139.5 c 128,-1,78
 244.333007812 179 244.333007812 179 235.333007812 215 c 128,-1,79
 226.333007812 251 226.333007812 251 218.833007812 276 c 128,-1,80
 211.333007812 301 211.333007812 301 211.333007812 302 c 0,81,82
 200.333007812 350 200.333007812 350 192.833007812 383.5 c 128,-1,83
 185.333007812 417 185.333007812 417 180.833007812 440.5 c 128,-1,84
 176.333007812 464 176.333007812 464 173.333007812 480 c 128,-1,85
 170.333007812 496 170.333007812 496 167.333007812 510.5 c 128,-1,86
 164.333007812 525 164.333007812 525 161.333007812 539.5 c 128,-1,87
 158.333007812 554 158.333007812 554 154.333007812 574 c 0,88,89
 149.333007812 597 149.333007812 597 147.833007812 615.5 c 128,-1,90
 146.333007812 634 146.333007812 634 144.333007812 649.5 c 128,-1,91
 142.333007812 665 142.333007812 665 138.333007812 678.5 c 128,-1,92
 134.333007812 692 134.333007812 692 125.333007812 704 c 0,93,94
 121.333007812 709 121.333007812 709 113.333007812 708.5 c 128,-1,95
 105.333007812 708 105.333007812 708 96.8330078125 704 c 128,-1,96
 88.3330078125 700 88.3330078125 700 80.8330078125 695.5 c 128,-1,97
 73.3330078125 691 73.3330078125 691 70.3330078125 688 c 0,98,99
 59.3330078125 679 59.3330078125 679 53.3330078125 684 c 128,-1,100
 47.3330078125 689 47.3330078125 689 43.8330078125 699.5 c 128,-1,101
 40.3330078125 710 40.3330078125 710 38.3330078125 720.5 c 128,-1,102
 36.3330078125 731 36.3330078125 731 35.3330078125 733 c 0,103,104
 34.3330078125 734 34.3330078125 734 36.3330078125 737.5 c 128,-1,105
 38.3330078125 741 38.3330078125 741 44.8330078125 744.5 c 128,-1,106
 51.3330078125 748 51.3330078125 748 62.3330078125 750.5 c 128,-1,107
 73.3330078125 753 73.3330078125 753 90.3330078125 753 c 2,108,-1
 320.333007812 753 l 2,109,110
 319.333007812 752 319.333007812 752 311.833007812 747.5 c 128,-1,111
 304.333007812 743 304.333007812 743 292.833007812 735.5 c 128,-1,112
 281.333007812 728 281.333007812 728 268.833007812 718.5 c 128,-1,113
 256.333007812 709 256.333007812 709 246.333007812 700 c 0,0,1
EndSplineSet
Validated: 1
EndChar

StartChar: W
Encoding: 87 87 25
Width: 669
Flags: W
HStem: 0 21G<213.167 223.667 411.667 422.167 569.167 570.167> 708 43<529.499 612.231> 751 0.5<36.7358 65.7983>
VStem: 108.667 58<232.092 593.311> 117.667 52<478.577 667.34> 260.667 92<599.688 642> 261.667 50<425.313 547> 452.667 58<234.297 684.801>
LayerCount: 2
Fore
SplineSet
516.666992188 634 m 0,0,1
 514.666992188 581 514.666992188 581 513.166992188 545.5 c 128,-1,2
 511.666992188 510 511.666992188 510 510.666992188 482 c 0,3,4
 510.666992188 468 510.666992188 468 510.666992188 454 c 128,-1,5
 510.666992188 440 510.666992188 440 510.666992188 426 c 0,6,7
 510.666992188 400 510.666992188 400 512.666992188 365.5 c 128,-1,8
 514.666992188 331 514.666992188 331 517.166992188 284.5 c 128,-1,9
 519.666992188 238 519.666992188 238 523.666992188 169 c 0,10,11
 524.666992188 135 524.666992188 135 532.166992188 104.5 c 128,-1,12
 539.666992188 74 539.666992188 74 547.666992188 51.5 c 128,-1,13
 555.666992188 29 555.666992188 29 562.666992188 15 c 128,-1,14
 569.666992188 1 569.666992188 1 570.666992188 0 c 1,15,16
 567.666992188 1 567.666992188 1 551.666992188 4.5 c 128,-1,17
 535.666992188 8 535.666992188 8 517.666992188 11.5 c 128,-1,18
 499.666992188 15 499.666992188 15 485.666992188 18 c 0,19,-1
 471.666992188 20 l 1,20,21
 465.666992188 7 465.666992188 7 447.666992188 3 c 0,22,23
 431.666992188 -1 431.666992188 -1 412.666992188 -1 c 0,24,25
 410.666992188 0 410.666992188 0 408.666992188 0 c 0,26,27
 386.666992188 0 386.666992188 0 366.166992188 3 c 128,-1,28
 345.666992188 6 345.666992188 6 334.666992188 7 c 1,29,30
 342.666992188 9 342.666992188 9 351.666992188 16 c 128,-1,31
 360.666992188 23 360.666992188 23 368.666992188 31 c 0,32,33
 377.666992188 41 377.666992188 41 385.666992188 53 c 1,34,35
 384.666992188 61 384.666992188 61 379.166992188 99 c 128,-1,36
 373.666992188 137 373.666992188 137 365.666992188 190.5 c 128,-1,37
 357.666992188 244 357.666992188 244 348.166992188 304 c 128,-1,38
 338.666992188 364 338.666992188 364 330.666992188 416.5 c 128,-1,39
 322.666992188 469 322.666992188 469 317.666992188 505.5 c 128,-1,40
 312.666992188 542 312.666992188 542 311.666992188 547 c 1,41,42
 311.666992188 544 311.666992188 544 308.166992188 521 c 128,-1,43
 304.666992188 498 304.666992188 498 298.666992188 461 c 128,-1,44
 292.666992188 424 292.666992188 424 284.666992188 376.5 c 128,-1,45
 276.666992188 329 276.666992188 329 268.166992188 277.5 c 128,-1,46
 259.666992188 226 259.666992188 226 250.166992188 174 c 128,-1,47
 240.666992188 122 240.666992188 122 232.666992188 76 c 0,48,49
 230.666992188 65 230.666992188 65 232.166992188 52.5 c 128,-1,50
 233.666992188 40 233.666992188 40 235.666992188 29 c 0,51,52
 238.666992188 16 238.666992188 16 242.666992188 2 c 1,53,54
 229.666992188 0 229.666992188 0 217.666992188 0 c 0,55,56
 208.666992188 0 208.666992188 0 199.666992188 1 c 0,57,58
 182.666992188 3 182.666992188 3 164.666992188 10.5 c 128,-1,59
 146.666992188 18 146.666992188 18 136.666992188 38 c 1,60,61
 111.666992188 17 111.666992188 17 94.1669921875 9.5 c 128,-1,62
 76.6669921875 2 76.6669921875 2 65.6669921875 0 c 0,63,64
 52.6669921875 -2 52.6669921875 -2 44.6669921875 4 c 1,65,66
 59.6669921875 27 59.6669921875 27 71.6669921875 53 c 0,67,68
 82.6669921875 76 82.6669921875 76 91.1669921875 104.5 c 128,-1,69
 99.6669921875 133 99.6669921875 133 101.666992188 163 c 0,70,71
 104.666992188 253 104.666992188 253 108.666992188 335 c 0,72,73
 109.666992188 370 109.666992188 370 111.166992188 406.5 c 128,-1,74
 112.666992188 443 112.666992188 443 114.166992188 477.5 c 128,-1,75
 115.666992188 512 115.666992188 512 116.666992188 542 c 128,-1,76
 117.666992188 572 117.666992188 572 117.666992188 594 c 0,77,78
 111.666992188 635 111.666992188 635 96.6669921875 665.5 c 128,-1,79
 81.6669921875 696 81.6669921875 696 66.6669921875 715.5 c 128,-1,80
 51.6669921875 735 51.6669921875 735 41.6669921875 744 c 128,-1,81
 31.6669921875 753 31.6669921875 753 36.6669921875 751 c 0,82,83
 38.6669921875 751 38.6669921875 751 66.6669921875 751.5 c 128,-1,84
 94.6669921875 752 94.6669921875 752 129.666992188 752 c 2,85,-1
 220.666992188 752 l 1,86,87
 216.666992188 738 216.666992188 738 211.666992188 724 c 0,88,89
 206.666992188 712 206.666992188 712 200.666992188 698 c 128,-1,90
 194.666992188 684 194.666992188 684 185.666992188 673 c 0,91,92
 181.666992188 667 181.666992188 667 178.166992188 645 c 128,-1,93
 174.666992188 623 174.666992188 623 172.666992188 590.5 c 128,-1,94
 170.666992188 558 170.666992188 558 169.666992188 519 c 128,-1,95
 168.666992188 480 168.666992188 480 168.166992188 440 c 128,-1,96
 167.666992188 400 167.666992188 400 166.666992188 362 c 0,97,98
 166.666992188 343 166.666992188 343 166.666992188 326.5 c 128,-1,99
 166.666992188 310 166.666992188 310 166.666992188 295 c 0,100,101
 166.666992188 266 166.666992188 266 167.666992188 248 c 0,102,-1
 168.666992188 231 l 2,103,104
 169.666992188 232 169.666992188 232 186.166992188 266 c 128,-1,105
 202.666992188 300 202.666992188 300 221.166992188 357 c 128,-1,106
 239.666992188 414 239.666992188 414 252.666992188 488 c 0,107,108
 261.666992188 541 261.666992188 541 261.666992188 599 c 0,109,110
 261.666992188 621 261.666992188 621 260.666992188 643 c 0,111,112
 260.666992188 644 260.666992188 644 275.166992188 644 c 128,-1,113
 289.666992188 644 289.666992188 644 306.666992188 643.5 c 128,-1,114
 323.666992188 643 323.666992188 643 338.666992188 642 c 0,115,-1
 352.666992188 642 l 1,116,117
 355.666992188 592 355.666992188 592 363.166992188 542 c 128,-1,118
 370.666992188 492 370.666992188 492 380.666992188 446.5 c 128,-1,119
 390.666992188 401 390.666992188 401 402.166992188 362 c 128,-1,120
 413.666992188 323 413.666992188 323 422.666992188 294.5 c 128,-1,121
 431.666992188 266 431.666992188 266 438.166992188 250 c 128,-1,122
 444.666992188 234 444.666992188 234 445.666992188 234 c 2,123,124
 446.666992188 253 l 0,125,126
 447.666992188 272 447.666992188 272 449.166992188 302.5 c 128,-1,127
 450.666992188 333 450.666992188 333 451.666992188 372.5 c 128,-1,128
 452.666992188 412 452.666992188 412 452.666992188 453 c 0,129,130
 452.666992188 473 452.666992188 473 452.666992188 494 c 0,131,132
 452.666992188 514 452.666992188 514 452.666992188 534 c 0,133,134
 452.666992188 574 452.666992188 574 450.666992188 606 c 128,-1,135
 448.666992188 638 448.666992188 638 444.666992188 659 c 128,-1,136
 440.666992188 680 440.666992188 680 434.666992188 683 c 0,137,138
 422.666992188 689 422.666992188 689 415.666992188 700.5 c 128,-1,139
 408.666992188 712 408.666992188 712 405.166992188 723 c 128,-1,140
 401.666992188 734 401.666992188 734 400.666992188 743 c 0,141,-1
 398.666992188 752 l 1,142,143
 432.666992188 751 432.666992188 751 466.666992188 751 c 2,144,-1
 594.666992188 751 l 2,145,146
 604.666992188 751 604.666992188 751 613.666992188 742 c 128,-1,147
 622.666992188 733 622.666992188 733 627.166992188 720 c 128,-1,148
 631.666992188 707 631.666992188 707 630.166992188 694 c 128,-1,149
 628.666992188 681 628.666992188 681 618.666992188 673 c 1,150,151
 619.666992188 677 619.666992188 677 615.166992188 683 c 128,-1,152
 610.666992188 689 610.666992188 689 603.166992188 695 c 128,-1,153
 595.666992188 701 595.666992188 701 586.166992188 705 c 128,-1,154
 576.666992188 709 576.666992188 709 567.666992188 708 c 0,155,156
 539.666992188 704 539.666992188 704 529.166992188 687 c 128,-1,157
 518.666992188 670 518.666992188 670 516.666992188 634 c 0,0,1
EndSplineSet
Validated: 1
EndChar

StartChar: X
Encoding: 88 88 26
Width: 645
Flags: W
HStem: 0.5 79.5<518.004 579.936> 732 20G<451.639 570>
VStem: 381 199<9.88428 79.9277>
LayerCount: 2
Fore
SplineSet
570 752 m 1,0,-1
 348 365 l 1,1,2
 380 310 380 310 412 258 c 0,3,4
 420 246 420 246 472 166 c 0,5,6
 497 128 497 128 518 102 c 0,7,8
 536 80 536 80 542 80 c 0,9,10
 543 80 543 80 543 80 c 0,11,-1
 544 80 l 0,12,13
 562 83 562 83 570 84 c 128,-1,14
 578 85 578 85 580 84 c 128,-1,15
 582 83 582 83 581 79.5 c 128,-1,16
 580 76 580 76 580 69 c 0,17,18
 581 48 581 48 587 34.5 c 128,-1,19
 593 21 593 21 599 13.5 c 128,-1,20
 605 6 605 6 607 3 c 128,-1,21
 609 0 609 0 602 0 c 0,22,23
 589 0 589 0 562.5 0 c 128,-1,24
 536 0 536 0 504 0 c 128,-1,25
 472 0 472 0 439 0.5 c 128,-1,26
 406 1 406 1 381 1 c 0,27,28
 372 1 372 1 372 4 c 128,-1,29
 372 7 372 7 374 16 c 0,30,31
 378 24 378 24 380 39 c 0,32,33
 381 46 381 46 381 55 c 0,34,35
 381 66 381 66 379 79 c 0,36,37
 377 95 377 95 380.5 100.5 c 128,-1,38
 384 106 384 106 391 105 c 128,-1,39
 398 104 398 104 406 98.5 c 128,-1,40
 414 93 414 93 421 88 c 128,-1,41
 428 83 428 83 432 81 c 128,-1,42
 436 79 436 79 434 84 c 0,43,44
 409 136 409 136 378 191 c 128,-1,45
 347 246 347 246 312 302 c 1,46,-1
 139 0 l 1,47,-1
 38 1 l 1,48,-1
 257 388 l 1,49,50
 205 469 205 469 158.5 538.5 c 128,-1,51
 112 608 112 608 83 657 c 0,52,53
 82 664 82 664 79.5 662.5 c 128,-1,54
 77 661 77 661 73 656.5 c 128,-1,55
 69 652 69 652 64 647.5 c 128,-1,56
 59 643 59 643 54 644.5 c 128,-1,57
 49 646 49 646 44.5 656 c 128,-1,58
 40 666 40 666 37 691 c 0,59,60
 34 709 34 709 40 719.5 c 128,-1,61
 46 730 46 730 56 736 c 128,-1,62
 66 742 66 742 78.5 744.5 c 128,-1,63
 91 747 91 747 101 750 c 0,64,65
 118 754 118 754 126.5 747 c 128,-1,66
 135 740 135 740 140 729.5 c 128,-1,67
 145 719 145 719 149 708 c 128,-1,68
 153 697 153 697 160 692 c 1,69,70
 180 695 180 695 193 696 c 0,71,72
 204 697 204 697 211.5 695.5 c 128,-1,73
 219 694 219 694 212 688 c 0,74,75
 205 681 205 681 209 660 c 128,-1,76
 213 639 213 639 225 608 c 128,-1,77
 237 577 237 577 255 538.5 c 128,-1,78
 273 500 273 500 296 458 c 1,79,-1
 463 752 l 1,80,-1
 570 752 l 1,0,-1
EndSplineSet
Validated: 1
EndChar

StartChar: Y
Encoding: 89 89 27
Width: 653
Flags: W
HStem: 0 55.5<183.797 289.152> 732 20G<100.654 339.154 383.154 615.154>
VStem: 284.154 107<58.9692 339.504>
LayerCount: 2
Fore
SplineSet
411.154296875 685 m 0,0,1
 408.154296875 692 408.154296875 692 399.154296875 703.5 c 128,-1,2
 390.154296875 715 390.154296875 715 383.654296875 726 c 128,-1,3
 377.154296875 737 377.154296875 737 376.654296875 744.5 c 128,-1,4
 376.154296875 752 376.154296875 752 390.154296875 752 c 2,5,-1
 615.154296875 752 l 1,6,7
 613.154296875 745 613.154296875 745 610.154296875 740 c 0,8,9
 608.154296875 735 608.154296875 735 606.154296875 730 c 128,-1,10
 604.154296875 725 604.154296875 725 604.154296875 720 c 0,11,12
 603.154296875 711 603.154296875 711 594.654296875 706.5 c 128,-1,13
 586.154296875 702 586.154296875 702 575.154296875 698.5 c 128,-1,14
 564.154296875 695 564.154296875 695 554.654296875 690.5 c 128,-1,15
 545.154296875 686 545.154296875 686 542.154296875 677 c 0,16,17
 504.154296875 585 504.154296875 585 473.154296875 506 c 0,18,19
 459.154296875 472 459.154296875 472 446.154296875 438 c 128,-1,20
 433.154296875 404 433.154296875 404 422.154296875 373.5 c 128,-1,21
 411.154296875 343 411.154296875 343 402.654296875 319.5 c 128,-1,22
 394.154296875 296 394.154296875 296 391.154296875 283 c 0,23,24
 392.154296875 249 392.154296875 249 393.154296875 211.5 c 128,-1,25
 394.154296875 174 394.154296875 174 395.654296875 141.5 c 128,-1,26
 397.154296875 109 397.154296875 109 399.654296875 85.5 c 128,-1,27
 402.154296875 62 402.154296875 62 406.154296875 58 c 0,28,29
 413.154296875 50 413.154296875 50 428.654296875 51 c 128,-1,30
 444.154296875 52 444.154296875 52 460.654296875 56 c 128,-1,31
 477.154296875 60 477.154296875 60 489.654296875 63 c 128,-1,32
 502.154296875 66 502.154296875 66 503.154296875 62 c 0,33,34
 504.154296875 50 504.154296875 50 510.154296875 38.5 c 128,-1,35
 516.154296875 27 516.154296875 27 520.154296875 19 c 128,-1,36
 524.154296875 11 524.154296875 11 524.154296875 5.5 c 128,-1,37
 524.154296875 0 524.154296875 0 513.154296875 0 c 0,38,39
 495.154296875 0 495.154296875 0 458.654296875 0 c 128,-1,40
 422.154296875 0 422.154296875 0 378.154296875 0 c 128,-1,41
 334.154296875 0 334.154296875 0 287.654296875 0 c 128,-1,42
 241.154296875 0 241.154296875 0 202.154296875 0 c 0,43,44
 188.154296875 0 188.154296875 0 183.654296875 3.5 c 128,-1,45
 179.154296875 7 179.154296875 7 178.154296875 14 c 128,-1,46
 177.154296875 21 177.154296875 21 177.154296875 32 c 128,-1,47
 177.154296875 43 177.154296875 43 172.154296875 58 c 0,48,49
 168.154296875 68 168.154296875 68 175.654296875 71 c 128,-1,50
 183.154296875 74 183.154296875 74 196.154296875 72 c 128,-1,51
 209.154296875 70 209.154296875 70 225.154296875 67 c 128,-1,52
 241.154296875 64 241.154296875 64 255.654296875 60.5 c 128,-1,53
 270.154296875 57 270.154296875 57 279.654296875 55.5 c 128,-1,54
 289.154296875 54 289.154296875 54 289.154296875 58 c 0,55,56
 289.154296875 112 289.154296875 112 288.654296875 142 c 128,-1,57
 288.154296875 172 288.154296875 172 287.654296875 192.5 c 128,-1,58
 287.154296875 213 287.154296875 213 286.154296875 231.5 c 128,-1,59
 285.154296875 250 285.154296875 250 284.154296875 281 c 2,60,-1
 284.154296875 282 l 1,61,62
 255.154296875 360 255.154296875 360 235.154296875 415.5 c 128,-1,63
 215.154296875 471 215.154296875 471 198.654296875 516.5 c 128,-1,64
 182.154296875 562 182.154296875 562 165.154296875 604.5 c 128,-1,65
 148.154296875 647 148.154296875 647 125.154296875 699 c 0,66,67
 123.154296875 705 123.154296875 705 115.654296875 704 c 128,-1,68
 108.154296875 703 108.154296875 703 99.154296875 699 c 128,-1,69
 90.154296875 695 90.154296875 695 81.654296875 690.5 c 128,-1,70
 73.154296875 686 73.154296875 686 70.154296875 683 c 0,71,72
 59.154296875 674 59.154296875 674 53.154296875 679 c 128,-1,73
 47.154296875 684 47.154296875 684 43.654296875 694.5 c 128,-1,74
 40.154296875 705 40.154296875 705 38.154296875 715.5 c 128,-1,75
 36.154296875 726 36.154296875 726 35.154296875 728 c 0,76,77
 34.154296875 729 34.154296875 729 39.654296875 733 c 128,-1,78
 45.154296875 737 45.154296875 737 55.154296875 741.5 c 128,-1,79
 65.154296875 746 65.154296875 746 78.654296875 749 c 128,-1,80
 92.154296875 752 92.154296875 752 109.154296875 752 c 2,81,-1
 339.154296875 752 l 2,82,83
 337.154296875 751 337.154296875 751 325.654296875 745.5 c 128,-1,84
 314.154296875 740 314.154296875 740 300.154296875 731.5 c 128,-1,85
 286.154296875 723 286.154296875 723 271.154296875 713.5 c 128,-1,86
 256.154296875 704 256.154296875 704 246.154296875 695 c 0,87,88
 241.154296875 690 241.154296875 690 241.154296875 678 c 0,89,90
 241.154296875 672 241.154296875 672 242.154296875 664 c 0,91,92
 246.154296875 640 246.154296875 640 255.654296875 607 c 128,-1,93
 265.154296875 574 265.154296875 574 279.154296875 537 c 128,-1,94
 293.154296875 500 293.154296875 500 305.654296875 467 c 128,-1,95
 318.154296875 434 318.154296875 434 328.154296875 409.5 c 128,-1,96
 338.154296875 385 338.154296875 385 339.154296875 378 c 1,97,98
 340.154296875 388 340.154296875 388 348.654296875 409 c 128,-1,99
 357.154296875 430 357.154296875 430 368.154296875 457.5 c 128,-1,100
 379.154296875 485 379.154296875 485 391.154296875 516.5 c 128,-1,101
 403.154296875 548 403.154296875 548 411.154296875 579 c 0,102,103
 420.154296875 614 420.154296875 614 420.154296875 642 c 0,104,105
 420.154296875 667 420.154296875 667 411.154296875 685 c 0,0,1
EndSplineSet
Validated: 1
EndChar

StartChar: Z
Encoding: 90 90 28
Width: 563
Flags: W
HStem: 0 57<150.315 375.271> 332 56<119 187 308 389.667> 680 72<193.222 344.684>
VStem: 124 51<566.939 662.624> 399 60<80.3438 195.663>
LayerCount: 2
Fore
SplineSet
411 337 m 1,0,-1
 281 334 l 1,1,-1
 150 60 l 1,2,3
 160 58 160 58 180 58 c 0,4,5
 185 58 185 58 190 57 c 0,6,7
 195 57 195 57 200 57 c 0,8,9
 207 56 207 56 223 58 c 0,10,11
 247 60 247 60 272.5 62.5 c 128,-1,12
 298 65 298 65 319.5 67.5 c 128,-1,13
 341 70 341 70 357 73.5 c 128,-1,14
 373 77 373 77 377 80 c 0,15,16
 396 92 396 92 398 111 c 0,17,18
 399 116 399 116 399 121 c 0,19,20
 399 136 399 136 394 151 c 0,21,22
 388 172 388 172 378.5 192.5 c 128,-1,23
 369 213 369 213 365 227 c 0,24,25
 363 235 363 235 371 237 c 128,-1,26
 379 239 379 239 391.5 237.5 c 128,-1,27
 404 236 404 236 419.5 231.5 c 128,-1,28
 435 227 435 227 448 223 c 128,-1,29
 461 219 461 219 468.5 216.5 c 128,-1,30
 476 214 476 214 479 213 c 256,31,-1
 475 202 l 0,32,33
 471 191 471 191 467 173.5 c 128,-1,34
 463 156 463 156 461 136 c 0,35,36
 460 127 460 127 459 119 c 0,37,38
 459 109 459 109 461 100 c 0,39,40
 465 83 465 83 475.5 66 c 128,-1,41
 486 49 486 49 497 34 c 0,42,43
 510 16 510 16 525 0 c 1,44,-1
 35 0 l 1,45,-1
 187 332 l 1,46,-1
 115 331 l 1,47,-1
 119 386 l 1,48,-1
 213 388 l 1,49,-1
 345 676 l 1,50,51
 335 680 335 680 312.5 680 c 128,-1,52
 290 680 290 680 266 677.5 c 128,-1,53
 242 675 242 675 221 671 c 128,-1,54
 200 667 200 667 193 663 c 0,55,56
 175 651 175 651 175 634 c 128,-1,57
 175 617 175 617 182.5 598 c 128,-1,58
 190 579 190 579 200.5 560.5 c 128,-1,59
 211 542 211 542 215 529 c 0,60,61
 218 517 218 517 201 517.5 c 128,-1,62
 184 518 184 518 163 524 c 128,-1,63
 142 530 142 530 123 536 c 0,64,-1
 105 543 l 256,65,-1
 109 554 l 0,66,67
 113 565 113 565 117 582 c 0,68,69
 121 598 121 598 123 618 c 0,70,71
 124 626 124 626 124 633 c 0,72,73
 124 644 124 644 122 654 c 0,74,75
 118 669 118 669 108 686.5 c 128,-1,76
 98 704 98 704 87 718 c 0,77,78
 74 735 74 735 59 752 c 1,79,-1
 479 752 l 1,80,-1
 308 391 l 1,81,-1
 406 394 l 1,82,-1
 411 337 l 1,0,-1
EndSplineSet
Validated: 1
EndChar

StartChar: underscore
Encoding: 95 95 29
Width: 881
Flags: W
HStem: -226 55<61 817>
LayerCount: 2
Fore
SplineSet
823 -224 m 1,0,-1
 57 -226 l 1,1,-1
 61 -171 l 1,2,-1
 817 -167 l 1,3,-1
 823 -224 l 1,0,-1
EndSplineSet
Validated: 1
EndChar

StartChar: grave
Encoding: 96 96 30
Width: 303
Flags: W
HStem: 538 127<62.922 186.977>
VStem: 192.385 67<465.836 553.282>
LayerCount: 2
Fore
SplineSet
187.384765625 554 m 1,0,1
 174.384765625 550 174.384765625 550 154.384765625 544 c 0,2,3
 136.384765625 538 136.384765625 538 117.384765625 538 c 0,4,5
 116.384765625 538 116.384765625 538 114.384765625 538 c 0,6,7
 94.384765625 538 94.384765625 538 74.884765625 549.5 c 128,-1,8
 55.384765625 561 55.384765625 561 43.384765625 591 c 0,9,10
 40.384765625 601 40.384765625 601 43.884765625 613.5 c 128,-1,11
 47.384765625 626 47.384765625 626 56.884765625 637 c 128,-1,12
 66.384765625 648 66.384765625 648 80.384765625 656 c 0,13,14
 97.384765625 664 97.384765625 664 113.384765625 664 c 0,15,16
 117.384765625 664 117.384765625 664 121.384765625 665 c 0,17,18
 124.384765625 665 124.384765625 665 128.384765625 665 c 0,19,20
 140.384765625 666 140.384765625 666 154.384765625 662 c 0,21,22
 179.384765625 655 179.384765625 655 194.384765625 648 c 0,23,24
 213.384765625 637 213.384765625 637 225.884765625 624 c 128,-1,25
 238.384765625 611 238.384765625 611 242.384765625 596 c 0,26,27
 259.384765625 525 259.384765625 525 259.384765625 490 c 0,28,29
 259.384765625 486 259.384765625 486 259.384765625 484 c 0,30,31
 257.384765625 459 257.384765625 459 240.384765625 458 c 0,32,33
 234.384765625 458 234.384765625 458 226.384765625 461 c 0,34,35
 197.384765625 471 197.384765625 471 192.384765625 481.5 c 128,-1,36
 187.384765625 492 187.384765625 492 190.384765625 503.5 c 128,-1,37
 193.384765625 515 193.384765625 515 196.884765625 527.5 c 128,-1,38
 200.384765625 540 200.384765625 540 187.384765625 554 c 1,0,1
EndSplineSet
Validated: 1
EndChar

StartChar: a
Encoding: 97 97 31
Width: 501
Flags: W
HStem: 4 56<154.844 270.304> 363 57<162.992 300.998>
VStem: 37 98<93.1723 148.682> 324 67<245.492 298.996 299 339.712> 334 57.5<97.4392 194>
LayerCount: 2
Fore
SplineSet
178 4 m 0,0,1
 130 4 130 4 95.5 30.5 c 128,-1,2
 61 57 61 57 42 92 c 0,3,4
 37 102 37 102 37 112 c 0,5,6
 37 125 37 125 46 137 c 0,7,8
 62 158 62 158 93 175 c 128,-1,9
 124 192 124 192 163.5 206 c 128,-1,10
 203 220 203 220 238.5 229.5 c 128,-1,11
 274 239 274 239 298 244.5 c 128,-1,12
 322 250 322 250 323 251 c 0,13,14
 323 252 323 252 324 266 c 0,15,16
 324 269 324 269 324 272 c 0,17,18
 324 284 324 284 321 299 c 0,19,20
 317 317 317 317 306 334.5 c 128,-1,21
 295 352 295 352 272 359 c 0,22,23
 259 363 259 363 246 363 c 0,24,25
 239 363 239 363 231 362 c 0,26,27
 209 359 209 359 188 351.5 c 128,-1,28
 167 344 167 344 147 333 c 128,-1,29
 127 322 127 322 111.5 312.5 c 128,-1,30
 96 303 96 303 86.5 296.5 c 128,-1,31
 77 290 77 290 77 291 c 256,32,33
 77 292 77 292 69.5 298 c 128,-1,34
 62 304 62 304 56.5 313 c 128,-1,35
 51 322 51 322 51.5 334 c 128,-1,36
 52 346 52 346 69 359.5 c 128,-1,37
 86 373 86 373 124 387 c 128,-1,38
 162 401 162 401 230 415 c 0,39,40
 256 420 256 420 277 420 c 0,41,42
 289 420 289 420 301 418 c 0,43,44
 329 413 329 413 347.5 400 c 128,-1,45
 366 387 366 387 375 369.5 c 128,-1,46
 384 352 384 352 387.5 336.5 c 128,-1,47
 391 321 391 321 391 310 c 0,48,-1
 391 299 l 2,49,50
 390 299 390 299 390.5 283.5 c 128,-1,51
 391 268 391 268 391 244 c 128,-1,52
 391 220 391 220 391.5 192.5 c 128,-1,53
 392 165 392 165 392.5 140.5 c 128,-1,54
 393 116 393 116 394 99 c 128,-1,55
 395 82 395 82 394 80 c 0,56,57
 398 77 398 77 408.5 71.5 c 128,-1,58
 419 66 419 66 429.5 59.5 c 128,-1,59
 440 53 440 53 449 45.5 c 128,-1,60
 458 38 458 38 459 32 c 0,61,62
 459 28 459 28 458 24 c 128,-1,63
 457 20 457 20 456 15 c 0,64,65
 454 10 454 10 453 4 c 1,66,-1
 350 4 l 2,67,68
 341 4 341 4 339 11 c 128,-1,69
 337 18 337 18 338.5 27.5 c 128,-1,70
 340 37 340 37 344 47 c 128,-1,71
 348 57 348 57 351 62 c 1,72,73
 341 57 341 57 320.5 47 c 128,-1,74
 300 37 300 37 275 27.5 c 128,-1,75
 250 18 250 18 224 11 c 128,-1,76
 198 4 198 4 178 4 c 0,0,1
328 194 m 256,77,78
 327 194 327 194 313 193 c 128,-1,79
 299 192 299 192 276.5 188.5 c 128,-1,80
 254 185 254 185 228 178.5 c 128,-1,81
 202 172 202 172 180.5 162.5 c 128,-1,82
 159 153 159 153 146 139 c 0,83,84
 135 128 135 128 135 113 c 0,85,86
 135 110 135 110 136 106 c 1,87,88
 151 80 151 80 171 70 c 0,89,90
 190 61 190 61 211 60 c 0,91,92
 212 60 212 60 213 60 c 0,93,94
 235 60 235 60 256.5 68.5 c 128,-1,95
 278 77 278 77 295.5 87 c 128,-1,96
 313 97 313 97 323.5 105 c 128,-1,97
 334 113 334 113 334 114 c 256,98,99
 334 115 334 115 333 127.5 c 128,-1,100
 332 140 332 140 330.5 155 c 128,-1,101
 329 170 329 170 329 182 c 0,102,-1
 328 194 l 256,77,78
EndSplineSet
Validated: 1
EndChar

StartChar: b
Encoding: 98 98 32
Width: 577
Flags: W
HStem: 1 75<40.7594 94.3785> 1 68<152.617 388.076> 1 50<153.437 394.952> 320 64<159.181 392.713>
VStem: 91.8809 57.5<70.6838 309.093 359 630.827> 457.381 75<110.267 263.418>
LayerCount: 2
Fore
SplineSet
94.380859375 69 m 0,0,1
 94.380859375 123 94.380859375 123 93.880859375 162 c 128,-1,2
 93.380859375 201 93.380859375 201 92.880859375 232 c 128,-1,3
 92.380859375 263 92.380859375 263 91.880859375 290 c 128,-1,4
 91.380859375 317 91.380859375 317 91.380859375 348 c 0,5,6
 91.380859375 383 91.380859375 383 91.380859375 419.5 c 128,-1,7
 91.380859375 456 91.380859375 456 91.380859375 496.5 c 128,-1,8
 91.380859375 537 91.380859375 537 91.380859375 583 c 128,-1,9
 91.380859375 629 91.380859375 629 90.380859375 682 c 0,10,11
 89.380859375 689 89.380859375 689 84.880859375 684.5 c 128,-1,12
 80.380859375 680 80.380859375 680 74.380859375 676.5 c 128,-1,13
 68.380859375 673 68.380859375 673 62.380859375 676.5 c 128,-1,14
 56.380859375 680 56.380859375 680 52.380859375 703 c 0,15,16
 51.380859375 708 51.380859375 708 51.380859375 712 c 0,17,18
 51.380859375 728 51.380859375 728 63.380859375 736 c 0,19,20
 78.380859375 748 78.380859375 748 94.380859375 751 c 0,21,22
 108.380859375 753 108.380859375 753 120.380859375 746 c 128,-1,23
 132.380859375 739 132.380859375 739 142.380859375 729 c 128,-1,24
 152.380859375 719 152.380859375 719 160.880859375 709.5 c 128,-1,25
 169.380859375 700 169.380859375 700 175.380859375 697 c 0,26,27
 191.380859375 699 191.380859375 699 202.380859375 700 c 0,28,29
 211.380859375 701 211.380859375 701 217.380859375 700 c 128,-1,30
 223.380859375 699 223.380859375 699 218.380859375 695 c 0,31,32
 197.380859375 680 197.380859375 680 183.380859375 655.5 c 128,-1,33
 169.380859375 631 169.380859375 631 160.880859375 602.5 c 128,-1,34
 152.380859375 574 152.380859375 574 149.380859375 543.5 c 128,-1,35
 146.380859375 513 146.380859375 513 146.380859375 485 c 2,36,-1
 148.380859375 359 l 1,37,38
 171.380859375 366 171.380859375 366 209.380859375 374 c 128,-1,39
 247.380859375 382 247.380859375 382 291.380859375 384 c 0,40,41
 291.380859375 384 291.380859375 384 310.380859375 384 c 0,42,43
 344.380859375 384 344.380859375 384 379.380859375 378 c 0,44,45
 423.380859375 370 423.380859375 370 458.380859375 347 c 128,-1,46
 493.380859375 324 493.380859375 324 514.380859375 281 c 0,47,48
 532.380859375 243 532.380859375 243 532.380859375 185 c 0,49,50
 532.380859375 177 532.380859375 177 532.380859375 168 c 0,51,52
 530.380859375 113 530.380859375 113 500.880859375 79.5 c 128,-1,53
 471.380859375 46 471.380859375 46 426.880859375 28.5 c 128,-1,54
 382.380859375 11 382.380859375 11 330.380859375 5.5 c 128,-1,55
 278.380859375 0 278.380859375 0 232.380859375 0 c 2,56,-1
 222.380859375 0 l 2,57,58
 217.380859375 0 217.380859375 0 213.380859375 0 c 128,-1,59
 209.380859375 0 209.380859375 0 204.380859375 1 c 0,60,61
 189.380859375 1 189.380859375 1 169.380859375 1 c 128,-1,62
 149.380859375 1 149.380859375 1 127.880859375 1 c 128,-1,63
 106.380859375 1 106.380859375 1 85.380859375 1 c 128,-1,64
 64.380859375 1 64.380859375 1 47.380859375 1 c 0,65,66
 40.380859375 1 40.380859375 1 39.380859375 4.5 c 128,-1,67
 38.380859375 8 38.380859375 8 38.880859375 15.5 c 128,-1,68
 39.380859375 23 39.380859375 23 40.380859375 34 c 128,-1,69
 41.380859375 45 41.380859375 45 38.380859375 60 c 0,70,71
 36.380859375 75 36.380859375 75 44.880859375 76 c 128,-1,72
 53.380859375 77 53.380859375 77 64.380859375 73.5 c 128,-1,73
 75.380859375 70 75.380859375 70 84.880859375 66.5 c 128,-1,74
 94.380859375 63 94.380859375 63 94.380859375 69 c 0,0,1
154.380859375 69 m 256,75,76
 158.380859375 69 158.380859375 69 177.380859375 64 c 0,77,78
 201.380859375 58 201.380859375 58 234.380859375 54 c 0,79,80
 260.380859375 51 260.380859375 51 282.380859375 51 c 0,81,82
 287.380859375 51 287.380859375 51 293.380859375 51 c 0,83,84
 300.380859375 51 300.380859375 51 307.380859375 51 c 0,85,86
 346.380859375 52 346.380859375 52 379.880859375 65.5 c 128,-1,87
 413.380859375 79 413.380859375 79 435.380859375 109 c 128,-1,88
 457.380859375 139 457.380859375 139 457.380859375 192 c 0,89,90
 456.380859375 237 456.380859375 237 435.380859375 263.5 c 128,-1,91
 414.380859375 290 414.380859375 290 381.880859375 303.5 c 128,-1,92
 349.380859375 317 349.380859375 317 311.380859375 319 c 0,93,94
 294.380859375 320 294.380859375 320 278.380859375 320 c 0,95,96
 258.380859375 320 258.380859375 320 239.380859375 318 c 0,97,98
 205.380859375 316 205.380859375 316 180.380859375 311 c 128,-1,99
 155.380859375 306 155.380859375 306 149.380859375 304 c 1,100,-1
 149.380859375 294 l 2,101,102
 150.380859375 282 150.380859375 282 150.880859375 261 c 128,-1,103
 151.380859375 240 151.380859375 240 151.380859375 215 c 128,-1,104
 151.380859375 190 151.380859375 190 151.880859375 163.5 c 128,-1,105
 152.380859375 137 152.380859375 137 152.380859375 116 c 128,-1,106
 152.380859375 95 152.380859375 95 152.880859375 82 c 128,-1,107
 153.380859375 69 153.380859375 69 154.380859375 69 c 256,75,76
EndSplineSet
Validated: 1
EndChar

StartChar: c
Encoding: 99 99 33
Width: 453
Flags: W
HStem: 1 51<169 263> 357 49<269.047 397.028> 374 47<169.814 377.964>
VStem: 38 63<128.524 304.465>
LayerCount: 2
Fore
SplineSet
38 196 m 256,0,1
 38 202 38 202 38 208 c 0,2,3
 38 261 38 261 54 298 c 0,4,5
 72 340 72 340 102 366 c 0,6,7
 133 392 133 392 171 404 c 0,8,9
 213 417 213 417 249 420 c 0,10,11
 262 421 262 421 273 421 c 0,12,13
 276 421 276 421 283 421 c 0,14,15
 293 421 293 421 325 418 c 0,16,17
 361 414 361 414 387 406 c 0,18,19
 400 401 400 401 400.5 393 c 128,-1,20
 401 385 401 385 396 377 c 0,21,22
 384 357 384 357 378 357 c 0,23,24
 377 357 377 357 355 363 c 0,25,26
 334 368 334 368 302 372 c 0,27,28
 286 374 286 374 268.5 374 c 128,-1,29
 251 374 251 374 233 372 c 0,30,31
 196 368 196 368 165.5 350 c 128,-1,32
 135 332 135 332 117 294 c 0,33,34
 102 263 102 263 101 214 c 0,35,36
 101 203 101 203 102 192 c 1,37,38
 112 145 112 145 129.5 116 c 128,-1,39
 147 87 147 87 169 72 c 0,40,41
 191 58 191 58 215 54 c 0,42,43
 226 52 226 52 237 52 c 0,44,-1
 263 54 l 0,45,46
 318 63 318 63 383 105 c 1,47,48
 397 105 397 105 400 97 c 128,-1,49
 403 89 403 89 409 81 c 0,50,51
 415 72 415 72 402.5 59 c 128,-1,52
 390 46 390 46 365.5 34 c 128,-1,53
 341 22 341 22 308 12.5 c 128,-1,54
 275 3 275 3 239 1 c 0,55,56
 232 1 232 1 225 1 c 0,57,-1
 169 6 l 0,58,59
 133 14 133 14 105 36.5 c 128,-1,60
 77 59 77 59 58.5 97.5 c 128,-1,61
 40 136 40 136 38 196 c 256,0,1
EndSplineSet
Validated: 1
EndChar

StartChar: d
Encoding: 100 100 34
Width: 586
Flags: W
HStem: 0 50<173.151 425.963> 0.5 60.5<198.834 426> 318 68<237.696 415>
VStem: 37 78<98.4626 233.868> 416 69.5<65.1335 318 386 653.232> 426 61<65.1335 317.609>
LayerCount: 2
Fore
SplineSet
41 143 m 0,0,1
 37 163 37 163 37 182 c 0,2,3
 37 210 37 210 47 234 c 0,4,5
 63 272 63 272 95 299 c 128,-1,6
 127 326 127 326 170.5 343 c 128,-1,7
 214 360 214 360 258.5 369 c 128,-1,8
 303 378 303 378 344.5 381.5 c 128,-1,9
 386 385 386 385 415 386 c 1,10,11
 415 449 415 449 414.5 521 c 128,-1,12
 414 593 414 593 413 678 c 0,13,14
 413 685 413 685 408 680.5 c 128,-1,15
 403 676 403 676 397 672.5 c 128,-1,16
 391 669 391 669 385 672.5 c 128,-1,17
 379 676 379 676 375 699 c 0,18,19
 374 704 374 704 374 708 c 0,20,21
 374 724 374 724 385 735 c 0,22,23
 399 749 399 749 416 752 c 0,24,25
 430 754 430 754 442.5 746.5 c 128,-1,26
 455 739 455 739 465 728 c 128,-1,27
 475 717 475 717 483.5 706.5 c 128,-1,28
 492 696 492 696 498 693 c 0,29,30
 514 695 514 695 525 696 c 0,31,32
 534 697 534 697 539.5 696 c 128,-1,33
 545 695 545 695 539 691 c 0,34,35
 518 676 518 676 507 652.5 c 128,-1,36
 496 629 496 629 491 602 c 128,-1,37
 486 575 486 575 485 546 c 128,-1,38
 484 517 484 517 484 489 c 0,39,40
 485 414 485 414 485.5 340.5 c 128,-1,41
 486 267 486 267 486 207 c 128,-1,42
 486 147 486 147 487 108 c 128,-1,43
 488 69 488 69 491 65 c 0,44,45
 495 57 495 57 503.5 54 c 128,-1,46
 512 51 512 51 520.5 49.5 c 128,-1,47
 529 48 529 48 535.5 47 c 128,-1,48
 542 46 542 46 542 42 c 0,49,50
 543 30 543 30 544.5 22 c 128,-1,51
 546 14 546 14 546 9 c 128,-1,52
 546 4 546 4 544 2 c 128,-1,53
 542 0 542 0 535 0 c 0,54,55
 524 0 524 0 500.5 0 c 128,-1,56
 477 0 477 0 451.5 0 c 128,-1,57
 426 0 426 0 403 0.5 c 128,-1,58
 380 1 380 1 369 1 c 2,59,-1
 368 1 l 2,60,61
 366 1 366 1 364.5 0.5 c 128,-1,62
 363 0 363 0 362 0 c 2,63,-1
 362 1 l 1,64,-1
 360 1 l 2,65,66
 359 1 359 1 359.5 0.5 c 128,-1,67
 360 0 360 0 361 0 c 1,68,69
 353 0 353 0 344 0 c 0,70,71
 306 0 306 0 264 4 c 0,72,73
 212 8 212 8 165.5 23 c 128,-1,74
 119 38 119 38 84.5 66.5 c 128,-1,75
 50 95 50 95 41 143 c 0,0,1
425 115 m 0,76,77
 424 136 424 136 423 160.5 c 128,-1,78
 422 185 422 185 420.5 209.5 c 128,-1,79
 419 234 419 234 418 256 c 128,-1,80
 417 278 417 278 416 293 c 2,81,-1
 416 318 l 2,82,83
 415 318 415 318 392 318 c 128,-1,84
 369 318 369 318 335.5 315 c 128,-1,85
 302 312 302 312 262.5 303.5 c 128,-1,86
 223 295 223 295 190 278 c 0,87,88
 158 260 158 260 135 232 c 0,89,90
 115 208 115 208 115 171 c 0,91,92
 115 121 115 121 137.5 97.5 c 128,-1,93
 160 74 160 74 194.5 63 c 128,-1,94
 229 52 229 52 269 50 c 0,95,96
 284 49 284 49 298 50 c 0,97,98
 321 50 321 50 343 52 c 0,99,100
 377 54 377 54 401 57.5 c 128,-1,101
 425 61 425 61 426 61 c 1,102,103
 426 76 426 76 426 89.5 c 128,-1,104
 426 103 426 103 425 115 c 0,76,77
EndSplineSet
Validated: 1
EndChar

StartChar: e
Encoding: 101 101 35
Width: 494
Flags: W
HStem: 3 47<166.861 293.316> 48 64<335.713 440.873> 217 42<113.234 319.397> 379 41<184.057 343.809>
VStem: 38 69<125.561 216.439>
LayerCount: 2
Fore
SplineSet
393 112 m 2,0,-1
 409 112 l 1,1,2
 427 110 427 110 437.5 101 c 128,-1,3
 448 92 448 92 451 81 c 128,-1,4
 454 70 454 70 451 59.5 c 128,-1,5
 448 49 448 49 441 45 c 1,6,7
 437 47 437 47 424 48 c 0,8,9
 414 49 414 49 396 44 c 0,10,11
 371 38 371 38 329 24 c 0,12,13
 266 3 266 3 225 3 c 0,14,15
 221 3 221 3 218 3 c 0,16,-1
 163 10 l 0,17,18
 133 18 133 18 101 54 c 0,19,20
 66 93 66 93 48 162 c 0,21,22
 38 200 38 200 38 232 c 2,23,-1
 38 242 l 2,24,25
 38 260 38 260 45 282 c 0,26,27
 75 375 75 375 173 406 c 0,28,29
 214 419 214 419 231 419 c 0,30,31
 255 419 255 419 279 420 c 0,32,33
 280 420 280 420 281 420 c 0,34,35
 306 420 306 420 335 411 c 0,36,37
 367 401 367 401 385 388 c 128,-1,38
 403 375 403 375 414 356.5 c 128,-1,39
 425 338 425 338 430 320 c 128,-1,40
 435 302 435 302 436.5 285 c 128,-1,41
 438 268 438 268 439.5 258 c 128,-1,42
 441 248 441 248 427 242.5 c 128,-1,43
 413 237 413 237 390 233 c 0,44,45
 298 217 298 217 111 217 c 1,46,47
 107 199 107 199 107 187 c 0,48,49
 107 182 107 182 109 162 c 0,50,51
 114 112 114 112 143 88 c 0,52,53
 182 56 182 56 229 50 c 1,54,55
 261 50 261 50 309.5 81 c 128,-1,56
 358 112 358 112 393 112 c 2,0,-1
379 302 m 0,57,58
 374 347 374 347 328 368 c 0,59,60
 304 379 304 379 260 379 c 128,-1,61
 216 379 216 379 184 359 c 0,62,63
 132 326 132 326 118 286 c 2,64,-1
 113 271 l 1,65,-1
 128 270 l 1,66,67
 211 259 211 259 259 259 c 0,68,69
 347 259 347 259 376 271 c 1,70,71
 380 280 380 280 379.5 289 c 128,-1,72
 379 298 379 298 379 302 c 0,57,58
EndSplineSet
Validated: 1
EndChar

StartChar: f
Encoding: 102 102 36
Width: 479
Flags: W
HStem: 0 69<84.5792 137.997> 330 55<39 134 207 284.556> 337 57<207 307>
VStem: 135 70<55.5908 332 390 675.818> 365 75<699.251 742.78>
LayerCount: 2
Fore
SplineSet
312 337 m 1,0,-1
 207 334 l 1,1,2
 208 280 208 280 208.5 230.5 c 128,-1,3
 209 181 209 181 209.5 143 c 128,-1,4
 210 105 210 105 211 81 c 128,-1,5
 212 57 212 57 214 54 c 0,6,7
 218 46 218 46 226.5 44.5 c 128,-1,8
 235 43 235 43 243.5 44 c 128,-1,9
 252 45 252 45 258.5 45.5 c 128,-1,10
 265 46 265 46 265 42 c 0,11,12
 266 30 266 30 269.5 22 c 128,-1,13
 273 14 273 14 275 9 c 128,-1,14
 277 4 277 4 277 2 c 128,-1,15
 277 0 277 0 270 0 c 0,16,17
 260 0 260 0 239 0 c 128,-1,18
 218 0 218 0 192.5 0 c 128,-1,19
 167 0 167 0 140.5 0 c 128,-1,20
 114 0 114 0 94 0 c 0,21,22
 87 0 87 0 84.5 3 c 128,-1,23
 82 6 82 6 80.5 12 c 128,-1,24
 79 18 79 18 78.5 28.5 c 128,-1,25
 78 39 78 39 75 54 c 256,26,27
 72 69 72 69 81.5 69 c 128,-1,28
 91 69 91 69 103.5 63.5 c 128,-1,29
 116 58 116 58 127 53 c 128,-1,30
 138 48 138 48 138 54 c 0,31,32
 138 105 138 105 137.5 144 c 128,-1,33
 137 183 137 183 136.5 215.5 c 128,-1,34
 136 248 136 248 135.5 275.5 c 128,-1,35
 135 303 135 303 135 332 c 1,36,-1
 37 330 l 1,37,-1
 39 385 l 1,38,-1
 134 388 l 1,39,40
 134 432 134 432 135 480.5 c 128,-1,41
 136 529 136 529 136 584 c 0,42,43
 137 640 137 640 155 686 c 0,44,45
 162 705 162 705 173.5 723.5 c 128,-1,46
 185 742 185 742 202 757 c 128,-1,47
 219 772 219 772 241.5 782 c 128,-1,48
 264 792 264 792 294 793 c 0,49,50
 338 793 338 793 365.5 789 c 128,-1,51
 393 785 393 785 409.5 777 c 128,-1,52
 426 769 426 769 432.5 759 c 128,-1,53
 439 749 439 749 440 738.5 c 128,-1,54
 441 728 441 728 439 717.5 c 128,-1,55
 437 707 437 707 436 699 c 1,56,57
 430 696 430 696 416 693 c 128,-1,58
 402 690 402 690 388 688 c 0,59,60
 371 685 371 685 352 682 c 1,61,62
 365 708 365 708 365 725 c 0,63,64
 365 736 365 736 360 743 c 0,65,66
 356 749 356 749 346 752 c 128,-1,67
 336 755 336 755 320 753 c 128,-1,68
 304 751 304 751 280 743 c 0,69,70
 257 732 257 732 243.5 710 c 128,-1,71
 230 688 230 688 222 662 c 128,-1,72
 214 636 214 636 210.5 609 c 128,-1,73
 207 582 207 582 205 562 c 0,74,75
 206 544 206 544 206 526 c 128,-1,76
 206 508 206 508 205 490 c 0,77,78
 205 465 205 465 205.5 440 c 128,-1,79
 206 415 206 415 206 390 c 1,80,-1
 307 394 l 1,81,-1
 312 337 l 1,0,-1
EndSplineSet
Validated: 1
EndChar

StartChar: g
Encoding: 103 103 37
Width: 568
Flags: W
HStem: -297 25<218.247 357.181> -20 25<257.649 367.25> 96 25<227.75 338.921> 317 89<456.435 506.959> 368 24<224.239 342.85>
VStem: 36 75.0908<-201.664 -87.7614> 72.0479 85.043<174.391 315.235> 404.091 78<168.689 315.034> 464.182 64.9092<-207.281 -82.217>
LayerCount: 2
Fore
SplineSet
36.0908203125 -144 m 2,0,1
 39.0908203125 -91 39.0908203125 -91 71.5908203125 -60.5 c 128,-1,2
 104.090820312 -30 104.090820312 -30 152.090820312 -14 c 1,3,4
 140.090820312 -5 140.090820312 -5 124.590820312 8 c 128,-1,5
 109.090820312 21 109.090820312 21 95.5908203125 33.5 c 128,-1,6
 82.0908203125 46 82.0908203125 46 73.0908203125 55.5 c 128,-1,7
 64.0908203125 65 64.0908203125 65 64.0908203125 67 c 0,8,9
 63.0908203125 76 63.0908203125 76 71.5908203125 84.5 c 128,-1,10
 80.0908203125 93 80.0908203125 93 93.0908203125 100 c 128,-1,11
 106.090820312 107 106.090820312 107 121.590820312 113 c 128,-1,12
 137.090820312 119 137.090820312 119 152.090820312 123 c 1,13,14
 117.090820312 141 117.090820312 141 93.0908203125 171 c 0,15,16
 72.0478515625 197.782226562 72.0478515625 197.782226562 72.0478515625 235.543945312 c 2,17,-1
 72.0908203125 246 l 2,18,19
 75.0908203125 289 75.0908203125 289 95.0908203125 317 c 128,-1,20
 115.090820312 345 115.090820312 345 145.590820312 362 c 128,-1,21
 176.090820312 379 176.090820312 379 214.590820312 385.5 c 128,-1,22
 253.090820312 392 253.090820312 392 293.090820312 392 c 0,23,24
 330.090820312 391 330.090820312 391 358.590820312 383.5 c 128,-1,25
 387.090820312 376 387.090820312 376 410.090820312 363 c 1,26,27
 423.090820312 378 423.090820312 378 439.090820312 393 c 0,28,29
 454.090820312 406 454.090820312 406 469.090820312 406 c 0,30,31
 471.090820312 406 471.090820312 406 473.090820312 406 c 0,32,33
 481.090820312 404 481.090820312 404 489.590820312 399.5 c 128,-1,34
 498.090820312 395 498.090820312 395 504.090820312 388 c 128,-1,35
 510.090820312 381 510.090820312 381 513.090820312 371.5 c 128,-1,36
 516.090820312 362 516.090820312 362 514.090820312 351 c 0,37,38
 512.090820312 336 512.090820312 336 505.590820312 328 c 128,-1,39
 499.090820312 320 499.090820312 320 490.590820312 318 c 128,-1,40
 482.090820312 316 482.090820312 316 472.590820312 317 c 128,-1,41
 463.090820312 318 463.090820312 318 456.090820312 321 c 1,42,43
 477.090820312 294 477.090820312 294 481.090820312 262 c 0,44,45
 483.090820312 251 483.090820312 251 482.090820312 241 c 0,46,47
 482.090820312 220 482.090820312 220 476.090820312 200 c 0,48,49
 468.090820312 173 468.090820312 173 447.090820312 154 c 128,-1,50
 426.090820312 135 426.090820312 135 399.090820312 123 c 128,-1,51
 372.090820312 111 372.090820312 111 342.590820312 105 c 128,-1,52
 313.090820312 99 313.090820312 99 288.090820312 97 c 0,53,54
 279.090820312 96 279.090820312 96 269.090820312 96 c 0,55,56
 254.090820312 96 254.090820312 96 239.090820312 98 c 0,57,58
 213.090820312 101 213.090820312 101 187.090820312 109 c 1,59,60
 170.090820312 105 170.090820312 105 157.090820312 97 c 128,-1,61
 144.090820312 89 144.090820312 89 149.090820312 74 c 0,62,63
 153.090820312 61 153.090820312 61 175.590820312 49.5 c 128,-1,64
 198.090820312 38 198.090820312 38 224.590820312 28.5 c 128,-1,65
 251.090820312 19 251.090820312 19 273.590820312 12.5 c 128,-1,66
 296.090820312 6 296.090820312 6 299.090820312 5 c 2,67,-1
 302.090820312 5 l 2,68,69
 371.090820312 3 371.090820312 3 418.590820312 -15 c 128,-1,70
 466.090820312 -33 466.090820312 -33 492.590820312 -60.5 c 128,-1,71
 519.090820312 -88 519.090820312 -88 526.090820312 -122 c 0,72,73
 529.090820312 -135 529.090820312 -135 529.090820312 -148 c 0,74,75
 529.090820312 -169 529.090820312 -169 521.090820312 -190 c 0,76,77
 512.090820312 -218 512.090820312 -218 487.090820312 -237 c 128,-1,78
 462.090820312 -256 462.090820312 -256 429.590820312 -268.5 c 128,-1,79
 397.090820312 -281 397.090820312 -281 360.590820312 -287 c 128,-1,80
 324.090820312 -293 324.090820312 -293 293.090820312 -296 c 0,81,82
 282.090820312 -297 282.090820312 -297 270.090820312 -297 c 0,83,84
 255.090820312 -298 255.090820312 -298 239.090820312 -296 c 0,85,86
 210.090820312 -294 210.090820312 -294 181.090820312 -286.5 c 128,-1,87
 152.090820312 -279 152.090820312 -279 125.090820312 -266.5 c 128,-1,88
 98.0908203125 -254 98.0908203125 -254 77.5908203125 -236.5 c 128,-1,89
 57.0908203125 -219 57.0908203125 -219 45.0908203125 -196 c 0,90,91
 36 -177.818359375 36 -177.818359375 36 -156.331054688 c 2,92,-1
 36.0908203125 -144 l 2,0,1
288.090820312 -20 m 0,93,94
 285.090820312 -20 285.090820312 -20 281.090820312 -20 c 0,95,96
 247.090820312 -20 247.090820312 -20 218.090820312 -30 c 0,97,98
 186.090820312 -40 186.090820312 -40 162.090820312 -58 c 128,-1,99
 138.090820312 -76 138.090820312 -76 124.590820312 -99.5 c 128,-1,100
 111.090820312 -123 111.090820312 -123 111.090820312 -147 c 256,101,102
 111.090820312 -171 111.090820312 -171 126.590820312 -193.5 c 128,-1,103
 142.090820312 -216 142.090820312 -216 167.590820312 -234 c 128,-1,104
 193.090820312 -252 193.090820312 -252 225.090820312 -262 c 0,105,106
 255.090820312 -272 255.090820312 -272 287.090820312 -272 c 0,107,108
 290.090820312 -272 290.090820312 -272 293.090820312 -272 c 0,109,110
 324.090820312 -271 324.090820312 -271 355.090820312 -260.5 c 128,-1,111
 386.090820312 -250 386.090820312 -250 410.590820312 -234 c 128,-1,112
 435.090820312 -218 435.090820312 -218 450.090820312 -198 c 0,113,114
 464.181640625 -179.8828125 464.181640625 -179.8828125 464.181640625 -156.090820312 c 0,115,116
 464.181640625 -131.545898438 464.181640625 -131.545898438 455.090820312 -107 c 0,117,118
 447.090820312 -83 447.090820312 -83 426.590820312 -64.5 c 128,-1,119
 406.090820312 -46 406.090820312 -46 372.590820312 -34 c 128,-1,120
 339.090820312 -22 339.090820312 -22 288.090820312 -20 c 0,93,94
281.090820312 368 m 0,121,122
 278.090820312 368 278.090820312 368 276.090820312 368 c 0,123,124
 248.090820312 368 248.090820312 368 227.090820312 358 c 0,125,126
 204.090820312 347 204.090820312 347 188.090820312 328.5 c 128,-1,127
 172.090820312 310 172.090820312 310 164.590820312 287 c 128,-1,128
 157.090820312 264 157.090820312 264 157.090820312 241 c 256,129,130
 157.090820312 218 157.090820312 218 166.590820312 196 c 128,-1,131
 176.090820312 174 176.090820312 174 193.590820312 157 c 128,-1,132
 211.090820312 140 211.090820312 140 235.090820312 130 c 0,133,134
 257.090820312 121 257.090820312 121 283.090820312 121 c 0,135,136
 286.090820312 121 286.090820312 121 288.090820312 121 c 0,137,138
 313.090820312 122 313.090820312 122 335.090820312 131.5 c 128,-1,139
 357.090820312 141 357.090820312 141 373.090820312 155.5 c 128,-1,140
 389.090820312 170 389.090820312 170 397.090820312 189 c 0,141,142
 404.090820312 204 404.090820312 204 404.090820312 220 c 0,143,144
 404.090820312 224 404.090820312 224 404.090820312 228 c 0,145,146
 403.090820312 253 403.090820312 253 400.090820312 277.5 c 128,-1,147
 397.090820312 302 397.090820312 302 385.090820312 321.5 c 128,-1,148
 373.090820312 341 373.090820312 341 348.590820312 353.5 c 128,-1,149
 324.090820312 366 324.090820312 366 281.090820312 368 c 0,121,122
391.090820312 344 m 0,150,151
 391.090820312 342 391.090820312 342 394.090820312 345 c 1,152,153
 390.090820312 345 390.090820312 345 391.090820312 344 c 0,150,151
EndSplineSet
Validated: 1
EndChar

StartChar: h
Encoding: 104 104 38
Width: 592
Flags: W
HStem: 0 78<42.9316 102.692> 351 44<256.828 396.966>
VStem: 102.192 69.5<63.0975 289 352 650.495> 428.692 74<69.41 311.947>
LayerCount: 2
Fore
SplineSet
102.692382812 63 m 0,0,1
 102.692382812 117 102.692382812 117 102.692382812 156 c 128,-1,2
 102.692382812 195 102.692382812 195 102.192382812 226 c 128,-1,3
 101.692382812 257 101.692382812 257 101.192382812 284 c 128,-1,4
 100.692382812 311 100.692382812 311 100.692382812 342 c 0,5,6
 100.692382812 377 100.692382812 377 100.692382812 413.5 c 128,-1,7
 100.692382812 450 100.692382812 450 100.692382812 490.5 c 128,-1,8
 100.692382812 531 100.692382812 531 100.692382812 577 c 128,-1,9
 100.692382812 623 100.692382812 623 99.6923828125 676 c 0,10,11
 98.6923828125 683 98.6923828125 683 94.1923828125 678.5 c 128,-1,12
 89.6923828125 674 89.6923828125 674 83.6923828125 670.5 c 128,-1,13
 77.6923828125 667 77.6923828125 667 71.6923828125 670.5 c 128,-1,14
 65.6923828125 674 65.6923828125 674 61.6923828125 697 c 0,15,16
 60.6923828125 703 60.6923828125 703 60.6923828125 708 c 0,17,18
 60.6923828125 723 60.6923828125 723 70.6923828125 733 c 0,19,20
 84.6923828125 747 84.6923828125 747 102.692382812 750 c 0,21,22
 116.692382812 752 116.692382812 752 128.692382812 744.5 c 128,-1,23
 140.692382812 737 140.692382812 737 151.192382812 726 c 128,-1,24
 161.692382812 715 161.692382812 715 169.692382812 704.5 c 128,-1,25
 177.692382812 694 177.692382812 694 183.692382812 691 c 0,26,27
 199.692382812 693 199.692382812 693 210.692382812 694 c 0,28,29
 219.692382812 695 219.692382812 695 225.192382812 694 c 128,-1,30
 230.692382812 693 230.692382812 693 225.692382812 689 c 0,31,32
 204.692382812 674 204.692382812 674 193.692382812 650.5 c 128,-1,33
 182.692382812 627 182.692382812 627 177.692382812 600 c 128,-1,34
 172.692382812 573 172.692382812 573 171.692382812 544 c 128,-1,35
 170.692382812 515 170.692382812 515 170.692382812 487 c 0,36,37
 170.692382812 453 170.692382812 453 171.192382812 419 c 128,-1,38
 171.692382812 385 171.692382812 385 171.692382812 352 c 1,39,40
 189.692382812 359 189.692382812 359 214.192382812 367 c 128,-1,41
 238.692382812 375 238.692382812 375 266.192382812 381.5 c 128,-1,42
 293.692382812 388 293.692382812 388 321.692382812 392 c 0,43,44
 343.692382812 395 343.692382812 395 365.692382812 395 c 0,45,46
 370.692382812 395 370.692382812 395 375.692382812 395 c 0,47,48
 415.692382812 393 415.692382812 393 440.192382812 371.5 c 128,-1,49
 464.692382812 350 464.692382812 350 478.692382812 318 c 128,-1,50
 492.692382812 286 492.692382812 286 497.692382812 248 c 128,-1,51
 502.692382812 210 502.692382812 210 502.692382812 174.5 c 128,-1,52
 502.692382812 139 502.692382812 139 499.692382812 110.5 c 128,-1,53
 496.692382812 82 496.692382812 82 494.692382812 69 c 1,54,55
 501.692382812 65 501.692382812 65 510.692382812 60 c 128,-1,56
 519.692382812 55 519.692382812 55 528.692382812 49 c 128,-1,57
 537.692382812 43 537.692382812 43 544.192382812 37 c 128,-1,58
 550.692382812 31 550.692382812 31 551.692382812 26 c 0,59,60
 551.692382812 20 551.692382812 20 547.692382812 10 c 0,61,62
 545.692382812 6 545.692382812 6 544.692382812 0 c 1,63,-1
 422.692382812 0 l 2,64,65
 411.692382812 0 411.692382812 0 410.692382812 8.5 c 128,-1,66
 409.692382812 17 409.692382812 17 412.692382812 27 c 128,-1,67
 415.692382812 37 415.692382812 37 419.692382812 45 c 128,-1,68
 423.692382812 53 423.692382812 53 423.692382812 52 c 1,69,70
 423.692382812 53 423.692382812 53 425.692382812 75.5 c 128,-1,71
 427.692382812 98 427.692382812 98 428.692382812 130 c 0,72,73
 428.692382812 143 428.692382812 143 428.692382812 157 c 0,74,75
 428.692382812 178 428.692382812 178 428.692382812 202 c 0,76,77
 426.692382812 240 426.692382812 240 419.692382812 272.5 c 128,-1,78
 412.692382812 305 412.692382812 305 398.692382812 327.5 c 128,-1,79
 384.692382812 350 384.692382812 350 360.692382812 351 c 0,80,81
 357.692382812 351 357.692382812 351 353.692382812 351 c 0,82,83
 332.692382812 351 332.692382812 351 310.692382812 346 c 0,84,85
 284.692382812 340 284.692382812 340 259.192382812 330 c 128,-1,86
 233.692382812 320 233.692382812 320 210.692382812 308.5 c 128,-1,87
 187.692382812 297 187.692382812 297 171.692382812 289 c 1,88,89
 171.692382812 244 171.692382812 244 171.692382812 204 c 128,-1,90
 171.692382812 164 171.692382812 164 172.192382812 133.5 c 128,-1,91
 172.692382812 103 172.692382812 103 173.192382812 84.5 c 128,-1,92
 173.692382812 66 173.692382812 66 175.692382812 63 c 0,93,94
 179.692382812 55 179.692382812 55 188.192382812 53.5 c 128,-1,95
 196.692382812 52 196.692382812 52 205.692382812 53 c 128,-1,96
 214.692382812 54 214.692382812 54 221.192382812 54.5 c 128,-1,97
 227.692382812 55 227.692382812 55 227.692382812 51 c 0,98,99
 228.692382812 39 228.692382812 39 232.692382812 29.5 c 128,-1,100
 236.692382812 20 236.692382812 20 240.192382812 13.5 c 128,-1,101
 243.692382812 7 243.692382812 7 244.192382812 3.5 c 128,-1,102
 244.692382812 0 244.692382812 0 238.692382812 0 c 2,103,-1
 58.6923828125 0 l 2,104,105
 44.6923828125 0 44.6923828125 0 43.1923828125 16.5 c 128,-1,106
 41.6923828125 33 41.6923828125 33 37.6923828125 63 c 0,107,108
 34.6923828125 78 34.6923828125 78 44.6923828125 78 c 128,-1,109
 54.6923828125 78 54.6923828125 78 67.1923828125 72.5 c 128,-1,110
 79.6923828125 67 79.6923828125 67 91.1923828125 62 c 128,-1,111
 102.692382812 57 102.692382812 57 102.692382812 63 c 0,0,1
EndSplineSet
Validated: 1
EndChar

StartChar: i
Encoding: 105 105 39
Width: 270
Flags: W
HStem: 2 21G<55.3184 227.818>
VStem: 89.8184 70<65.8055 351.776>
LayerCount: 2
Fore
SplineSet
90.818359375 65 m 0,0,1
 90.818359375 119 90.818359375 119 90.318359375 150 c 128,-1,2
 89.818359375 181 89.818359375 181 89.818359375 197 c 2,3,-1
 89.818359375 221 l 2,4,5
 88.818359375 265 88.818359375 265 88.818359375 284.5 c 128,-1,6
 88.818359375 304 88.818359375 304 88.818359375 310 c 128,-1,7
 88.818359375 316 88.818359375 316 89.318359375 314.5 c 128,-1,8
 89.818359375 313 89.818359375 313 89.818359375 316 c 128,-1,9
 89.818359375 319 89.818359375 319 89.818359375 332.5 c 128,-1,10
 89.818359375 346 89.818359375 346 88.818359375 381 c 0,11,12
 88.818359375 388 88.818359375 388 84.318359375 383.5 c 128,-1,13
 79.818359375 379 79.818359375 379 73.818359375 375.5 c 128,-1,14
 67.818359375 372 67.818359375 372 61.318359375 375.5 c 128,-1,15
 54.818359375 379 54.818359375 379 50.818359375 402 c 0,16,17
 49.818359375 406 49.818359375 406 49.818359375 410 c 0,18,19
 49.818359375 427 49.818359375 427 61.818359375 438 c 0,20,21
 75.818359375 452 75.818359375 452 92.818359375 455 c 0,22,23
 103.818359375 457 103.818359375 457 119.818359375 447 c 128,-1,24
 135.818359375 437 135.818359375 437 150.818359375 422 c 128,-1,25
 165.818359375 407 165.818359375 407 176.318359375 391.5 c 128,-1,26
 186.818359375 376 186.818359375 376 186.818359375 367 c 0,27,28
 186.818359375 356 186.818359375 356 182.818359375 357.5 c 128,-1,29
 178.818359375 359 178.818359375 359 173.318359375 359 c 128,-1,30
 167.818359375 359 167.818359375 359 163.818359375 352 c 128,-1,31
 159.818359375 345 159.818359375 345 159.818359375 317 c 0,32,33
 160.818359375 242 160.818359375 242 160.818359375 195 c 128,-1,34
 160.818359375 148 160.818359375 148 161.318359375 120.5 c 128,-1,35
 161.818359375 93 161.818359375 93 162.818359375 81 c 128,-1,36
 163.818359375 69 163.818359375 69 166.818359375 65 c 0,37,38
 169.818359375 57 169.818359375 57 178.318359375 55.5 c 128,-1,39
 186.818359375 54 186.818359375 54 195.318359375 55 c 128,-1,40
 203.818359375 56 203.818359375 56 210.318359375 56.5 c 128,-1,41
 216.818359375 57 216.818359375 57 216.818359375 53 c 0,42,43
 217.818359375 41 217.818359375 41 221.318359375 31 c 128,-1,44
 224.818359375 21 224.818359375 21 227.818359375 14.5 c 128,-1,45
 230.818359375 8 230.818359375 8 230.818359375 5 c 128,-1,46
 230.818359375 2 230.818359375 2 224.818359375 2 c 0,47,48
 213.818359375 2 213.818359375 2 194.318359375 2 c 128,-1,49
 174.818359375 2 174.818359375 2 151.818359375 2 c 128,-1,50
 128.818359375 2 128.818359375 2 104.318359375 2 c 128,-1,51
 79.818359375 2 79.818359375 2 58.818359375 2 c 0,52,53
 51.818359375 2 51.818359375 2 49.318359375 4 c 128,-1,54
 46.818359375 6 46.818359375 6 45.318359375 11.5 c 128,-1,55
 43.818359375 17 43.818359375 17 42.318359375 26.5 c 128,-1,56
 40.818359375 36 40.818359375 36 37.818359375 51 c 256,57,58
 34.818359375 66 34.818359375 66 42.818359375 68 c 128,-1,59
 50.818359375 70 50.818359375 70 61.318359375 67.5 c 128,-1,60
 71.818359375 65 71.818359375 65 81.318359375 62 c 128,-1,61
 90.818359375 59 90.818359375 59 90.818359375 65 c 0,0,1
108.818359375 632 m 1,62,-1
 178.818359375 579 l 1,63,-1
 110.818359375 531 l 1,64,-1
 50.818359375 579 l 1,65,-1
 108.818359375 632 l 1,62,-1
EndSplineSet
Validated: 1
EndChar

StartChar: j
Encoding: 106 106 40
Width: 410
Flags: W
HStem: -306 48<130.946 196.038>
VStem: 35.5996 76<-251.717 -212.191> 267.6 72<-212.875 -54.5468 -52.4536 354.905> 274.6 66<-198.514 66.2482>
LayerCount: 2
Fore
SplineSet
265.599609375 299 m 0,0,1
 265.599609375 306 265.599609375 306 265.599609375 309 c 128,-1,2
 265.599609375 312 265.599609375 312 264.599609375 321 c 0,3,4
 264.599609375 357 264.599609375 357 264.599609375 368 c 0,5,6
 264.599609375 376 264.599609375 376 258.599609375 370 c 0,7,8
 254.599609375 366 254.599609375 366 248.599609375 362.5 c 128,-1,9
 242.599609375 359 242.599609375 359 236.599609375 362 c 0,10,11
 231.599609375 365 231.599609375 365 225.599609375 389 c 0,12,13
 224.599609375 393 224.599609375 393 224.599609375 396 c 0,14,15
 224.599609375 413 224.599609375 413 236.599609375 425 c 0,16,17
 250.599609375 439 250.599609375 439 267.599609375 442 c 0,18,19
 281.599609375 444 281.599609375 444 294.099609375 436.5 c 128,-1,20
 306.599609375 429 306.599609375 429 316.599609375 418 c 128,-1,21
 326.599609375 407 326.599609375 407 334.599609375 396 c 0,22,23
 345.599609375 384 345.599609375 384 350.599609375 383 c 128,-1,24
 355.599609375 382 355.599609375 382 363.599609375 382 c 0,25,26
 375.599609375 381 375.599609375 381 368.599609375 373 c 0,27,28
 358.599609375 362 358.599609375 362 352.599609375 360 c 128,-1,29
 346.599609375 358 346.599609375 358 343.099609375 355 c 128,-1,30
 339.599609375 352 339.599609375 352 338.599609375 342 c 128,-1,31
 337.599609375 332 337.599609375 332 337.599609375 304 c 0,32,33
 338.599609375 229 338.599609375 229 339.099609375 165 c 128,-1,34
 339.599609375 101 339.599609375 101 339.599609375 53 c 128,-1,35
 339.599609375 5 339.599609375 5 340.099609375 -24.5 c 128,-1,36
 340.599609375 -54 340.599609375 -54 340.599609375 -59 c 256,37,38
 340.599609375 -64 340.599609375 -64 341.099609375 -67.5 c 128,-1,39
 341.599609375 -71 341.599609375 -71 341.599609375 -75 c 0,40,41
 342.599609375 -92 342.599609375 -92 343.599609375 -115 c 0,42,43
 343.599609375 -120 343.599609375 -120 343.599609375 -125 c 0,44,45
 341.599609375 -154 341.599609375 -154 340.599609375 -162 c 0,46,47
 336.599609375 -186 336.599609375 -186 328.099609375 -211 c 128,-1,48
 319.599609375 -236 319.599609375 -236 301.099609375 -256 c 128,-1,49
 282.599609375 -276 282.599609375 -276 253.599609375 -290 c 0,50,51
 218.599609375 -306 218.599609375 -306 181.599609375 -306 c 0,52,53
 175.599609375 -306 175.599609375 -306 169.599609375 -306 c 0,54,55
 113.599609375 -306 113.599609375 -306 85.599609375 -297 c 0,56,57
 54.599609375 -287 54.599609375 -287 44.599609375 -272 c 0,58,59
 32.599609375 -255 32.599609375 -255 35.599609375 -247 c 0,60,61
 36.599609375 -244 36.599609375 -244 36.599609375 -240 c 0,62,63
 39.599609375 -218 39.599609375 -218 40.599609375 -212 c 0,64,65
 42.599609375 -203 42.599609375 -203 58.599609375 -199 c 0,66,67
 71.599609375 -195 71.599609375 -195 86.599609375 -194 c 0,68,69
 86.599609375 -194 86.599609375 -194 98.599609375 -194 c 128,-1,70
 110.599609375 -194 110.599609375 -194 124.599609375 -195 c 1,71,72
 111.599609375 -214 111.599609375 -214 111.599609375 -227 c 0,73,74
 111.599609375 -243 111.599609375 -243 130.599609375 -252 c 0,75,76
 141.599609375 -257 141.599609375 -257 164.599609375 -258 c 0,77,78
 178.599609375 -258 178.599609375 -258 196.599609375 -256 c 1,79,80
 220.599609375 -249 220.599609375 -249 235.599609375 -229 c 128,-1,81
 250.599609375 -209 250.599609375 -209 259.099609375 -181 c 128,-1,82
 267.599609375 -153 267.599609375 -153 271.099609375 -120 c 128,-1,83
 274.599609375 -87 274.599609375 -87 274.599609375 -53.5 c 128,-1,84
 274.599609375 -20 274.599609375 -20 272.599609375 11.5 c 128,-1,85
 270.599609375 43 270.599609375 43 269.599609375 67 c 0,86,87
 269.599609375 68 269.599609375 68 269.099609375 69 c 128,-1,88
 268.599609375 70 268.599609375 70 268.599609375 71 c 0,89,90
 268.599609375 75 268.599609375 75 268.099609375 78 c 128,-1,91
 267.599609375 81 267.599609375 81 267.599609375 83 c 2,92,-1
 267.599609375 86 l 2,93,94
 266.599609375 90 266.599609375 90 267.599609375 101 c 0,95,96
 268.599609375 109 268.599609375 109 267.599609375 119 c 0,97,98
 267.599609375 138 267.599609375 138 266.599609375 174 c 0,99,100
 266.599609375 215 l 2,101,-1
 266.599609375 238 l 2,102,103
 265.599609375 282 265.599609375 282 265.599609375 299 c 0,0,1
281.599609375 625 m 1,104,-1
 351.599609375 572 l 1,105,-1
 283.599609375 524 l 1,106,-1
 223.599609375 572 l 1,107,-1
 281.599609375 625 l 1,104,-1
EndSplineSet
Validated: 1
EndChar

StartChar: k
Encoding: 107 107 41
Width: 614
Flags: W
HStem: 2 81<45.2714 102.692>
VStem: 98.6924 73<68.1318 186 256 655.495>
LayerCount: 2
Fore
SplineSet
102.692382812 68 m 0,0,1
 102.692382812 122 102.692382812 122 102.692382812 161 c 128,-1,2
 102.692382812 200 102.692382812 200 102.192382812 231 c 128,-1,3
 101.692382812 262 101.692382812 262 100.692382812 289 c 0,4,5
 98.6923828125 343 98.6923828125 343 98.6923828125 347 c 0,6,7
 98.6923828125 382 98.6923828125 382 98.6923828125 418 c 0,8,9
 98.6923828125 486 98.6923828125 486 98.6923828125 496 c 0,10,11
 98.6923828125 516 98.6923828125 516 98.6923828125 538 c 0,12,13
 98.6923828125 559 98.6923828125 559 98.6923828125 582 c 0,14,15
 98.6923828125 628 98.6923828125 628 97.6923828125 681 c 0,16,17
 97.6923828125 688 97.6923828125 688 93.1923828125 683.5 c 128,-1,18
 88.6923828125 679 88.6923828125 679 83.1923828125 675.5 c 128,-1,19
 77.6923828125 672 77.6923828125 672 71.6923828125 675.5 c 128,-1,20
 65.6923828125 679 65.6923828125 679 61.6923828125 702 c 0,21,22
 59.6923828125 713 59.6923828125 713 62.6923828125 722 c 128,-1,23
 65.6923828125 731 65.6923828125 731 71.6923828125 738 c 128,-1,24
 77.6923828125 745 77.6923828125 745 86.1923828125 749 c 128,-1,25
 94.6923828125 753 94.6923828125 753 102.692382812 755 c 0,26,27
 115.692382812 757 115.692382812 757 128.192382812 749.5 c 128,-1,28
 140.692382812 742 140.692382812 742 151.192382812 731 c 128,-1,29
 161.692382812 720 161.692382812 720 169.692382812 709.5 c 128,-1,30
 177.692382812 699 177.692382812 699 183.692382812 696 c 0,31,32
 199.692382812 698 199.692382812 698 210.692382812 699 c 0,33,34
 219.692382812 700 219.692382812 700 225.192382812 699 c 128,-1,35
 230.692382812 698 230.692382812 698 225.692382812 694 c 0,36,37
 204.692382812 679 204.692382812 679 193.692382812 655.5 c 128,-1,38
 182.692382812 632 182.692382812 632 177.692382812 605 c 128,-1,39
 172.692382812 578 172.692382812 578 171.692382812 549 c 128,-1,40
 170.692382812 520 170.692382812 520 170.692382812 492 c 0,41,42
 171.692382812 431 171.692382812 431 171.692382812 370.5 c 128,-1,43
 171.692382812 310 171.692382812 310 171.692382812 256 c 1,44,45
 186.692382812 271 186.692382812 271 207.192382812 291.5 c 128,-1,46
 227.692382812 312 227.692382812 312 249.692382812 334 c 128,-1,47
 271.692382812 356 271.692382812 356 292.692382812 377 c 128,-1,48
 313.692382812 398 313.692382812 398 330.192382812 414 c 128,-1,49
 346.692382812 430 346.692382812 430 356.692382812 440 c 0,50,-1
 366.692382812 450 l 2,51,52
 366.692382812 449 366.692382812 449 386.692382812 449 c 128,-1,53
 406.692382812 449 406.692382812 449 431.692382812 449 c 0,54,55
 460.692382812 449 460.692382812 449 497.692382812 450 c 1,56,57
 458.692382812 418 458.692382812 418 418.692382812 385 c 0,58,59
 383.692382812 357 383.692382812 357 343.192382812 323.5 c 128,-1,60
 302.692382812 290 302.692382812 290 264.692382812 260 c 1,61,62
 265.692382812 259 265.692382812 259 278.692382812 254 c 128,-1,63
 291.692382812 249 291.692382812 249 309.692382812 241 c 128,-1,64
 327.692382812 233 327.692382812 233 349.192382812 223 c 128,-1,65
 370.692382812 213 370.692382812 213 389.192382812 203.5 c 128,-1,66
 407.692382812 194 407.692382812 194 421.692382812 186 c 128,-1,67
 435.692382812 178 435.692382812 178 438.692382812 173 c 0,68,69
 452.692382812 153 452.692382812 153 456.692382812 118.5 c 128,-1,70
 460.692382812 84 460.692382812 84 462.192382812 47 c 128,-1,71
 463.692382812 10 463.692382812 10 467.192382812 -24 c 128,-1,72
 470.692382812 -58 470.692382812 -58 482.692382812 -77 c 0,73,74
 495.692382812 -97 495.692382812 -97 512.192382812 -112 c 128,-1,75
 528.692382812 -127 528.692382812 -127 542.692382812 -137 c 128,-1,76
 556.692382812 -147 556.692382812 -147 566.692382812 -152 c 0,77,-1
 575.692382812 -156 l 2,78,79
 576.692382812 -156 576.692382812 -156 565.692382812 -158 c 128,-1,80
 554.692382812 -160 554.692382812 -160 538.692382812 -161 c 0,81,82
 527.692382812 -162 527.692382812 -162 515.692382812 -162 c 0,83,84
 508.692382812 -162 508.692382812 -162 502.692382812 -162 c 0,85,86
 484.692382812 -162 484.692382812 -162 469.692382812 -156 c 0,87,88
 450.692382812 -150 450.692382812 -150 438.192382812 -144 c 128,-1,89
 425.692382812 -138 425.692382812 -138 416.692382812 -129.5 c 128,-1,90
 407.692382812 -121 407.692382812 -121 401.192382812 -107.5 c 128,-1,91
 394.692382812 -94 394.692382812 -94 387.692382812 -73 c 0,92,93
 384.692382812 -69 384.692382812 -69 382.692382812 -53.5 c 128,-1,94
 380.692382812 -38 380.692382812 -38 378.192382812 -16.5 c 128,-1,95
 375.692382812 5 375.692382812 5 373.192382812 30 c 128,-1,96
 370.692382812 55 370.692382812 55 368.192382812 77 c 128,-1,97
 365.692382812 99 365.692382812 99 363.192382812 115.5 c 128,-1,98
 360.692382812 132 360.692382812 132 358.692382812 137 c 0,99,100
 355.692382812 143 355.692382812 143 338.192382812 154 c 128,-1,101
 320.692382812 165 320.692382812 165 297.192382812 176.5 c 128,-1,102
 273.692382812 188 273.692382812 188 249.192382812 198.5 c 128,-1,103
 224.692382812 209 224.692382812 209 208.692382812 215 c 1,104,-1
 171.692382812 186 l 1,105,106
 172.692382812 136 172.692382812 136 173.192382812 104 c 128,-1,107
 173.692382812 72 173.692382812 72 175.692382812 68 c 0,108,109
 179.692382812 60 179.692382812 60 188.192382812 58.5 c 128,-1,110
 196.692382812 57 196.692382812 57 205.692382812 58 c 128,-1,111
 214.692382812 59 214.692382812 59 221.192382812 59.5 c 128,-1,112
 227.692382812 60 227.692382812 60 227.692382812 56 c 0,113,114
 228.692382812 44 228.692382812 44 232.192382812 34 c 128,-1,115
 235.692382812 24 235.692382812 24 238.692382812 17 c 128,-1,116
 241.692382812 10 241.692382812 10 241.692382812 6 c 128,-1,117
 241.692382812 2 241.692382812 2 235.692382812 2 c 0,118,119
 224.692382812 2 224.692382812 2 202.692382812 2 c 128,-1,120
 180.692382812 2 180.692382812 2 154.692382812 2 c 128,-1,121
 128.692382812 2 128.692382812 2 101.692382812 2 c 128,-1,122
 74.6923828125 2 74.6923828125 2 53.6923828125 2 c 0,123,124
 47.6923828125 2 47.6923828125 2 45.1923828125 6.5 c 128,-1,125
 42.6923828125 11 42.6923828125 11 41.6923828125 20 c 128,-1,126
 40.6923828125 29 40.6923828125 29 40.1923828125 41 c 128,-1,127
 39.6923828125 53 39.6923828125 53 37.6923828125 68 c 0,128,129
 34.6923828125 83 34.6923828125 83 44.6923828125 83 c 128,-1,130
 54.6923828125 83 54.6923828125 83 67.1923828125 77.5 c 128,-1,131
 79.6923828125 72 79.6923828125 72 91.1923828125 67 c 128,-1,132
 102.692382812 62 102.692382812 62 102.692382812 68 c 0,0,1
EndSplineSet
Validated: 1
EndChar

StartChar: l
Encoding: 108 108 42
Width: 270
Flags: W
HStem: -1 21G<157.1 170.1>
VStem: 88.5996 71.5<62.6838 647.028>
LayerCount: 2
Fore
SplineSet
91.599609375 61 m 0,0,1
 91.599609375 115 91.599609375 115 91.099609375 154 c 128,-1,2
 90.599609375 193 90.599609375 193 90.099609375 224 c 128,-1,3
 89.599609375 255 89.599609375 255 89.099609375 282 c 128,-1,4
 88.599609375 309 88.599609375 309 88.599609375 340 c 0,5,6
 88.599609375 375 88.599609375 375 88.599609375 411.5 c 128,-1,7
 88.599609375 448 88.599609375 448 88.599609375 488.5 c 128,-1,8
 88.599609375 529 88.599609375 529 88.599609375 575 c 128,-1,9
 88.599609375 621 88.599609375 621 87.599609375 674 c 0,10,11
 87.599609375 681 87.599609375 681 83.099609375 676.5 c 128,-1,12
 78.599609375 672 78.599609375 672 72.599609375 668.5 c 128,-1,13
 66.599609375 665 66.599609375 665 60.099609375 668.5 c 128,-1,14
 53.599609375 672 53.599609375 672 49.599609375 695 c 0,15,16
 48.599609375 699 48.599609375 699 48.599609375 703 c 0,17,18
 48.599609375 720 48.599609375 720 60.599609375 731 c 0,19,20
 74.599609375 745 74.599609375 745 91.599609375 748 c 0,21,22
 105.599609375 750 105.599609375 750 118.099609375 742.5 c 128,-1,23
 130.599609375 735 130.599609375 735 140.599609375 724 c 128,-1,24
 150.599609375 713 150.599609375 713 158.599609375 702.5 c 128,-1,25
 166.599609375 692 166.599609375 692 172.599609375 689 c 0,26,27
 188.599609375 691 188.599609375 691 199.599609375 692 c 0,28,29
 208.599609375 693 208.599609375 693 214.599609375 692 c 128,-1,30
 220.599609375 691 220.599609375 691 215.599609375 687 c 0,31,32
 194.599609375 672 194.599609375 672 182.599609375 648.5 c 128,-1,33
 170.599609375 625 170.599609375 625 165.599609375 598 c 128,-1,34
 160.599609375 571 160.599609375 571 159.599609375 542 c 128,-1,35
 158.599609375 513 158.599609375 513 158.599609375 485 c 0,36,37
 159.599609375 410 159.599609375 410 160.099609375 336.5 c 128,-1,38
 160.599609375 263 160.599609375 263 161.099609375 203 c 128,-1,39
 161.599609375 143 161.599609375 143 162.599609375 104 c 128,-1,40
 163.599609375 65 163.599609375 65 166.599609375 61 c 0,41,42
 170.599609375 53 170.599609375 53 178.599609375 51.5 c 128,-1,43
 186.599609375 50 186.599609375 50 195.099609375 51 c 128,-1,44
 203.599609375 52 203.599609375 52 210.099609375 52.5 c 128,-1,45
 216.599609375 53 216.599609375 53 216.599609375 49 c 0,46,47
 217.599609375 37 217.599609375 37 221.099609375 29.5 c 128,-1,48
 224.599609375 22 224.599609375 22 227.599609375 17.5 c 128,-1,49
 230.599609375 13 230.599609375 13 230.599609375 11 c 128,-1,50
 230.599609375 9 230.599609375 9 224.599609375 6 c 0,51,52
 214.599609375 1 214.599609375 1 192.599609375 0 c 0,53,54
 178.599609375 -1 178.599609375 -1 161.599609375 -1 c 0,55,56
 152.599609375 0 152.599609375 0 144.599609375 0 c 0,57,58
 118.599609375 0 118.599609375 0 92.599609375 0.5 c 128,-1,59
 66.599609375 1 66.599609375 1 45.599609375 1 c 0,60,61
 37.599609375 1 37.599609375 1 37.099609375 3 c 128,-1,62
 36.599609375 5 36.599609375 5 38.599609375 11 c 128,-1,63
 40.599609375 17 40.599609375 17 42.099609375 26.5 c 128,-1,64
 43.599609375 36 43.599609375 36 40.599609375 51 c 0,65,66
 38.599609375 66 38.599609375 66 46.099609375 67.5 c 128,-1,67
 53.599609375 69 53.599609375 69 63.599609375 65.5 c 128,-1,68
 73.599609375 62 73.599609375 62 82.599609375 58.5 c 128,-1,69
 91.599609375 55 91.599609375 55 91.599609375 61 c 0,0,1
EndSplineSet
Validated: 1
EndChar

StartChar: m
Encoding: 109 109 43
Width: 771
Flags: W
HStem: 0 21G<47.5 213.5 330.5 458.5 588 717.5> 341 55<201.473 326.806 448.2 587.471>
VStem: 42 166<3.61011 52.2644> 43 174.5<0 52.2644> 82.5 69.5<62.9062 301.935> 353.333 71.667<70.3781 293> 611 73<73.3781 299.535>
LayerCount: 2
Fore
SplineSet
82 272 m 0,0,1
 81 287 81 287 81 292 c 0,2,3
 81 299 81 299 80 334 c 0,4,5
 80 337 80 337 74 340 c 0,6,7
 73 341 73 341 65 335 c 128,-1,8
 57 329 57 329 52 332 c 0,9,10
 46 336 46 336 42 359 c 0,11,12
 41 365 41 365 41 370 c 0,13,14
 42 385 42 385 52 395 c 0,15,16
 66 409 66 409 83 412 c 0,17,18
 95 414 95 414 106 408 c 128,-1,19
 117 402 117 402 126 393 c 128,-1,20
 135 384 135 384 143 374 c 128,-1,21
 151 364 151 364 157 358 c 1,22,23
 172 367 172 367 189.5 375.5 c 128,-1,24
 207 384 207 384 226 389 c 0,25,26
 254 396 254 396 266 396 c 0,27,28
 270 396 270 396 275 396 c 0,29,30
 291 396 291 396 307 391 c 0,31,32
 330 384 330 384 348 372 c 128,-1,33
 366 360 366 360 379 344 c 1,34,35
 390 351 390 351 409.5 362.5 c 128,-1,36
 429 374 429 374 453.5 383 c 128,-1,37
 478 392 478 392 506 396 c 0,38,39
 515 397 515 397 524 397 c 0,40,41
 544 397 544 397 563 391 c 0,42,43
 601 380 601 380 625 356 c 128,-1,44
 649 332 649 332 662 300 c 0,45,46
 674 272 674 272 679 234 c 0,47,48
 684 194 684 194 684 180 c 0,49,50
 684 176 684 176 683 174 c 128,-1,51
 682 172 682 172 682 166 c 0,52,53
 682 134 682 134 678.5 109.5 c 128,-1,54
 675 85 675 85 673 73 c 1,55,56
 680 69 680 69 689.5 64 c 128,-1,57
 699 59 699 59 707 53 c 128,-1,58
 715 47 715 47 721.5 41.5 c 128,-1,59
 728 36 728 36 729 31 c 0,60,61
 729 27 729 27 726.5 22 c 128,-1,62
 724 17 724 17 722 12 c 0,63,64
 719 6 719 6 716 0 c 1,65,-1
 593 0 l 2,66,67
 583 0 583 0 582.5 9 c 128,-1,68
 582 18 582 18 586 30 c 0,69,70
 592 46 592 46 595 51 c 0,71,72
 601 62 601 62 602 64 c 0,73,74
 604 75 604 75 606 100 c 0,75,76
 608 124 608 124 610 155 c 0,77,78
 611 170 611 170 611 193 c 0,79,80
 611 206 611 206 611 219 c 0,81,82
 610 252 610 252 603.5 279 c 128,-1,83
 597 306 597 306 584 324.5 c 128,-1,84
 571 343 571 343 549 344 c 0,85,86
 545 344 545 344 541 344 c 0,87,-1
 509 341 l 0,88,89
 489 337 489 337 470.5 329.5 c 128,-1,90
 452 322 452 322 436 312.5 c 128,-1,91
 420 303 420 303 407 294 c 1,92,93
 418 262 418 262 422 228 c 0,94,95
 425 201 425 201 425 176 c 0,96,97
 425 169 425 169 425 162 c 0,98,99
 424 131 424 131 421 106.5 c 128,-1,100
 418 82 418 82 416 70 c 1,101,102
 430 62 430 62 449 50 c 0,103,104
 470 37 470 37 470 28 c 0,105,106
 470 24 470 24 467.5 20 c 128,-1,107
 465 16 465 16 463 11 c 0,108,109
 460 6 460 6 457 0 c 1,110,-1
 335 0 l 2,111,112
 326 0 326 0 325 7 c 128,-1,113
 324 14 324 14 327 24 c 0,114,115
 331 37 331 37 335 42 c 0,116,117
 343 52 343 52 343 57 c 0,118,119
 343 57 343 57 347 89 c 0,120,121
 350 114 350 114 352 144 c 0,122,123
 353.333007812 167.333007812 353.333007812 167.333007812 353.333007812 177.77734375 c 0,124,125
 353.333007812 183 353.333007812 183 353 185 c 0,126,127
 353 191 353 191 353 193 c 0,128,129
 352 201 352 201 352 210 c 0,130,131
 352 244 352 244 345.5 272.5 c 128,-1,132
 339 301 339 301 326 320.5 c 128,-1,133
 313 340 313 340 290 341 c 0,134,135
 286 341 286 341 283 341 c 0,136,137
 279 341 279 341 276 341 c 0,138,139
 263 341 263 341 250 338 c 0,140,141
 228 333 228 333 212 325 c 0,142,143
 195 316 195 316 179 305.5 c 128,-1,144
 163 295 163 295 151 286 c 1,145,-1
 151 274 l 2,146,147
 152 199 152 199 152 158.5 c 128,-1,148
 152 118 152 118 152.5 98.5 c 128,-1,149
 153 79 153 79 153.5 73 c 128,-1,150
 154 67 154 67 156 63 c 0,151,152
 160 55 160 55 168.5 53.5 c 128,-1,153
 177 52 177 52 186 53 c 128,-1,154
 195 54 195 54 201.5 54.5 c 128,-1,155
 208 55 208 55 208 51 c 0,156,157
 209 39 209 39 212 29.5 c 128,-1,158
 215 20 215 20 216.5 13.5 c 128,-1,159
 218 7 218 7 217.5 3.5 c 128,-1,160
 217 0 217 0 210 0 c 2,161,-1
 51 0 l 2,162,163
 44 0 44 0 43 2 c 128,-1,164
 42 4 42 4 42.5 10 c 128,-1,165
 43 16 43 16 44 25.5 c 128,-1,166
 45 35 45 35 42 50 c 256,167,168
 39 65 39 65 45 67 c 128,-1,169
 51 69 51 69 59.5 66 c 128,-1,170
 68 63 68 63 75.5 60 c 128,-1,171
 83 57 83 57 83 63 c 0,172,173
 83 117 83 117 82.5 148 c 128,-1,174
 82 179 82 179 82 195 c 2,175,-1
 82 219 l 2,176,177
 82 246 82 246 82 255 c 0,178,179
 82 270 82 270 82 272 c 0,0,1
EndSplineSet
Validated: 1
EndChar

StartChar: n
Encoding: 110 110 44
Width: 523
Flags: W
HStem: 0 56<42.1021 87.4189> 341 52<224.866 352.405>
VStem: 86.9209 68.5<59.3134 294.557> 372.421 76<74.0674 322.91>
LayerCount: 2
Fore
SplineSet
87.4208984375 63 m 0,0,1
 87.4208984375 117 87.4208984375 117 86.9208984375 148 c 128,-1,2
 86.4208984375 179 86.4208984375 179 86.4208984375 195 c 2,3,-1
 86.4208984375 219 l 2,4,5
 86.4208984375 235 86.4208984375 235 85.9208984375 240.5 c 128,-1,6
 85.4208984375 246 85.4208984375 246 85.4208984375 247.5 c 128,-1,7
 85.4208984375 249 85.4208984375 249 84.9208984375 250 c 128,-1,8
 84.4208984375 251 84.4208984375 251 83.9208984375 258.5 c 128,-1,9
 83.4208984375 266 83.4208984375 266 82.9208984375 284.5 c 128,-1,10
 82.4208984375 303 82.4208984375 303 81.4208984375 338 c 0,11,12
 81.4208984375 345 81.4208984375 345 76.9208984375 340.5 c 128,-1,13
 72.4208984375 336 72.4208984375 336 66.9208984375 332.5 c 128,-1,14
 61.4208984375 329 61.4208984375 329 55.4208984375 332.5 c 128,-1,15
 49.4208984375 336 49.4208984375 336 45.4208984375 359 c 0,16,17
 44.4208984375 365 44.4208984375 365 44.4208984375 370 c 0,18,19
 44.4208984375 385 44.4208984375 385 54.4208984375 395 c 0,20,21
 68.4208984375 409 68.4208984375 409 86.4208984375 412 c 0,22,23
 99.4208984375 414 99.4208984375 414 111.920898438 406.5 c 128,-1,24
 124.420898438 399 124.420898438 399 134.920898438 388 c 128,-1,25
 145.420898438 377 145.420898438 377 153.420898438 366.5 c 128,-1,26
 161.420898438 356 161.420898438 356 167.420898438 353 c 1,27,28
 185.420898438 362 185.420898438 362 207.920898438 370.5 c 128,-1,29
 230.420898438 379 230.420898438 379 253.420898438 385 c 0,30,31
 276.420898438 390 276.420898438 390 300.420898438 392 c 0,32,33
 305.420898438 392 305.420898438 392 309.420898438 393 c 0,34,35
 328.420898438 393 328.420898438 393 345.420898438 388 c 0,36,37
 383.420898438 377 383.420898438 377 405.420898438 353 c 128,-1,38
 427.420898438 329 427.420898438 329 437.420898438 298 c 0,39,40
 448.420898438 266 448.420898438 266 448.420898438 231 c 0,41,42
 448.420898438 227 448.420898438 227 448.420898438 222 c 0,43,44
 448.420898438 192 448.420898438 192 444.420898438 164 c 0,45,46
 440.420898438 132 440.420898438 132 434.420898438 107 c 128,-1,47
 428.420898438 82 428.420898438 82 425.420898438 70 c 1,48,49
 432.420898438 66 432.420898438 66 441.920898438 61 c 128,-1,50
 451.420898438 56 451.420898438 56 459.920898438 50 c 128,-1,51
 468.420898438 44 468.420898438 44 474.420898438 38.5 c 128,-1,52
 480.420898438 33 480.420898438 33 481.420898438 28 c 0,53,54
 481.420898438 24 481.420898438 24 479.920898438 20 c 128,-1,55
 478.420898438 16 478.420898438 16 476.420898438 11 c 2,56,-1
 471.420898438 1 l 1,57,58
 444.420898438 0 444.420898438 0 419.420898438 0 c 2,59,-1
 347.420898438 0 l 2,60,61
 337.420898438 0 337.420898438 0 336.420898438 8 c 128,-1,62
 335.420898438 16 335.420898438 16 338.920898438 26.5 c 128,-1,63
 342.420898438 37 342.420898438 37 347.420898438 46.5 c 128,-1,64
 352.420898438 56 352.420898438 56 354.420898438 60 c 0,65,66
 356.420898438 71 356.420898438 71 360.920898438 95.5 c 128,-1,67
 365.420898438 120 365.420898438 120 368.420898438 151 c 128,-1,68
 371.420898438 182 371.420898438 182 372.420898438 215 c 0,69,70
 372.420898438 221 372.420898438 221 372.420898438 226 c 0,71,72
 372.420898438 254 372.420898438 254 368.420898438 276 c 0,73,74
 363.420898438 304 363.420898438 304 351.420898438 322 c 128,-1,75
 339.420898438 340 339.420898438 340 317.420898438 341 c 0,76,77
 314.420898438 341 314.420898438 341 311.420898438 341 c 0,78,79
 294.420898438 340 294.420898438 340 274.420898438 336 c 0,80,81
 252.420898438 330 252.420898438 330 230.420898438 321.5 c 128,-1,82
 208.420898438 313 208.420898438 313 188.920898438 301.5 c 128,-1,83
 169.420898438 290 169.420898438 290 154.420898438 281 c 1,84,-1
 154.420898438 274 l 2,85,86
 155.420898438 199 155.420898438 199 155.420898438 158.5 c 128,-1,87
 155.420898438 118 155.420898438 118 155.920898438 98.5 c 128,-1,88
 156.420898438 79 156.420898438 79 157.420898438 73 c 128,-1,89
 158.420898438 67 158.420898438 67 160.420898438 63 c 0,90,91
 164.420898438 55 164.420898438 55 172.920898438 53.5 c 128,-1,92
 181.420898438 52 181.420898438 52 190.420898438 53 c 128,-1,93
 199.420898438 54 199.420898438 54 205.920898438 54.5 c 128,-1,94
 212.420898438 55 212.420898438 55 212.420898438 51 c 0,95,96
 213.420898438 39 213.420898438 39 216.420898438 29.5 c 128,-1,97
 219.420898438 20 219.420898438 20 221.920898438 14 c 128,-1,98
 224.420898438 8 224.420898438 8 224.420898438 4.5 c 128,-1,99
 224.420898438 1 224.420898438 1 218.420898438 1 c 0,100,101
 207.420898438 1 207.420898438 1 188.420898438 0.5 c 128,-1,102
 169.420898438 0 169.420898438 0 146.420898438 0 c 128,-1,103
 123.420898438 0 123.420898438 0 99.4208984375 0 c 128,-1,104
 75.4208984375 0 75.4208984375 0 54.4208984375 0 c 0,105,106
 47.4208984375 0 47.4208984375 0 45.4208984375 0 c 128,-1,107
 43.4208984375 0 43.4208984375 0 43.4208984375 3.5 c 128,-1,108
 43.4208984375 7 43.4208984375 7 42.9208984375 14.5 c 128,-1,109
 42.4208984375 22 42.4208984375 22 39.4208984375 37 c 0,110,111
 37.4208984375 52 37.4208984375 52 44.9208984375 56 c 128,-1,112
 52.4208984375 60 52.4208984375 60 61.9208984375 59.5 c 128,-1,113
 71.4208984375 59 71.4208984375 59 79.4208984375 58 c 128,-1,114
 87.4208984375 57 87.4208984375 57 87.4208984375 63 c 0,0,1
EndSplineSet
Validated: 1
EndChar

StartChar: o
Encoding: 111 111 45
Width: 496
Flags: W
HStem: 0 66<183.747 312.608> 365 56<171.89 317.682>
VStem: 39 75<142.276 304.432> 373 78<134.375 310.734>
LayerCount: 2
Fore
SplineSet
256 421 m 0,0,1
 322 421 322 421 364 398 c 128,-1,2
 406 375 406 375 427 339 c 128,-1,3
 448 303 448 303 450 258 c 0,4,5
 450 250 450 250 451 241 c 0,6,7
 451 204 451 204 442 169 c 128,-1,8
 433 134 433 134 415.5 103 c 128,-1,9
 398 72 398 72 374 48.5 c 128,-1,10
 350 25 350 25 319 12 c 0,11,12
 290 0 290 0 257 0 c 0,13,14
 254 0 254 0 252 0 c 0,15,16
 211 1 211 1 173 16 c 128,-1,17
 135 31 135 31 106 56.5 c 128,-1,18
 77 82 77 82 59 116.5 c 128,-1,19
 41 151 41 151 40 190 c 0,20,21
 39 205 39 205 39 219 c 0,22,23
 40 250 40 250 44 278 c 0,24,25
 50 320 50 320 73 351.5 c 128,-1,26
 96 383 96 383 140 402 c 128,-1,27
 184 421 184 421 256 421 c 0,0,1
248 365 m 0,28,29
 243 365 243 365 239 365 c 0,30,31
 212 365 212 365 191 355 c 0,32,33
 166 343 166 343 148.5 322.5 c 128,-1,34
 131 302 131 302 122.5 275 c 128,-1,35
 114 248 114 248 114 219 c 0,36,37
 115 192 115 192 125.5 164.5 c 128,-1,38
 136 137 136 137 154 115 c 128,-1,39
 172 93 172 93 196.5 79.5 c 128,-1,40
 221 66 221 66 250 66 c 0,41,42
 278 66 278 66 300 79 c 128,-1,43
 322 92 322 92 337.5 112.5 c 128,-1,44
 353 133 353 133 361.5 159 c 128,-1,45
 370 185 370 185 372 212 c 0,46,47
 373 220 373 220 373 228 c 0,48,49
 373 248 373 248 369 266 c 0,50,51
 364 292 364 292 350 313 c 128,-1,52
 336 334 336 334 311 348 c 128,-1,53
 286 362 286 362 248 365 c 0,28,29
EndSplineSet
Validated: 1
EndChar

StartChar: p
Encoding: 112 112 46
Width: 591
Flags: W
HStem: -295 75<45.2719 100.692> -1 50<172.601 405.469> 335 63.25<175.539 385.419>
VStem: 97.6924 72<-234.964 3 66 328> 468.692 77<108.006 265.953>
LayerCount: 2
Fore
SplineSet
100.692382812 -235 m 0,0,1
 100.692382812 -181 100.692382812 -181 100.692382812 -142 c 128,-1,2
 100.692382812 -103 100.692382812 -103 100.192382812 -72 c 128,-1,3
 99.6923828125 -41 99.6923828125 -41 99.1923828125 -14 c 128,-1,4
 98.6923828125 13 98.6923828125 13 97.6923828125 44 c 0,5,6
 97.6923828125 79 97.6923828125 79 97.6923828125 110.5 c 128,-1,7
 97.6923828125 142 97.6923828125 142 97.6923828125 176.5 c 128,-1,8
 97.6923828125 211 97.6923828125 211 97.6923828125 251.5 c 128,-1,9
 97.6923828125 292 97.6923828125 292 96.6923828125 345 c 0,10,11
 96.6923828125 352 96.6923828125 352 92.1923828125 347.5 c 128,-1,12
 87.6923828125 343 87.6923828125 343 81.6923828125 339.5 c 128,-1,13
 75.6923828125 336 75.6923828125 336 69.6923828125 339.5 c 128,-1,14
 63.6923828125 343 63.6923828125 343 59.6923828125 366 c 0,15,16
 58.6923828125 370 58.6923828125 370 58.6923828125 374 c 0,17,18
 58.6923828125 391 58.6923828125 391 70.6923828125 402 c 0,19,20
 84.6923828125 416 84.6923828125 416 100.692382812 419 c 0,21,22
 112.692382812 421 112.692382812 421 123.692382812 417.5 c 128,-1,23
 134.692382812 414 134.692382812 414 144.192382812 408.5 c 128,-1,24
 153.692382812 403 153.692382812 403 161.192382812 396.5 c 128,-1,25
 168.692382812 390 168.692382812 390 174.692382812 386 c 1,26,27
 201.692382812 392 201.692382812 392 240.692382812 396 c 0,28,29
 259.442382812 398.25 259.442382812 398.25 278.754882812 398.25 c 0,30,31
 285.192382812 398.25 285.192382812 398.25 291.692382812 398 c 0,32,33
 306.692382812 398 306.692382812 398 321.692382812 398 c 0,34,35
 363.692382812 396 363.692382812 396 404.692382812 384 c 128,-1,36
 445.692382812 372 445.692382812 372 477.692382812 346 c 128,-1,37
 509.692382812 320 509.692382812 320 528.692382812 276 c 0,38,39
 545.692382812 237 545.692382812 237 545.692382812 179 c 0,40,41
 545.692382812 173 545.692382812 173 545.692382812 167 c 0,42,43
 543.692382812 123 543.692382812 123 523.692382812 93 c 128,-1,44
 503.692382812 63 503.692382812 63 471.692382812 44 c 128,-1,45
 439.692382812 25 439.692382812 25 399.192382812 15.5 c 128,-1,46
 358.692382812 6 358.692382812 6 317.692382812 2 c 0,47,48
 284.692382812 -1 284.692382812 -1 253.692382812 -1 c 0,49,50
 246.692382812 -1 246.692382812 -1 238.692382812 -1 c 0,51,52
 200.692382812 0 200.692382812 0 171.692382812 3 c 1,53,54
 171.692382812 -44 171.692382812 -44 172.192382812 -86.5 c 128,-1,55
 172.692382812 -129 172.692382812 -129 173.692382812 -162 c 128,-1,56
 174.692382812 -195 174.692382812 -195 175.192382812 -214.5 c 128,-1,57
 175.692382812 -234 175.692382812 -234 176.692382812 -235 c 0,58,59
 180.692382812 -243 180.692382812 -243 188.692382812 -244.5 c 128,-1,60
 196.692382812 -246 196.692382812 -246 205.192382812 -245 c 128,-1,61
 213.692382812 -244 213.692382812 -244 219.692382812 -243.5 c 128,-1,62
 225.692382812 -243 225.692382812 -243 225.692382812 -247 c 0,63,64
 226.692382812 -259 226.692382812 -259 230.192382812 -266.5 c 128,-1,65
 233.692382812 -274 233.692382812 -274 236.692382812 -278.5 c 128,-1,66
 239.692382812 -283 239.692382812 -283 239.692382812 -285 c 128,-1,67
 239.692382812 -287 239.692382812 -287 233.692382812 -290 c 0,68,69
 222.692382812 -295 222.692382812 -295 201.692382812 -296 c 0,70,71
 187.692382812 -297 187.692382812 -297 171.692382812 -297 c 0,72,73
 162.692382812 -296 162.692382812 -296 154.692382812 -296 c 0,74,75
 128.692382812 -296 128.692382812 -296 102.692382812 -295.5 c 128,-1,76
 76.6923828125 -295 76.6923828125 -295 55.6923828125 -295 c 0,77,78
 47.6923828125 -295 47.6923828125 -295 45.1923828125 -291.5 c 128,-1,79
 42.6923828125 -288 42.6923828125 -288 41.6923828125 -280.5 c 128,-1,80
 40.6923828125 -273 40.6923828125 -273 39.6923828125 -261.5 c 128,-1,81
 38.6923828125 -250 38.6923828125 -250 35.6923828125 -235 c 256,82,83
 32.6923828125 -220 32.6923828125 -220 42.6923828125 -220 c 128,-1,84
 52.6923828125 -220 52.6923828125 -220 65.6923828125 -225.5 c 128,-1,85
 78.6923828125 -231 78.6923828125 -231 89.6923828125 -236 c 128,-1,86
 100.692382812 -241 100.692382812 -241 100.692382812 -235 c 0,0,1
169.692382812 175 m 0,87,88
 169.692382812 149 169.692382812 149 169.692382812 121.5 c 128,-1,89
 169.692382812 94 169.692382812 94 170.692382812 66 c 0,90,91
 171.692382812 66 171.692382812 66 194.692382812 61 c 128,-1,92
 217.692382812 56 217.692382812 56 250.692382812 52 c 0,93,94
 274.692382812 49 274.692382812 49 301.692382812 49 c 0,95,96
 312.692382812 50 312.692382812 50 322.692382812 50 c 0,97,98
 360.692382812 52 360.692382812 52 393.192382812 65 c 128,-1,99
 425.692382812 78 425.692382812 78 447.192382812 108 c 128,-1,100
 468.692382812 138 468.692382812 138 468.692382812 191 c 0,101,102
 468.692382812 238 468.692382812 238 447.192382812 266.5 c 128,-1,103
 425.692382812 295 425.692382812 295 393.192382812 310 c 128,-1,104
 360.692382812 325 360.692382812 325 322.692382812 330 c 128,-1,105
 284.692382812 335 284.692382812 335 251.692382812 335 c 128,-1,106
 218.692382812 335 218.692382812 335 195.692382812 331.5 c 128,-1,107
 172.692382812 328 172.692382812 328 169.692382812 328 c 2,108,-1
 169.692382812 324 l 2,109,110
 169.692382812 317 169.692382812 317 170.192382812 301.5 c 128,-1,111
 170.692382812 286 170.692382812 286 170.692382812 266 c 128,-1,112
 170.692382812 246 170.692382812 246 170.192382812 222 c 128,-1,113
 169.692382812 198 169.692382812 198 169.692382812 175 c 0,87,88
EndSplineSet
Validated: 1
EndChar

StartChar: q
Encoding: 113 113 47
Width: 610
Flags: W
HStem: -282.5 54<371.735 411> -166 55<300 300 481 558.721> -2 48<168.418 408.179> 345.5 48.5<231.818 410.819> 384 20G<523.5 527.5>
VStem: 38 57.9561<108.958 256.873> 411 67<-221.903 -163 -105 2 58 345.829>
LayerCount: 2
Fore
SplineSet
572 -159 m 1,0,-1
 481 -161 l 1,1,2
 482 -187 482 -187 483 -203 c 128,-1,3
 484 -219 484 -219 486 -222 c 0,4,5
 490 -230 490 -230 498 -231.5 c 128,-1,6
 506 -233 506 -233 514 -232 c 128,-1,7
 522 -231 522 -231 528.5 -230.5 c 128,-1,8
 535 -230 535 -230 535 -234 c 0,9,10
 536 -246 536 -246 538 -253.5 c 128,-1,11
 540 -261 540 -261 540 -265 c 128,-1,12
 540 -269 540 -269 538 -271 c 128,-1,13
 536 -273 536 -273 530 -276 c 0,14,15
 519 -281 519 -281 500 -282 c 128,-1,16
 481 -283 481 -283 457.5 -283 c 128,-1,17
 434 -283 434 -283 409.5 -282.5 c 128,-1,18
 385 -282 385 -282 364 -282 c 0,19,20
 357 -282 357 -282 356 -278.5 c 128,-1,21
 355 -275 355 -275 357 -270 c 128,-1,22
 359 -265 359 -265 361.5 -260.5 c 128,-1,23
 364 -256 364 -256 364 -254 c 0,24,25
 364 -239 364 -239 371.5 -234 c 128,-1,26
 379 -229 379 -229 387.5 -228.5 c 128,-1,27
 396 -228 396 -228 403.5 -228 c 128,-1,28
 411 -228 411 -228 411 -222 c 2,29,-1
 411 -163 l 1,30,-1
 295 -166 l 1,31,-1
 300 -111 l 1,32,-1
 411 -107 l 1,33,34
 411 -75 411 -75 410.5 -49 c 128,-1,35
 410 -23 410 -23 410 2 c 1,36,37
 381 -1 381 -1 343 -2 c 0,38,39
 335 -2 335 -2 326 -2 c 0,40,41
 297 -2 297 -2 265 0 c 0,42,43
 225 4 225 4 184.5 13.5 c 128,-1,44
 144 23 144 23 112.5 41.5 c 128,-1,45
 81 60 81 60 60.5 90 c 128,-1,46
 40 120 40 120 38 163 c 0,47,48
 38 170 38 170 38 177 c 0,49,50
 39 236 39 236 61 275 c 0,51,52
 87 319 87 319 128 344.5 c 128,-1,53
 169 370 169 370 220.5 381 c 128,-1,54
 272 392 272 392 319 394 c 0,55,56
 340 395 340 395 360 396 c 0,57,58
 383 396 383 396 403 394 c 0,59,60
 440 391 440 391 454 389 c 1,61,62
 469 392 469 392 483.5 395 c 128,-1,63
 498 398 498 398 509.5 400 c 128,-1,64
 521 402 521 402 527.5 403 c 0,65,-1
 534 404 l 0,66,67
 513 389 513 389 501.5 365.5 c 128,-1,68
 490 342 490 342 485 315 c 128,-1,69
 480 288 480 288 479 259 c 128,-1,70
 478 230 478 230 478 202 c 2,71,-1
 480 -105 l 1,72,-1
 567 -102 l 1,73,-1
 572 -159 l 1,0,-1
119 107 m 128,-1,75
 142 78 142 78 176.5 64 c 128,-1,76
 211 50 211 50 251 48 c 0,77,78
 271 47 271 47 289 46 c 0,79,80
 306 46 306 46 325 48 c 0,81,82
 382 54 382 54 383 54 c 0,83,84
 407 59 407 59 409 58 c 1,85,86
 408 84 408 84 408 108 c 0,87,88
 409 127 409 127 409 145 c 0,89,90
 411 187 411 187 411 238 c 2,91,-1
 411 346 l 2,92,93
 410 346 410 346 386 345.5 c 128,-1,94
 362 345 362 345 326.5 341.5 c 128,-1,95
 291 338 291 338 250.5 328.5 c 128,-1,96
 210 319 210 319 175 302 c 0,97,98
 139 284 139 284 117 256 c 0,99,100
 95.9560546875 229.217773438 95.9560546875 229.217773438 95.9560546875 193.28515625 c 0,101,74
 95.9560546875 136.0546875 95.9560546875 136.0546875 119 107 c 128,-1,75
EndSplineSet
Validated: 1
EndChar

StartChar: r
Encoding: 114 114 48
Width: 361
Flags: W
HStem: 0 77<43.6604 103.69> 328.5 65.5<65.0066 100.507> 329 52<172.692 261.015> 376 20G<112.692 123.192>
VStem: 100.692 72<63.6819 329>
LayerCount: 2
Fore
SplineSet
103.692382812 62 m 0,0,1
 103.692382812 116 103.692382812 116 103.192382812 147 c 128,-1,2
 102.692382812 178 102.692382812 178 101.692382812 194 c 0,3,4
 100.692382812 212 100.692382812 212 100.692382812 218 c 0,5,6
 99.6923828125 265 99.6923828125 265 99.6923828125 280.5 c 128,-1,7
 99.6923828125 296 99.6923828125 296 100.692382812 297 c 0,8,9
 100.692382812 304 100.692382812 304 100.192382812 314 c 128,-1,10
 99.6923828125 324 99.6923828125 324 99.6923828125 341 c 0,11,12
 99.6923828125 348 99.6923828125 348 94.6923828125 342 c 128,-1,13
 89.6923828125 336 89.6923828125 336 83.1923828125 331 c 128,-1,14
 76.6923828125 326 76.6923828125 326 69.6923828125 328.5 c 128,-1,15
 62.6923828125 331 62.6923828125 331 58.6923828125 354 c 0,16,17
 57.6923828125 360 57.6923828125 360 57.6923828125 365 c 0,18,19
 57.6923828125 378 57.6923828125 378 64.6923828125 384 c 0,20,21
 74.6923828125 392 74.6923828125 392 91.6923828125 394 c 0,22,23
 106.692382812 396 106.692382812 396 118.692382812 396 c 0,24,25
 127.692382812 396 127.692382812 396 133.692382812 395 c 0,26,27
 149.692382812 392 149.692382812 392 159.692382812 381 c 1,28,29
 170.692382812 381 170.692382812 381 196.692382812 381 c 128,-1,30
 222.692382812 381 222.692382812 381 250.692382812 382 c 0,31,32
 283.692382812 383 283.692382812 383 320.692382812 384 c 1,33,34
 312.692382812 375 312.692382812 375 306.692382812 366 c 0,35,36
 301.692382812 358 301.692382812 358 297.192382812 349 c 128,-1,37
 292.692382812 340 292.692382812 340 290.692382812 332 c 0,38,39
 287.692382812 324 287.692382812 324 288.692382812 313.5 c 128,-1,40
 289.692382812 303 289.692382812 303 291.692382812 294 c 128,-1,41
 293.692382812 285 293.692382812 285 295.692382812 280 c 0,42,-1
 297.692382812 274 l 257,43,44
 287.692382812 270 l 0,45,46
 278.692382812 267 278.692382812 267 267.192382812 264 c 128,-1,47
 255.692382812 261 255.692382812 261 246.692382812 261 c 128,-1,48
 237.692382812 261 237.692382812 261 239.692382812 267 c 0,49,50
 241.692382812 274 241.692382812 274 247.692382812 280.5 c 128,-1,51
 253.692382812 287 253.692382812 287 257.692382812 293.5 c 128,-1,52
 261.692382812 300 261.692382812 300 261.192382812 306 c 128,-1,53
 260.692382812 312 260.692382812 312 250.692382812 318 c 0,54,55
 247.692382812 320 247.692382812 320 238.692382812 322 c 128,-1,56
 229.692382812 324 229.692382812 324 217.692382812 325.5 c 128,-1,57
 205.692382812 327 205.692382812 327 193.692382812 328 c 128,-1,58
 181.692382812 329 181.692382812 329 172.692382812 329 c 1,59,60
 173.692382812 320 173.692382812 320 173.192382812 310 c 128,-1,61
 172.692382812 300 172.692382812 300 172.692382812 289 c 0,62,63
 173.692382812 214 173.692382812 214 173.692382812 171 c 128,-1,64
 173.692382812 128 173.692382812 128 173.692382812 105.5 c 128,-1,65
 173.692382812 83 173.692382812 83 174.192382812 74.5 c 128,-1,66
 174.692382812 66 174.692382812 66 176.692382812 62 c 0,67,68
 180.692382812 54 180.692382812 54 189.192382812 52.5 c 128,-1,69
 197.692382812 51 197.692382812 51 206.192382812 52 c 128,-1,70
 214.692382812 53 214.692382812 53 221.192382812 53.5 c 128,-1,71
 227.692382812 54 227.692382812 54 227.692382812 50 c 0,72,73
 228.692382812 38 228.692382812 38 232.192382812 30.5 c 128,-1,74
 235.692382812 23 235.692382812 23 238.692382812 18.5 c 128,-1,75
 241.692382812 14 241.692382812 14 241.692382812 12 c 128,-1,76
 241.692382812 10 241.692382812 10 235.692382812 7 c 0,77,78
 224.692382812 2 224.692382812 2 203.692382812 0.5 c 128,-1,79
 182.692382812 -1 182.692382812 -1 157.192382812 -1 c 128,-1,80
 131.692382812 -1 131.692382812 -1 105.192382812 -0.5 c 128,-1,81
 78.6923828125 0 78.6923828125 0 57.6923828125 0 c 0,82,83
 43.6923828125 0 43.6923828125 0 43.6923828125 16 c 128,-1,84
 43.6923828125 32 43.6923828125 32 38.6923828125 62 c 0,85,86
 35.6923828125 77 35.6923828125 77 45.6923828125 77 c 128,-1,87
 55.6923828125 77 55.6923828125 77 68.1923828125 71.5 c 128,-1,88
 80.6923828125 66 80.6923828125 66 92.1923828125 61 c 128,-1,89
 103.692382812 56 103.692382812 56 103.692382812 62 c 0,0,1
EndSplineSet
Validated: 1
EndChar

StartChar: t
Encoding: 116 116 49
Width: 351
Flags: W
HStem: 0 75<86.9561 147> 426 55<41 145 217 298.429>
VStem: 145 83<487.234 572.618> 147 70<60.1321 429 487 571.646>
LayerCount: 2
Fore
SplineSet
312 433 m 1,0,-1
 217 430 l 1,1,2
 217 363 217 363 217 298 c 128,-1,3
 217 233 217 233 217 181.5 c 128,-1,4
 217 130 217 130 218 97 c 128,-1,5
 219 64 219 64 221 60 c 0,6,7
 225 52 225 52 233.5 50.5 c 128,-1,8
 242 49 242 49 250.5 50 c 128,-1,9
 259 51 259 51 265.5 51.5 c 128,-1,10
 272 52 272 52 272 48 c 0,11,12
 273 36 273 36 276.5 28.5 c 128,-1,13
 280 21 280 21 283 16.5 c 128,-1,14
 286 12 286 12 286.5 10 c 128,-1,15
 287 8 287 8 281 5 c 0,16,17
 270 0 270 0 248 -1 c 0,18,19
 233 -2 233 -2 217 -2 c 0,20,21
 209 -2 209 -2 200 -2 c 0,22,23
 174 -2 174 -2 147.5 -1 c 128,-1,24
 121 0 121 0 100 0 c 0,25,26
 87 0 87 0 87 17 c 0,27,28
 87 32 87 32 81 60 c 0,29,30
 79 75 79 75 89 75 c 128,-1,31
 99 75 99 75 112 69.5 c 128,-1,32
 125 64 125 64 136 59 c 128,-1,33
 147 54 147 54 147 60 c 2,34,-1
 147 344 l 2,35,36
 146 377 146 377 145.5 396 c 128,-1,37
 145 415 145 415 145 429 c 1,38,-1
 36 426 l 1,39,-1
 41 481 l 1,40,-1
 146 484 l 1,41,42
 146 494 146 494 146 511 c 128,-1,43
 146 528 146 528 145 566 c 1,44,45
 114 573 114 573 108.5 584 c 128,-1,46
 103 595 103 595 112.5 604.5 c 128,-1,47
 122 614 122 614 142 620 c 0,48,49
 158 625 158 625 173 626 c 0,50,-1
 180 626 l 0,51,52
 200 624 200 624 214 613 c 0,53,54
 228 603 228 603 228 580 c 0,55,56
 228 564 228 564 226 561 c 128,-1,57
 224 558 224 558 222 554 c 128,-1,58
 220 550 220 550 218.5 540 c 128,-1,59
 217 530 217 530 217 502 c 2,60,-1
 217 487 l 1,61,-1
 308 490 l 1,62,-1
 312 433 l 1,0,-1
EndSplineSet
Validated: 1
EndChar

